<!-- Generated by IcoMoon.io -->
<svg version="1.1" xmlns="http://www.w3.org/2000/svg" width="1024" height="1024" viewBox="0 0 1024 1024">
<title></title>
<g id="icomoon-ignore">
</g>
<path d="M512 208c50.35 0 91.2 40.85 91.2 91.2s-40.85 91.2-91.2 91.2c-50.35 0-91.2-40.85-91.2-91.2s40.85-91.2 91.2-91.2zM451.2 542.4c0-16.72-13.68-30.4-30.4-30.4v-60.8h121.6c16.72 0 30.4 13.68 30.4 30.4v243.2c0 16.72 13.68 30.4 30.4 30.4h30.4v60.8h-243.2v-60.8h30.4c16.72 0 30.4-13.68 30.4-30.4v-182.4z"></path>
<path d="M512 40c-260.654 0-472 211.346-472 472s211.346 472 472 472c260.654 0 472-211.346 472-472s-211.346-472-472-472zM512 107.429c223.464 0 404.571 181.11 404.571 404.571s-181.11 404.571-404.571 404.571c-223.464 0-404.571-181.11-404.571-404.571s181.11-404.571 404.571-404.571z"></path>
</svg>
