<?xml version="1.0" encoding="iso-8859-1"?>
<!-- Generator: Adobe Illustrator 19.0.0, SVG Export Plug-In . SVG Version: 6.00 Build 0)  -->
<svg version="1.1" id="Layer_1" xmlns="http://www.w3.org/2000/svg" xmlns:xlink="http://www.w3.org/1999/xlink" x="0px" y="0px"
	 viewBox="0 0 512 512" style="enable-background:new 0 0 512 512;" xml:space="preserve">
<g>
	<g>
		<path d="M445.66,49.341H340.206L294.008,3.143c-4.192-4.191-10.99-4.191-15.183,0l-49.341,49.342
			c-4.192,4.192-4.192,10.99,0,15.183l46.198,46.198v38.494h-80.516c-5.929,0-10.736,4.806-10.736,10.735v21.471h-42.942v-21.471
			c0-5.929-4.806-10.735-10.736-10.735H66.34c-5.929,0-10.735,4.806-10.735,10.735v64.413c0,5.929,4.806,10.735,10.735,10.735
			h20.755v93.798c0,5.929,4.806,10.736,10.735,10.736h95.437l-10.346,10.346c-4.192,4.192-4.193,10.99,0,15.182
			c2.097,2.097,4.844,3.144,7.591,3.144c2.747,0,5.495-1.049,7.591-3.144l15.061-15.061c3.994,8.83,10.521,16.859,19.311,23.54
			c11.932,9.068,26.987,14.783,43.205,16.539v32.792h-42.942c-5.929,0-10.735,4.806-10.735,10.736v64.413
			c0,5.929,4.806,10.735,10.735,10.735h107.355c5.929,0,10.735-4.806,10.735-10.735v-64.413c0-5.929-4.806-10.736-10.735-10.736
			h-42.942v-32.792c16.218-1.756,31.272-7.471,43.205-16.539c8.801-6.689,15.332-14.73,19.325-23.572l15.092,15.092
			c2.097,2.097,4.844,3.144,7.591,3.144s5.495-1.049,7.591-3.144c4.192-4.192,4.192-10.99,0-15.182l-10.346-10.346h66.05
			c5.929,0,10.736-4.806,10.736-10.736V60.077C456.396,54.148,451.589,49.341,445.66,49.341z M252.257,60.078l34.16-34.16
			l34.16,34.16l-34.16,34.16L252.257,60.078z M205.901,173.832h161.032v42.942H205.901V173.832z M77.075,216.774v-42.942h42.942
			v42.942H77.075z M213.249,310.922l-15.143-15.143c-4.192-4.192-10.99-4.192-15.183,0c-4.192,4.192-4.192,10.99,0,15.183
			l10.346,10.346h-84.702v-83.063h22.187c5.929,0,10.735-4.806,10.735-10.735v-21.471h42.942v21.471
			c0,5.929,4.806,10.735,10.735,10.735h80.516v32.792c-16.218,1.756-31.272,7.471-43.205,16.539
			C223.75,294.208,217.25,302.168,213.249,310.922z M329.359,447.587v42.942h-85.884v-42.942H329.359z M286.417,372.439
			c-31.078,0-56.361-18.059-56.361-40.258s25.283-40.258,56.361-40.258c31.078,0,56.361,18.059,56.361,40.258
			S317.496,372.439,286.417,372.439z M379.61,321.308l10.347-10.346c4.192-4.192,4.192-10.99,0-15.183
			c-4.192-4.191-10.99-4.191-15.183,0l-15.175,15.175c-4-8.766-10.505-16.738-19.242-23.378
			c-11.932-9.068-26.987-14.783-43.205-16.539v-32.792h80.516c5.929,0,10.735-4.806,10.735-10.735v-64.413
			c0-5.929-4.806-10.735-10.735-10.735h-80.516v-38.494l43.054-43.054h94.718v250.494H379.61z"/>
	</g>
</g>
<g>
</g>
<g>
</g>
<g>
</g>
<g>
</g>
<g>
</g>
<g>
</g>
<g>
</g>
<g>
</g>
<g>
</g>
<g>
</g>
<g>
</g>
<g>
</g>
<g>
</g>
<g>
</g>
<g>
</g>
</svg>
