<?xml version="1.0" encoding="UTF-8" standalone="no"?>
<!-- Generator: Adobe Illustrator 17.0.0, SVG Export Plug-In . SVG Version: 6.00 Build 0)  -->

<svg
   xmlns:dc="http://purl.org/dc/elements/1.1/"
   xmlns:cc="http://creativecommons.org/ns#"
   xmlns:rdf="http://www.w3.org/1999/02/22-rdf-syntax-ns#"
   xmlns:svg="http://www.w3.org/2000/svg"
   xmlns="http://www.w3.org/2000/svg"
   xmlns:sodipodi="http://sodipodi.sourceforge.net/DTD/sodipodi-0.dtd"
   xmlns:inkscape="http://www.inkscape.org/namespaces/inkscape"
   version="1.1"
   id="Layer_1"
   x="0px"
   y="0px"
   width="141.73px"
   height="141.73px"
   viewBox="0 0 141.73 141.73"
   enable-background="new 0 0 141.73 141.73"
   xml:space="preserve"
   sodipodi:docname="iconMIDA_White.svg"
   inkscape:version="0.92.0 r15299"><metadata
     id="metadata13"><rdf:RDF><cc:Work
         rdf:about=""><dc:format>image/svg+xml</dc:format><dc:type
           rdf:resource="http://purl.org/dc/dcmitype/StillImage" /></cc:Work></rdf:RDF></metadata><defs
     id="defs11" /><sodipodi:namedview
     pagecolor="#ffffff"
     bordercolor="#666666"
     borderopacity="1"
     objecttolerance="10"
     gridtolerance="10"
     guidetolerance="10"
     inkscape:pageopacity="0"
     inkscape:pageshadow="2"
     inkscape:window-width="1920"
     inkscape:window-height="1017"
     id="namedview9"
     showgrid="false"
     inkscape:zoom="1.665138"
     inkscape:cx="70.864998"
     inkscape:cy="70.864998"
     inkscape:window-x="1912"
     inkscape:window-y="-8"
     inkscape:window-maximized="1"
     inkscape:current-layer="Layer_1" /><g
     id="g6"><ellipse
       fill="none"
       stroke="#43516A"
       stroke-width="4"
       stroke-miterlimit="10"
       cx="69.904"
       cy="71.254"
       rx="62.081"
       ry="62.98"
       id="ellipse2" /><path
       fill="#43516A"
       d="M105.96,37.848v67.962H94.747V53.48l-49.782,52.33H33.751V37.848h11.213l24.721,26.079l25.061-26.079   H105.96z M44.965,89.754L62.125,71.83L44.965,53.393V89.754z"
       id="path4" /></g><path
     style="fill:#f2f2f2;stroke-width:0.60055083"
     d="M 34.231397,71.825879 V 38.195033 h 5.354118 5.354117 l 12.196112,12.911843 c 6.707862,7.101513 12.354903,12.911842 12.548981,12.911842 0.194077,0 5.87643,-5.792488 12.627449,-12.872196 l 12.274582,-12.872196 5.555094,-0.03965 5.5551,-0.03965 V 71.825879 105.45673 H 100.2983 94.899655 L 94.743205,79.337055 94.586756,53.217384 69.75609,79.337055 44.925425,105.45673 h -5.347014 -5.347014 z m 19.720338,8.996202 8.610147,-9.010207 -8.561656,-9.151398 c -4.708911,-5.033268 -8.786164,-9.24148 -9.060561,-9.351581 -0.274397,-0.110101 -0.498904,8.064897 -0.498904,18.166663 0,10.101765 0.202686,18.36457 0.450413,18.361789 0.247728,-0.0028 4.32498,-4.059651 9.060561,-9.015266 z"
     id="path15"
     inkscape:connector-curvature="0" /><path
     style="fill:#f2f2f2;stroke-width:0.60055083"
     d="M 63.958663,135.73249 C 47.103505,133.34234 35.222012,127.52688 24.602338,116.46931 18.658874,110.28077 15.897075,106.28571 12.296936,98.669024 4.0345756,81.188629 4.0382961,61.254055 12.307184,43.760002 17.411167,32.961772 25.629333,23.371411 35.242357,16.995318 63.060863,-1.4560439 100.68468,5.3312125 120.84786,32.438369 c 18.76845,25.232092 16.6539,60.711419 -4.97546,83.481501 -9.24273,9.7302 -20.404072,16.0147 -33.236378,18.71405 -4.329971,0.91084 -15.406765,1.56236 -18.677359,1.09857 z m 16.210068,-4.16776 c 11.810361,-2.05955 22.501629,-7.60011 31.258019,-16.19892 8.65815,-8.50232 13.81933,-17.346546 16.92521,-29.003112 1.35291,-5.077561 1.55308,-7.028594 1.55308,-15.13737 0,-8.108776 -0.20017,-10.059806 -1.55308,-15.137371 C 121.33704,29.760484 99.559707,11.713132 72.924893,10.154346 46.459745,8.6054891 21.301112,26.0009 12.66614,51.819002 8.2584549,64.997745 8.8301033,81.629421 14.138178,94.646811 c 5.265837,12.913809 16.601991,25.263669 28.801206,31.376689 11.432225,5.72868 24.770242,7.71392 37.229347,5.54123 z"
     id="path17"
     inkscape:connector-curvature="0" /></svg>