<?xml version="1.0" encoding="UTF-8" standalone="no"?>
<svg
   xmlns:dc="http://purl.org/dc/elements/1.1/"
   xmlns:cc="http://creativecommons.org/ns#"
   xmlns:rdf="http://www.w3.org/1999/02/22-rdf-syntax-ns#"
   xmlns:svg="http://www.w3.org/2000/svg"
   xmlns="http://www.w3.org/2000/svg"
   xmlns:sodipodi="http://sodipodi.sourceforge.net/DTD/sodipodi-0.dtd"
   xmlns:inkscape="http://www.inkscape.org/namespaces/inkscape"
   enable-background="new 0 0 91 91"
   height="91px"
   id="Layer_1"
   version="1.1"
   viewBox="0 0 91 91"
   width="91px"
   xml:space="preserve"
   sodipodi:docname="map2D.svg"
   inkscape:version="0.92.0 r15299"><metadata
     id="metadata15"><rdf:RDF><cc:Work
         rdf:about=""><dc:format>image/svg+xml</dc:format><dc:type
           rdf:resource="http://purl.org/dc/dcmitype/StillImage" /></cc:Work></rdf:RDF></metadata><defs
     id="defs13" /><sodipodi:namedview
     pagecolor="#ffffff"
     bordercolor="#666666"
     borderopacity="1"
     objecttolerance="10"
     gridtolerance="10"
     guidetolerance="10"
     inkscape:pageopacity="0"
     inkscape:pageshadow="2"
     inkscape:window-width="846"
     inkscape:window-height="745"
     id="namedview11"
     showgrid="false"
     inkscape:zoom="2.5934066"
     inkscape:cx="45.5"
     inkscape:cy="45.5"
     inkscape:window-x="917"
     inkscape:window-y="44"
     inkscape:window-maximized="0"
     inkscape:current-layer="Layer_1" /><g
     id="g8"><path
       d="M72.908,25.376c-0.5-0.307-1.122-0.336-1.647-0.076l-4.477,2.223c0.021-0.213,0.058-0.432,0.058-0.635   c0-6.548-5.328-11.875-11.875-11.875S43.092,20.34,43.092,26.888c0,0.232,0.039,0.479,0.065,0.722l-6.915-2.393   c-0.432-0.149-0.906-0.118-1.316,0.086l-13.369,6.683c-0.575,0.287-0.939,0.876-0.939,1.52v41.349c0,0.571,0.287,1.105,0.766,1.42   c0.477,0.314,1.082,0.368,1.605,0.142l13.027-5.596l18.316,7.385c0.204,0.083,0.42,0.124,0.636,0.124   c0.256,0,0.511-0.058,0.746-0.173l17.317-8.457c0.588-0.286,0.959-0.885,0.955-1.538l-0.27-41.349   C73.713,26.226,73.407,25.683,72.908,25.376z M54.967,18.413c4.673,0,8.475,3.802,8.475,8.475c0,3.22-4.783,9.596-8.475,13.688   c-3.691-4.092-8.475-10.468-8.475-13.688C46.492,22.215,50.294,18.413,54.967,18.413z M53.267,43.747v30.362l-15.88-6.403v-6.648   c1.816-1.954,6.682-7.538,6.682-11.305c0-4.04-2.873-7.421-6.682-8.209V29.21l7.042,2.438   C46.795,36.606,51.622,41.989,53.267,43.747z M35.687,44.771c2.747,0,4.981,2.235,4.981,4.982c0,1.755-2.615,5.409-4.981,8.112   c-2.367-2.703-4.982-6.357-4.982-8.112C30.704,47.006,32.939,44.771,35.687,44.771z M24.018,34.556l9.969-4.982v11.972   c-3.811,0.788-6.683,4.169-6.683,8.208c0,3.767,4.864,9.349,6.683,11.304v6.935l-9.969,4.282V34.556z M56.667,73.906V43.747   c1.601-1.711,6.228-6.855,8.655-11.703l5.012-2.488l0.244,37.557L56.667,73.906z"
       fill="#010101"
       id="path2" /><path
       d="M35.686,51.863c1.107,0,2.01-0.901,2.01-2.009c0-1.108-0.902-2.011-2.01-2.011s-2.008,0.902-2.008,2.011   C33.678,50.962,34.578,51.863,35.686,51.863z"
       fill="#010101"
       id="path4" /><path
       d="M61.404,26.644c0-3.549-2.889-6.437-6.438-6.437s-6.436,2.888-6.436,6.437s2.887,6.438,6.436,6.438   S61.404,30.192,61.404,26.644z M51.932,26.644c0-1.674,1.361-3.036,3.035-3.036s3.037,1.362,3.037,3.036s-1.363,3.037-3.037,3.037   S51.932,28.317,51.932,26.644z"
       fill="#010101"
       id="path6" /></g><path
     style="fill:#ececec;stroke-width:0.38559321"
     d="m 44.998729,74.260238 -8.868644,-3.649791 -6.92481,2.950695 c -5.100911,2.173519 -7.081329,2.851978 -7.519068,2.575901 -0.521799,-0.329092 -0.606403,-3.012778 -0.693861,-22.009626 l -0.0996,-21.634833 7.309431,-3.657189 7.309432,-3.657189 3.826388,1.288598 3.826388,1.288598 0.209061,-2.025604 c 0.811953,-7.867071 9.519593,-12.777007 16.555108,-9.33485 3.647207,1.784413 6.076591,5.142707 6.675313,9.227721 0.147644,1.007363 0.42721,1.831568 0.621252,1.831568 0.194046,0 1.387303,-0.522211 2.651683,-1.160468 l 2.298875,-1.160468 0.774873,0.774875 c 0.757348,0.757346 0.774877,1.2553 0.774877,22.011969 v 21.237094 l -9.047332,4.404855 c -4.97603,2.422671 -9.444091,4.39205 -9.929024,4.376398 -0.484932,-0.01565 -4.872585,-1.670868 -9.750339,-3.678254 z m 8.290254,-15.38131 v -15.23209 l -2.65109,-3.243222 c -1.4581,-1.783772 -3.465001,-4.549088 -4.459781,-6.145147 l -1.808691,-2.901925 -3.155685,-1.04372 c -1.735627,-0.574046 -3.372581,-1.123595 -3.637677,-1.221221 -0.37322,-0.137444 -0.481991,1.25011 -0.481991,6.14858 v 6.326081 l 1.349711,0.488062 c 3.063419,1.107747 5.275327,4.18083 5.32384,7.3966 0.03517,2.331279 -1.312629,5.080465 -4.339117,8.850769 l -2.321419,2.891949 -0.0065,3.295349 -0.0065,3.295353 7.615466,3.119361 c 4.188506,1.71565 7.832362,3.139149 8.097458,3.163337 0.378201,0.03451 0.481991,-3.236053 0.481991,-15.188116 z m 10.350595,11.858148 6.97466,-3.37394 0.01323,-18.861936 c 0.0073,-10.374064 -0.05575,-18.93091 -0.140059,-19.015214 -0.313094,-0.313095 -5.542089,2.579682 -5.778994,3.197047 -0.459419,1.197221 -3.696374,5.749744 -6.015104,8.459764 l -2.30943,2.699152 -0.0051,15.134534 c -0.0028,8.323994 0.06045,15.134534 0.140524,15.134534 0.08008,0 3.284189,-1.518273 7.120255,-3.373941 z m -29.640047,-6.235177 -0.0098,-3.693848 -1.93298,-2.313559 c -2.205903,-2.640219 -4.603554,-7.138711 -4.600371,-8.631257 0.0066,-3.077526 2.107067,-6.254365 4.996996,-7.557542 l 1.555938,-0.70163 v -6.113689 -6.113689 l -5.012712,2.511874 -5.012712,2.511874 v 19.048286 19.04829 l 5.012712,-2.150631 5.012712,-2.150631 -0.0098,-3.693848 z m 3.529529,-8.610162 c 0.885338,-1.1134 2.026154,-2.927032 2.535149,-4.030293 0.808402,-1.752237 0.872646,-2.202006 0.50797,-3.556308 -0.582387,-2.16282 -2.480248,-3.563469 -4.828455,-3.563469 -2.051575,0 -3.384919,0.747536 -4.450522,2.495174 -0.915194,1.500961 -0.957677,2.987665 -0.132169,4.625316 0.780505,1.548373 4.101898,6.031449 4.478094,6.04434 0.154125,0.0053 1.004595,-0.901359 1.889933,-2.01476 z M 57.144915,38.369198 C 59.96553,34.860075 62.498858,30.862274 63.159761,28.877269 64.843735,23.819513 60.513145,18.2 54.931497,18.2 c -4.330283,0 -8.558151,4.089404 -8.570957,8.290254 -0.0052,1.70167 1.219521,4.616573 3.120132,7.426163 2.01422,2.977535 5.068336,6.649372 5.51441,6.629746 0.228065,-0.01003 1.19549,-0.989668 2.149833,-2.176965 z"
     id="path3687"
     inkscape:connector-curvature="0" /><path
     style="fill:#ececec;stroke-width:0.38559321"
     d="m 52.325859,32.245078 c -1.770613,-0.923224 -2.422118,-1.650285 -3.122776,-3.484932 -0.802942,-2.102473 -0.535058,-4.013197 0.809865,-5.776481 1.283769,-1.683109 2.825002,-2.470106 4.837383,-2.470106 6.441028,0 8.71459,8.346651 3.12872,11.486086 -1.777501,0.999011 -4.021121,1.096418 -5.653192,0.245433 z m 4.74168,-3.25914 c 1.162281,-1.082829 1.406848,-2.392828 0.701405,-3.757004 -0.67645,-1.30811 -1.296304,-1.630629 -3.133935,-1.630629 -2.579647,0 -3.822421,3.342557 -1.941943,5.223036 1.190635,1.190634 3.192309,1.265951 4.374473,0.164597 z"
     id="path3689"
     inkscape:connector-curvature="0" /><path
     style="fill:#ececec;stroke-width:0.38559321"
     d="m 34.68411,51.330131 c -0.964197,-0.561593 -0.885823,-2.528191 0.122256,-3.067698 0.620008,-0.331819 1.005414,-0.290035 1.735169,0.188119 1.075566,0.704738 1.21208,1.810239 0.332194,2.690126 -0.697098,0.697098 -1.237734,0.743875 -2.189619,0.189453 z"
     id="path3691"
     inkscape:connector-curvature="0" /></svg>