<?xml version="1.0" encoding="utf-8"?>
<svg viewBox="0 0 356.2648 312.9" xmlns="http://www.w3.org/2000/svg">
  <defs>
    <style>
      .cls-1 {
        fill: #edeef0;
      }

      .cls-2 {
        fill: #b7b9c0;
      }

      .cls-3 {
        fill: #8ec1d6;
      }

      .cls-4 {
        fill: #bce8f7;
      }

      .cls-5 {
        fill: #d8d9dd;
      }

      .cls-6 {
        fill: #dcdee2;
      }

      .cls-7 {
        fill: #9b9da6;
      }

      .cls-8 {
        fill: url(#linear-gradient);
      }
    </style>
    <linearGradient id="linear-gradient" x1="9.0332" y1="246.9617" x2="149.4868" y2="182.9205" gradientTransform="matrix(1, 0, 0, 1, 0, 0)" gradientUnits="userSpaceOnUse">
      <stop offset="0" stop-color="#fff"/>
      <stop offset="0.1996" stop-color="#c2c2c2"/>
      <stop offset="0.4919" stop-color="#707070"/>
      <stop offset="0.7321" stop-color="#333"/>
      <stop offset="0.9076" stop-color="#0e0e0e"/>
      <stop offset="1" stop-color="#000"/>
    </linearGradient>
  </defs>
  <g id="Layer_19" data-name="Layer 19">
    <path class="cls-2" d="M297.6948,58.53c-9.8803-9.8617-25.8797-9.8617-35.76,0l17.86,17.92,17.9,17.88c9.8859-9.8824,9.8887-25.9078,.0063-35.7937l-.0063-.0063Z"/>
  </g>
  <g id="Layer_18" data-name="Layer 18">
    <path class="cls-7" d="M297.6948,58.53l-17.9,17.92,17.9,17.88c9.8859-9.8824,9.8887-25.9078,.0063-35.7937l-.0063-.0063Z"/>
  </g>
  <g id="Layer_17" data-name="Layer 17">
    <rect class="cls-7" x="247.5055" y="163.7933" width="6.6" height="19.26" transform="translate(-49.1695 228.1408) rotate(-45)"/>
  </g>
  <g id="Layer_16" data-name="Layer 16">
    <rect class="cls-7" x="215.6255" y="195.6684" width="6.6" height="19.26" transform="translate(-81.0461 214.9342) rotate(-45)"/>
  </g>
  <g id="Layer_15" data-name="Layer 15">
    <rect class="cls-3" x="240.1729" y="180.3076" width="82.62" height="115.65" transform="translate(-85.9407 268.7859) rotate(-45)"/>
  </g>
  <g id="Layer_14" data-name="Layer 14">
    <rect class="cls-2" x="179.5456" y="95.8333" width="6.6" height="19.26" transform="translate(-21.0196 160.1808) rotate(-45)"/>
  </g>
  <g id="Layer_13" data-name="Layer 13">
    <rect class="cls-2" x="147.6556" y="127.7225" width="6.6" height="19.26" transform="translate(-52.909 146.9713) rotate(-45)"/>
  </g>
  <g id="Layer_12" data-name="Layer 12">
    <rect class="cls-4" x="76.824" y="16.9405" width="82.62" height="115.65" transform="translate(-18.2665 105.4317) rotate(-45)"/>
  </g>
  <g id="Layer_11" data-name="Layer 11">
    <path class="cls-1" d="M284.4448,71.82l-34.14-34.15-4.58,4.58c-18.855,18.855-18.855,49.425,0,68.28,18.855,18.855,49.425,18.855,68.28,0l4.58-4.58-34.14-34.13Z"/>
  </g>
  <g id="Layer_10" data-name="Layer 10">
    <path class="cls-6" d="M284.4448,71.82l-38.73,38.71c18.8696,18.8293,49.4204,18.8293,68.29,0l4.58-4.58-34.14-34.13Z"/>
  </g>
  <g id="Layer_9" data-name="Layer 9">
    <polygon class="cls-5" points="268.4148 123.6 250.5348 105.72 232.6548 87.85 212.4748 89.45 132.8148 169.11 131.2148 189.29 149.0848 207.17 166.9648 225.05 187.1448 223.45 266.8148 143.78 268.4148 123.6"/>
  </g>
  <g id="Layer_8" data-name="Layer 8">
    <polygon class="cls-2" points="159.9848 196.28 149.0848 207.17 166.9648 225.05 187.1448 223.45 266.8148 143.78 268.4148 123.6 250.5348 105.72 239.6448 116.62 159.9848 196.28"/>
  </g>
  <g id="Layer_7" data-name="Layer 7">
    <path class="cls-1" d="M106.4548,0L43.3648,63.09l86.43,86.44,63.09-63.09L106.4548,0Zm52.57,111l-36.23-36.23,24.55-24.55,36.23,36.23-24.55,24.55Zm-16.35-65.47l-24.54,24.57-36.23-36.22,24.55-24.55,36.22,36.2Zm-65.43-7l36.23,36.23-24.55,24.56L52.6948,63.09l24.55-24.56Zm16.35,65.44l24.54-24.55,36.23,36.23-24.57,24.56-36.2-36.24Z"/>
  </g>
  <g id="Layer_6" data-name="Layer 6">
    <path class="cls-6" d="M356.2648,249.81l-86.47-86.45-63.09,63.09,86.45,86.45,63.11-63.09Zm-33.88,24.54l-36.23-36.22,24.54-24.54,36.23,36.23-24.54,24.53Zm-16.35-65.44l-24.54,24.55-36.23-36.23,24.53-24.54,36.24,36.22Zm-65.44-7l36.2,36.22-24.55,24.54-36.23-36.23,24.58-24.53Zm16.35,65.44l24.54-24.54,36.23,36.23-24.54,24.49-36.23-36.18Z"/>
  </g>
  <g id="Layer_5" data-name="Layer 5">
    <polygon class="cls-1" points="239.6448 116.62 212.4748 89.45 132.8148 169.11 159.9848 196.28 187.1448 223.45 266.8148 143.78 239.6448 116.62"/>
  </g>
  <g id="Layer_4" data-name="Layer 4">
    <rect class="cls-6" x="157.0726" y="150.8261" width="112.66" height="38.42" transform="translate(-57.7295 200.7009) rotate(-45)"/>
  </g>
  <path style="fill: rgb(231, 57, 0); fill-opacity: 1; fill-rule: evenodd; stroke: none; stroke-width: 1pt; stroke-linecap: butt; stroke-linejoin: miter; stroke-opacity: 1;" d="M 68.437 221.886 C 48.632 183.791 72.545 180.389 66.445 128.235 C 81.405 152.84 85.582 183.02 91.862 191.945 C 96.196 198.956 98.334 207.418 97.751 216.112 C 97.692 222.993 104.633 231.33 102.735 237.754 C 92.644 227.627 75.287 234.227 68.437 221.886 Z" id="path2043" transform="matrix(0.286188, -0.958174, 0.958174, 0.286188, -116.990662, 208.948597)"/>
  <path style="fill: rgb(231, 57, 0); fill-opacity: 1; fill-rule: evenodd; stroke: none; stroke-width: 1pt; stroke-linecap: butt; stroke-linejoin: miter; stroke-opacity: 1;" d="M 73.422 224.43 C 73.532 217.139 66.766 213.976 64.043 208.282 C 59.537 203.931 58.108 197.161 58.009 190.494 C 57.643 179.829 64.932 116.246 75.55 99.169 C 71.482 125.392 81.584 160.321 87.825 171.877 C 92.049 180.854 93.637 191.192 92.116 201.364 C 91.369 209.478 86.213 214.355 83.424 221.634 C 80.636 226.017 76.839 226.432 73.422 224.43 Z" id="path2041" transform="matrix(0.286188, -0.958174, 0.958174, 0.286188, -101.805879, 188.092616)"/>
  <path style="fill: rgb(231, 57, 0); fill-opacity: 1; fill-rule: evenodd; stroke: none; stroke-width: 1pt; stroke-linecap: butt; stroke-linejoin: miter; stroke-opacity: 1;" d="M 74.693 206.957 C 76.378 200.619 73.043 190.572 71.992 184.695 C 69.142 179.401 69.418 173.01 70.791 167.148 C 72.811 157.705 73.145 113.141 105.752 92.214 C 80.464 123.303 97.255 148.568 99.993 160.734 C 101.592 169.979 100.774 179.615 97.167 187.93 C 92.189 199.409 78.894 205.736 74.693 206.957 Z" id="path2063" transform="matrix(0.286188, -0.958174, 0.958174, 0.286188, -80.677382, 190.875102)"/>
  <path style="fill: rgb(231, 140, 0); fill-opacity: 1; fill-rule: evenodd; stroke: none; stroke-width: 1pt; stroke-linecap: butt; stroke-linejoin: miter; stroke-opacity: 1;" d="M 84.708 217.017 C 84.795 211.062 79.466 208.478 77.322 203.826 C 73.771 200.273 72.647 194.742 72.569 189.297 C 72.28 180.587 79.363 134.537 85.043 114.704 C 81.167 159.659 91.137 164.653 96.053 174.09 C 99.38 181.424 100.63 189.868 99.432 198.176 C 98.843 204.804 96.306 210.846 94.109 216.791 C 91.912 220.372 87.399 218.652 84.708 217.017 Z" id="path1305" transform="matrix(0.286188, -0.958174, 0.958174, 0.286188, -98.280387, 201.677347)"/>
  <path style="fill: rgb(231, 140, 0); fill-opacity: 1; fill-rule: evenodd; stroke: none; stroke-width: 1pt; stroke-linecap: butt; stroke-linejoin: miter; stroke-opacity: 1;" d="M 89.069 209.695 C 68.725 183.526 90.891 181.703 85.249 145.764 C 91.95 162.704 97.506 175.43 99.946 187.458 C 103.556 191.705 116.032 217.633 115.284 222.335 C 107.422 216.726 94.927 217.23 89.069 209.695 Z" id="path2061" transform="matrix(0.286188, -0.958174, 0.958174, 0.286188, -106.538548, 225.088828)"/>
  <path style="fill: rgb(231, 225, 0); fill-opacity: 1; fill-rule: evenodd; stroke: none; stroke-width: 1pt; stroke-linecap: butt; stroke-linejoin: miter; stroke-opacity: 1;" d="M 101.321 198.125 C 89.152 183.652 98.241 175.153 98.132 157.075 C 101.496 172.897 112.136 176.796 112 186.3 C 113.758 189.143 122.962 209.418 122.192 212.023 C 118.1 207.916 105.932 203.609 101.321 198.125 Z" id="path2051" transform="matrix(0.286188, -0.958174, 0.958174, 0.286188, -99.306252, 235.795953)"/>
  <path style="fill: rgb(231, 140, 0); fill-opacity: 1; fill-rule: evenodd; stroke: none; stroke-width: 1pt; stroke-linecap: butt; stroke-linejoin: miter; stroke-opacity: 1;" d="M 91.216 184.949 C 89.078 180.978 89.285 176.183 90.315 171.784 C 91.831 164.699 98.491 125.317 108.007 116.751 C 101.135 132.941 110.171 157.843 112.225 166.972 C 113.425 173.909 113.76 182.113 110.106 187.377 C 104.585 195.328 97.615 199.959 93.709 201.069 C 91.226 203.252 92.005 189.36 91.216 184.949 Z" id="path2045" transform="matrix(0.286188, -0.958174, 0.958174, 0.286188, -80.060285, 210.583518)"/>
  <path style="fill: rgb(231, 225, 0); fill-opacity: 1; fill-rule: evenodd; stroke: none; stroke-width: 1pt; stroke-linecap: butt; stroke-linejoin: miter; stroke-opacity: 1;" d="M 103.054 204.049 C 103.226 200.406 100.015 198.656 98.795 195.741 C 96.692 193.455 96.114 190.034 96.174 186.697 C 96.171 181.355 96.026 148.057 101.425 139.78 C 99.035 152.792 108.035 172.19 110.857 178.122 C 112.747 182.717 113.344 187.925 112.445 192.975 C 111.953 197.014 110.278 200.634 108.815 204.205 C 107.398 206.328 104.669 205.134 103.054 204.049 Z" id="path1310" transform="matrix(0.286188, -0.958174, 0.958174, 0.286188, -90.758947, 223.33111)"/>
  <path style="fill: rgb(231, 225, 0); fill-opacity: 1; fill-rule: evenodd; stroke: none; stroke-width: 1pt; stroke-linecap: butt; stroke-linejoin: miter; stroke-opacity: 1;" d="M 106.511 189.579 C 107.894 187.042 106.18 184.039 106.307 181.274 C 105.579 178.484 106.342 175.701 107.539 173.326 C 109.381 169.469 112.62 140.808 119.375 137.761 C 113.156 145.857 123.955 167.503 123.942 173.314 C 123.72 177.654 119.506 183.521 117.113 186.677 C 115.362 189.326 111.898 191.871 109.608 193.654 C 107.853 192.318 107.303 191.237 106.511 189.579 Z" id="path2047" transform="matrix(0.286188, -0.958174, 0.958174, 0.286188, -76.700772, 228.457047)"/>
  <path style="fill: rgb(255, 255, 158); fill-opacity: 1; fill-rule: evenodd; stroke: none; stroke-width: 1pt; stroke-linecap: butt; stroke-linejoin: miter; stroke-opacity: 1;" d="M 118.903 188.441 C 114.605 179.959 116.199 170.496 118.027 160.175 C 118.86 167.178 122.329 175.677 124.29 178.463 C 125.643 180.652 126.31 183.295 126.128 186.009 C 126.11 188.157 125.239 190.76 124.646 192.766 C 121.496 189.604 121.041 192.294 118.903 188.441 Z" id="path2049" transform="matrix(0.286188, -0.958174, 0.958174, 0.286188, -82.604789, 242.057893)"/>
  <path style="fill: rgb(255, 255, 158); fill-opacity: 1; fill-rule: evenodd; stroke: none; stroke-width: 1pt; stroke-linecap: butt; stroke-linejoin: miter; stroke-opacity: 1;" d="M 118.665 176.981 C 121.994 167.842 118.698 160.646 126.329 153.475 C 124.051 160.123 129.263 170.619 128.695 174.259 C 127.742 180.38 121.156 184.935 119.491 185.407 C 119.888 180.374 117.254 181.329 118.665 176.981 Z" id="path2065" transform="matrix(0.286188, -0.958174, 0.958174, 0.286188, -74.203749, 239.275878)"/>
  <path style="fill: rgb(255, 255, 158); fill-opacity: 1; fill-rule: evenodd; stroke: none; stroke-width: 1pt; stroke-linecap: butt; stroke-linejoin: miter; stroke-opacity: 1;" d="M 103.451 164.973 C 121.351 193.337 120.956 179.018 128.054 203.308 C 94.219 184.433 109.405 186.137 103.451 164.973 Z" id="path2067" transform="matrix(0.286188, -0.958174, 0.958174, 0.286188, -93.813012, 242.352724)"/>
  <g id="Layer_20_copy" data-name="Layer 20 copy">
    <path class="cls-8" d="M144.4248,176.2755c-3.8147,0-7.1234,2.1514-8.7898,5.3047-3.3206-5.3307-9.2175-8.8902-15.9602-8.8902-10.3885,0-18.81,8.4215-18.81,18.81,0,.6979,.0444,1.3849,.1185,2.0632-4.3025,.9265-8.2823,2.7134-11.7576,5.17-8.4008-13.9697-23.7023-23.3182-41.1907-23.3182C21.506,175.415,0,196.921,0,223.45s21.506,48.035,48.035,48.035c16.5681,0,31.1763-8.3885,39.811-21.1495,5.4872,4.335,12.4129,6.9296,19.9487,6.9296,17.7919,0,32.215-14.4232,32.215-32.215,0-7.6414-2.6659-14.6569-7.1111-20.1796,2.8803-2.8489,4.8281-6.6248,5.3964-10.8403,1.6896,1.3272,3.8145,2.1255,6.1297,2.1255,5.4897,0,9.94-4.4503,9.94-9.94s-4.4503-9.94-9.94-9.94Z"/>
  </g>
</svg>