<?xml version="1.0" encoding="UTF-8"?>
<svg xmlns="http://www.w3.org/2000/svg" xmlns:xlink="http://www.w3.org/1999/xlink" viewBox="0 0 356.2648 312.9">
  <defs>
    <style>
      .cls-1 {
        fill: #edeef0;
      }

      .cls-2 {
        fill: #b7b9c0;
      }

      .cls-3 {
        fill: #8ec1d6;
      }

      .cls-4 {
        fill: #bce8f7;
      }

      .cls-5 {
        fill: #d8d9dd;
      }

      .cls-6 {
        fill: #dcdee2;
      }

      .cls-7 {
        fill: #9b9da6;
      }

      .cls-8 {
        fill: url(#linear-gradient);
      }
    </style>
    <linearGradient id="linear-gradient" x1="9.0332" y1="246.9617" x2="149.4868" y2="182.9205" gradientTransform="matrix(1, 0, 0, 1, 0, 0)" gradientUnits="userSpaceOnUse">
      <stop offset="0" stop-color="#fff"/>
      <stop offset=".1996" stop-color="#c2c2c2"/>
      <stop offset=".4919" stop-color="#707070"/>
      <stop offset=".7321" stop-color="#333"/>
      <stop offset=".9076" stop-color="#0e0e0e"/>
      <stop offset="1" stop-color="#000"/>
    </linearGradient>
  </defs>
  <g id="Layer_19" data-name="Layer 19">
    <path class="cls-2" d="M297.6948,58.53c-9.8803-9.8617-25.8797-9.8617-35.76,0l17.86,17.92,17.9,17.88c9.8859-9.8824,9.8887-25.9078,.0063-35.7937l-.0063-.0063Z"/>
  </g>
  <g id="Layer_18" data-name="Layer 18">
    <path class="cls-7" d="M297.6948,58.53l-17.9,17.92,17.9,17.88c9.8859-9.8824,9.8887-25.9078,.0063-35.7937l-.0063-.0063Z"/>
  </g>
  <g id="Layer_17" data-name="Layer 17">
    <rect class="cls-7" x="247.5055" y="163.7933" width="6.6" height="19.26" transform="translate(-49.1695 228.1408) rotate(-45)"/>
  </g>
  <g id="Layer_16" data-name="Layer 16">
    <rect class="cls-7" x="215.6255" y="195.6684" width="6.6" height="19.26" transform="translate(-81.0461 214.9342) rotate(-45)"/>
  </g>
  <g id="Layer_15" data-name="Layer 15">
    <rect class="cls-3" x="240.1729" y="180.3076" width="82.62" height="115.65" transform="translate(-85.9407 268.7859) rotate(-45)"/>
  </g>
  <g id="Layer_14" data-name="Layer 14">
    <rect class="cls-2" x="179.5456" y="95.8333" width="6.6" height="19.26" transform="translate(-21.0196 160.1808) rotate(-45)"/>
  </g>
  <g id="Layer_13" data-name="Layer 13">
    <rect class="cls-2" x="147.6556" y="127.7225" width="6.6" height="19.26" transform="translate(-52.909 146.9713) rotate(-45)"/>
  </g>
  <g id="Layer_12" data-name="Layer 12">
    <rect class="cls-4" x="76.824" y="16.9405" width="82.62" height="115.65" transform="translate(-18.2665 105.4317) rotate(-45)"/>
  </g>
  <g id="Layer_11" data-name="Layer 11">
    <path class="cls-1" d="M284.4448,71.82l-34.14-34.15-4.58,4.58c-18.855,18.855-18.855,49.425,0,68.28,18.855,18.855,49.425,18.855,68.28,0l4.58-4.58-34.14-34.13Z"/>
  </g>
  <g id="Layer_10" data-name="Layer 10">
    <path class="cls-6" d="M284.4448,71.82l-38.73,38.71c18.8696,18.8293,49.4204,18.8293,68.29,0l4.58-4.58-34.14-34.13Z"/>
  </g>
  <g id="Layer_9" data-name="Layer 9">
    <polygon class="cls-5" points="268.4148 123.6 250.5348 105.72 232.6548 87.85 212.4748 89.45 132.8148 169.11 131.2148 189.29 149.0848 207.17 166.9648 225.05 187.1448 223.45 266.8148 143.78 268.4148 123.6"/>
  </g>
  <g id="Layer_8" data-name="Layer 8">
    <polygon class="cls-2" points="159.9848 196.28 149.0848 207.17 166.9648 225.05 187.1448 223.45 266.8148 143.78 268.4148 123.6 250.5348 105.72 239.6448 116.62 159.9848 196.28"/>
  </g>
  <g id="Layer_7" data-name="Layer 7">
    <path class="cls-1" d="M106.4548,0L43.3648,63.09l86.43,86.44,63.09-63.09L106.4548,0Zm52.57,111l-36.23-36.23,24.55-24.55,36.23,36.23-24.55,24.55Zm-16.35-65.47l-24.54,24.57-36.23-36.22,24.55-24.55,36.22,36.2Zm-65.43-7l36.23,36.23-24.55,24.56L52.6948,63.09l24.55-24.56Zm16.35,65.44l24.54-24.55,36.23,36.23-24.57,24.56-36.2-36.24Z"/>
  </g>
  <g id="Layer_6" data-name="Layer 6">
    <path class="cls-6" d="M356.2648,249.81l-86.47-86.45-63.09,63.09,86.45,86.45,63.11-63.09Zm-33.88,24.54l-36.23-36.22,24.54-24.54,36.23,36.23-24.54,24.53Zm-16.35-65.44l-24.54,24.55-36.23-36.23,24.53-24.54,36.24,36.22Zm-65.44-7l36.2,36.22-24.55,24.54-36.23-36.23,24.58-24.53Zm16.35,65.44l24.54-24.54,36.23,36.23-24.54,24.49-36.23-36.18Z"/>
  </g>
  <g id="Layer_5" data-name="Layer 5">
    <polygon class="cls-1" points="239.6448 116.62 212.4748 89.45 132.8148 169.11 159.9848 196.28 187.1448 223.45 266.8148 143.78 239.6448 116.62"/>
  </g>
  <g id="Layer_4" data-name="Layer 4">
    <rect class="cls-6" x="157.0726" y="150.8261" width="112.66" height="38.42" transform="translate(-57.7295 200.7009) rotate(-45)"/>
  </g>
  <g id="Layer_20_copy" data-name="Layer 20 copy">
    <path class="cls-8" d="M144.4248,176.2755c-3.8147,0-7.1234,2.1514-8.7898,5.3047-3.3206-5.3307-9.2175-8.8902-15.9602-8.8902-10.3885,0-18.81,8.4215-18.81,18.81,0,.6979,.0444,1.3849,.1185,2.0632-4.3025,.9265-8.2823,2.7134-11.7576,5.17-8.4008-13.9697-23.7023-23.3182-41.1907-23.3182C21.506,175.415,0,196.921,0,223.45s21.506,48.035,48.035,48.035c16.5681,0,31.1763-8.3885,39.811-21.1495,5.4872,4.335,12.4129,6.9296,19.9487,6.9296,17.7919,0,32.215-14.4232,32.215-32.215,0-7.6414-2.6659-14.6569-7.1111-20.1796,2.8803-2.8489,4.8281-6.6248,5.3964-10.8403,1.6896,1.3272,3.8145,2.1255,6.1297,2.1255,5.4897,0,9.94-4.4503,9.94-9.94s-4.4503-9.94-9.94-9.94Z"/>
  </g>
</svg>