<svg xmlns="http://www.w3.org/2000/svg" viewBox="0 0 360.4 360.4"><defs><style>.cls-1{isolation:isolate;}.cls-2{fill:#ebff1f;opacity:0;}.cls-3{fill:#ef4;opacity:0.17;}.cls-4{fill:#f2ff6a;opacity:0.33;}.cls-5{fill:#f5ff8f;}.cls-11,.cls-37,.cls-38,.cls-5{opacity:0.5;}.cls-6{fill:#f8ffb4;opacity:0.67;}.cls-7{fill:#fcffda;opacity:0.83;}.cls-8{fill:#fff;}.cls-37,.cls-9{fill:#2d2d2d;}.cls-10{fill:#f7f100;}.cls-12{fill:#585858;}.cls-13{fill:#515151;}.cls-14{fill:#7f7f7f;}.cls-15{fill:#4d4d4d;}.cls-16{fill:#6b6b6b;}.cls-17{fill:#696969;}.cls-18{fill:#acacac;}.cls-19{fill:#626262;}.cls-20{fill:#757575;}.cls-21{fill:#a5a5a5;}.cls-22{fill:#8c8c8c;}.cls-23{fill:#e4e4e4;}.cls-24{fill:#a2a2a2;}.cls-25{fill:#717171;}.cls-26{fill:#4f4f4f;}.cls-27{fill:#595959;}.cls-28{fill:#4b4b4b;}.cls-29{fill:#5e5e5e;}.cls-30{fill:#878787;}.cls-31{fill:#ccc;}.cls-32{fill:#dbdbdb;}.cls-33{fill:#8b8b8b;}.cls-34{fill:#414141;}.cls-35{fill:#a1a1a1;}.cls-36{fill:#737373;}.cls-37{mix-blend-mode:multiply;}.cls-38{fill:#f4f4f4;mix-blend-mode:overlay;}</style></defs><title>sat_death</title><g class="cls-1"><g id="Layer_11" data-name="Layer 11"><path class="cls-2" d="M18.12,163C8,257.92,75.63,343.2,167.06,353c91.93,9.82,174.86-60.4,184.89-154.26,10.13-94.87-56.5-180.05-148.53-189.88C121.42.06,29.24,58.94,18.12,163Z"/><path class="cls-3" d="M21.38,163.4c-9.94,93,56.39,176.64,146,186.21,90.14,9.63,171.45-59.22,181.28-151.25,9.94-93-55.4-176.54-145.63-186.18C122.66,3.59,32.29,61.32,21.38,163.4Z"/><path class="cls-4" d="M24.64,163.74c-9.74,91.17,55.26,173.12,143.12,182.5,88.34,9.44,168-58,177.67-148.24,9.74-91.17-54.29-173-142.73-182.47C123.91,7.12,35.33,63.7,24.64,163.74Z"/><path class="cls-5" d="M27.9,164.09C18.36,253.41,82,333.69,168.11,342.89c86.55,9.24,164.62-56.86,174.06-145.23C351.71,108.34,289,28.15,202.34,18.9,125.15,10.65,38.37,66.08,27.9,164.09Z"/><path class="cls-6" d="M31.16,164.44c-9.34,87.46,53,166.08,137.3,175.09,84.75,9.05,161.21-55.68,170.45-142.21,9.34-87.46-52.09-166-136.93-175.06C126.39,14.18,41.41,68.46,31.16,164.44Z"/><path class="cls-7" d="M34.42,164.79c-9.14,85.61,51.9,162.57,134.39,171.38,83,8.86,157.79-54.5,166.84-139.2,9.14-85.61-51-162.48-134-171.35C127.63,17.71,44.45,70.84,34.42,164.79Z"/><path class="cls-8" d="M37.68,165.14c-8.95,83.76,50.77,159,131.49,167.67,81.16,8.67,154.38-53.32,163.23-136.19,8.95-83.76-49.88-159-131.13-167.64C128.87,21.24,47.49,73.22,37.68,165.14Z"/><path class="cls-9" d="M30.95,164.42C21.59,252,84,330.73,168.44,339.74c84.87,9.07,161.43-55.76,170.69-142.41C348.48,109.75,287,31.11,202,22,126.31,14,41.21,68.31,30.95,164.42Z"/><path class="cls-10" d="M32.53,217.89l33.57,3.59a203,203,0,0,0,7.13,31.85l-28.84-3.08A159.08,159.08,0,0,1,32.53,217.89Z"/><path class="cls-10" d="M331.35,117.52A158.62,158.62,0,0,1,344,193.32l-36.31-3.88a221.4,221.4,0,0,0-3.71-65.3,34.56,34.56,0,0,0,2.33-9.3l25,2.68Z"/><path class="cls-10" d="M132.35,259.64c-1.09-9.92-1.73-20.43-1.93-31.29l107.32,11.46a312.87,312.87,0,0,1-9.17,30.11Z"/><path class="cls-10" d="M81.84,218.61A229,229,0,0,1,81.41,173l36.7,3.92a402.62,402.62,0,0,0-1.81,45.4Z"/><path class="cls-10" d="M249,131.82a386.29,386.29,0,0,1-1.62,52.58L133.12,172.2a412,412,0,0,1,14.95-72.85l79.43,8.48A77.3,77.3,0,0,0,249,131.82Z"/><path class="cls-10" d="M252.53,191.25a361.47,361.47,0,0,1-8.1,44.73L124,223.11a392.45,392.45,0,0,1,1.74-45.4Z"/><path class="cls-10" d="M260.15,192.07l46.69,5a203.54,203.54,0,0,1-10.76,44.44l-44-4.7A372,372,0,0,0,260.15,192.07Z"/><path class="cls-10" d="M296.25,136.14c.1-.08.19-.19.29-.28a213.61,213.61,0,0,1,2,54L255,185.22a399.36,399.36,0,0,0,1.81-48C268.72,143.09,284.72,145.77,296.25,136.14Z"/><path class="cls-10" d="M140.31,98.52a422.78,422.78,0,0,0-14.79,72.87l-51.08-5.46c3.29-25.79,11-50.6,22.46-72Z"/><path class="cls-10" d="M315.84,198l27.33,2.92a159.07,159.07,0,0,1-12.66,44.24l-25.2-2.69A213.77,213.77,0,0,0,315.84,198Z"/><path class="cls-10" d="M240.36,47.11a84,84,0,0,0-9.75-16.53A97.26,97.26,0,0,1,254,47.24,32.53,32.53,0,0,0,240.36,47.11Z"/><path class="cls-10" d="M225,103l-81.39-8.69C149.66,77,157,61.64,164.81,49.88L227,56.53C218.08,66,215.72,83.61,225,103Z"/><path class="cls-10" d="M140,47.24,156.14,49c-7.66,12.32-14.52,27.26-20.43,44.52L106.3,90.34C115.4,73.57,127.58,58.26,140,47.24Z"/><path class="cls-10" d="M65.44,165l-36.32-3.88A158.65,158.65,0,0,1,57.47,89.67l29.81,3.18A220.29,220.29,0,0,0,65.44,165Z"/><path class="cls-10" d="M72.41,172a238.74,238.74,0,0,0,.26,45.62l-41.19-4.4a158.91,158.91,0,0,1-3-45.91Z"/><path class="cls-10" d="M83.07,254.38a198.41,198.41,0,0,1-7.65-31.9l47.31,5.05c.17,10.83.79,21.32,1.82,31.28Z"/><path class="cls-10" d="M119.46,262.81c4.19,28.82,12.14,51.48,22.73,66.15-22.28-12.73-40.46-36.88-51.33-69.2Z"/><path class="cls-10" d="M127.39,263.66l104.54,11.17c-16.79,41.32-40,66-61,63.79C149.11,336.28,134.12,307.22,127.39,263.66Z"/><path class="cls-10" d="M239.9,275.68l36.91,3.94c-20.39,30.68-47.76,50.71-77.12,57.12C214.71,325,228.72,304.05,239.9,275.68Z"/><path class="cls-10" d="M281.48,277A204.28,204.28,0,0,0,295,247.33l33.32,3.56A159.34,159.34,0,0,1,309.92,280Z"/><path class="cls-10" d="M286.67,57l-11.25-1.2-.9-.59a127.64,127.64,0,0,0-14.27-15.64"/><path class="cls-10" d="M233,51.81c-.39.23-.79.44-1.17.69l-60.33-6.44C183,29.72,191.46,22.31,203,23.54,214.63,24.78,225.18,34.83,233,51.81Z"/><path class="cls-10" d="M108.28,43.85,128,46C115.9,57.79,105.36,72.34,96.59,89.3l-36-3.85A160.86,160.86,0,0,1,108.28,43.85Z"/><path class="cls-10" d="M46.84,255.05,81,258.7c8.81,28.19,22.89,50.89,40.42,66.39A160.41,160.41,0,0,1,46.84,255.05Z"/><path class="cls-10" d="M239.9,330.75c17.79-11.45,33.85-27.89,46.91-48.67l19.71,2.11A160.87,160.87,0,0,1,239.9,330.75Z"/><g class="cls-11"><path class="cls-10" d="M43.48,251.55l-.34-.69a160.74,160.74,0,0,1-12-32.63l-.48-1.93,36.62,3.91.15,1.07a202.12,202.12,0,0,0,7.08,31.63l.63,2Z"/><path class="cls-10" d="M306.17,190.68l.12-1.36a220.14,220.14,0,0,0-3.68-64.89l-.09-.42.16-.39a33.3,33.3,0,0,0,2.23-8.93l.15-1.38,27.82,3-.11,1a161,161,0,0,1,12.6,76.12l-.11,1.43Z"/><path class="cls-10" d="M131.09,260.9l-.12-1.11c-1.08-9.87-1.74-20.44-1.94-31.42l0-1.58,110.48,11.8-.39,1.55a314.27,314.27,0,0,1-9.21,30.24l-.37,1Z"/><path class="cls-10" d="M80.58,219.88l-.12-1.11A230.64,230.64,0,0,1,80,172.85l.12-1.41,39.47,4.22-.13,1.37a401.68,401.68,0,0,0-1.8,45.24l0,1.58Z"/><path class="cls-10" d="M131.57,173.43l.16-1.4a414.57,414.57,0,0,1,15-73.1l.34-1.09,81.28,8.68.35.62a76.33,76.33,0,0,0,21.1,23.55l.55.4,0,.68a388.12,388.12,0,0,1-1.62,52.77l-.14,1.4Z"/><path class="cls-10" d="M122.61,224.36l0-1.22a394.36,394.36,0,0,1,1.75-45.57l.13-1.4L254.08,190l-.17,1.4a363.13,363.13,0,0,1-8.13,44.9l-.29,1.18Z"/><path class="cls-10" d="M250.39,238l.38-1.55a371.05,371.05,0,0,0,8-44.56l.16-1.37,49.48,5.28-.18,1.41A205.12,205.12,0,0,1,297.39,242l-.38,1Z"/><path class="cls-10" d="M253.47,186.45l.13-1.37a399.07,399.07,0,0,0,1.81-47.86l-.05-2.3,2.06,1a49.42,49.42,0,0,0,16.41,5c8.56.91,15.81-1,21.54-5.83l.28-.27,1.87-1.6.41,2.42a215.32,215.32,0,0,1,2,54.36l-.12,1.41Z"/><path class="cls-10" d="M72.87,167.16l.18-1.41c3.31-26,11.13-51.08,22.61-72.53l.44-.83,46,4.92-.49,1.61a422.91,422.91,0,0,0-14.74,72.62l-.16,1.37Z"/><path class="cls-10" d="M303.4,243.68,304,242a212.68,212.68,0,0,0,10.46-44.18l.17-1.35,30.11,3.22-.19,1.42a160.64,160.64,0,0,1-12.77,44.62l-.42.92Z"/><path class="cls-10" d="M239.09,47.68a82.86,82.86,0,0,0-9.58-16.26l1.73-2.09A98.91,98.91,0,0,1,255,46.23l3.4,3.24-4.62-.86c-1.58-.3-2.79-.48-3.92-.6a29.45,29.45,0,0,0-9.2.47l-1.08.21Z"/><path class="cls-10" d="M141.68,95.51l.58-1.66c6.15-17.51,13.54-33,21.39-44.74l.47-.7,65.87,7-1.94,2c-9.39,9.91-10.11,27.54-1.83,44.92l1.07,2.25Z"/><path class="cls-10" d="M104.09,91.5l1-1.83c9-16.55,21.06-32,34-43.48l.46-.41,18.93,2-1.17,1.88C149.72,61.92,142.89,76.8,137,93.93L136.66,95Z"/><path class="cls-10" d="M27.54,162.32l.19-1.42a161,161,0,0,1,28.6-72l.47-.66,32.63,3.48-.92,1.8a219.78,219.78,0,0,0-21.7,71.66l-.17,1.35Z"/><path class="cls-10" d="M30.34,214.51l-.21-1a160.44,160.44,0,0,1-3.06-46.32l.11-1.43,46.75,5-.12,1.36a237.76,237.76,0,0,0,.26,45.35l.18,1.71Z"/><path class="cls-10" d="M82,255.66l-.28-.85A199.5,199.5,0,0,1,74,222.68l-.27-1.78,50.33,5.38,0,1.23c.17,10.67.78,21.16,1.81,31.16l.18,1.71Z"/><path class="cls-10" d="M141.5,330.17c-22.69-13-41.15-37.82-52-70l-.69-2.06,31.84,3.4.16,1.07c4.1,28.19,11.87,50.85,22.48,65.53Z"/><path class="cls-10" d="M170.8,340c-21.65-2.31-37.56-29.35-44.78-76.13l-.28-1.79,108.17,11.55-.7,1.71C216.09,317.51,192.17,342.28,170.8,340Z"/><path class="cls-10" d="M198.84,335.64c15.08-11.8,28.83-32.72,39.77-60.48l.39-1,40.25,4.3L278,280.39c-20.4,30.69-48.1,51.19-78,57.71Z"/><path class="cls-10" d="M279.24,278.13l1-1.84a203.34,203.34,0,0,0,13.44-29.44l.37-1,36.38,3.89-.87,1.78A161,161,0,0,1,311,280.87l-.48.6Z"/><path class="cls-10" d="M286.52,58.34,274.94,57.1l-1.37-.9-.15-.19a126.67,126.67,0,0,0-14.11-15.47l1.89-2a129.29,129.29,0,0,1,14.28,15.62l.43.28,10.91,1.17Z"/><path class="cls-10" d="M169,47.19l1.35-1.93c11-15.67,19.86-24.48,32.72-23.1,12,1.29,23.11,11.61,31.18,29.07l.53,1.15-1.42.82c-.27.15-.54.3-.8.47l-.41.27Z"/><path class="cls-10" d="M57.95,86.57l1.51-2a161.3,161.3,0,0,1,48.13-42l.39-.22L131,44.88l-2.11,2.06c-12,11.71-22.42,26.18-31.11,43l-.44.85Z"/><path class="cls-10" d="M120.8,326.36a162.52,162.52,0,0,1-75.19-70.64l-1.24-2.32,37.65,4,.27.87c8.59,27.47,22.43,50.21,40,65.77Z"/><path class="cls-10" d="M239.15,329.58c18-11.59,33.65-27.82,46.48-48.24l.46-.73,23.19,2.48-1.71,2a162.4,162.4,0,0,1-67.2,47Z"/></g><path class="cls-12" d="M31,219.13l33.57,3.59a203,203,0,0,0,7.13,31.85l-28.84-3.08A159.08,159.08,0,0,1,31,219.13Z"/><path class="cls-13" d="M332.73,117.67a158.62,158.62,0,0,1,12.64,75.8l-36.31-3.88a221.4,221.4,0,0,0-3.71-65.3,34.56,34.56,0,0,0,2.33-9.3l25,2.68Z"/><path class="cls-12" d="M237.66,272.29c3.36-9.48,6.39-19.57,9-30.12l40.42,4.32a191.7,191.7,0,0,1-14,29.59Z"/><path class="cls-14" d="M132.2,261c-1.09-9.92-1.73-20.43-1.93-31.29l107.32,11.46a312.87,312.87,0,0,1-9.17,30.11Z"/><path class="cls-15" d="M80.31,219.85a229,229,0,0,1-.43-45.64l36.7,3.92a402.62,402.62,0,0,0-1.81,45.4Z"/><path class="cls-16" d="M249.14,130.44A386.29,386.29,0,0,1,247.52,183l-114.26-12.2A412,412,0,0,1,148.22,98l79.43,8.48A77.3,77.3,0,0,0,249.14,130.44Z"/><path class="cls-12" d="M252.39,192.64a361.47,361.47,0,0,1-8.1,44.73L123.82,224.49a392.45,392.45,0,0,1,1.74-45.4Z"/><path class="cls-12" d="M261.38,193.6l46.69,5A203.54,203.54,0,0,1,297.32,243l-44-4.7A372,372,0,0,0,261.38,193.6Z"/><path class="cls-17" d="M297.78,134.91c.1-.08.19-.19.29-.28a213.61,213.61,0,0,1,2,54L256.52,184a399.36,399.36,0,0,0,1.81-48C270.26,141.86,286.25,144.53,297.78,134.91Z"/><path class="cls-18" d="M139.07,97a422.78,422.78,0,0,0-14.79,72.87L73.2,164.4c3.29-25.79,11-50.6,22.46-72Z"/><path class="cls-19" d="M317.07,199.55l27.33,2.92a159.07,159.07,0,0,1-12.66,44.24L306.54,244A213.77,213.77,0,0,0,317.07,199.55Z"/><path class="cls-20" d="M241.74,47.26A84,84,0,0,0,232,30.73a97.26,97.26,0,0,1,23.39,16.66A32.53,32.53,0,0,0,241.74,47.26Z"/><path class="cls-12" d="M225.11,101.63l-81.39-8.69C149.81,75.58,157.11,60.26,165,48.5l62.23,6.65C218.23,64.59,215.87,82.22,225.11,101.63Z"/><path class="cls-21" d="M138.77,41.16c12.35-9,25.41-15,38.78-17.71-5.41,5.14-10.62,12-16.09,20.13Z"/><path class="cls-22" d="M138.78,45.71l16.12,1.72c-7.66,12.32-14.52,27.26-20.43,44.52l-29.41-3.14C114.16,72,126.34,56.73,138.78,45.71Z"/><path class="cls-23" d="M64.2,163.43l-36.32-3.88A158.65,158.65,0,0,1,56.24,88.14L86,91.32A220.29,220.29,0,0,0,64.2,163.43Z"/><path class="cls-24" d="M70.88,173.25a238.74,238.74,0,0,0,.26,45.62L30,214.47a158.91,158.91,0,0,1-3-45.91Z"/><path class="cls-25" d="M81.54,255.61a198.41,198.41,0,0,1-7.65-31.9l47.31,5.05c.17,10.83.79,21.32,1.82,31.28Z"/><path class="cls-12" d="M117.93,264c4.19,28.82,12.14,51.48,22.73,66.15-22.28-12.73-40.46-36.88-51.33-69.2Z"/><path class="cls-26" d="M127.24,265l104.54,11.17c-16.79,41.32-40,66-61,63.79C149,337.66,134,308.61,127.24,265Z"/><path class="cls-27" d="M241.14,277.21l36.91,3.94c-20.39,30.68-47.76,50.71-77.12,57.12C215.95,326.51,230,305.58,241.14,277.21Z"/><path class="cls-28" d="M282.87,277.12a204.28,204.28,0,0,0,13.54-29.64L329.73,251a159.34,159.34,0,0,1-18.42,29.12Z"/><path class="cls-29" d="M330.61,112.89l-22.68-2.42c0-22.24-14.89-40.56-25.31-49.4l10.14,1.08A161.05,161.05,0,0,1,330.61,112.89Z"/><path class="cls-20" d="M286.67,57l-11.25-1.2-.9-.59a127.64,127.64,0,0,0-14.27-15.64A159.43,159.43,0,0,1,286.67,57Z"/><path class="cls-30" d="M233.18,50.43c-.39.23-.79.44-1.17.69l-60.33-6.44c11.45-16.34,19.93-23.75,31.43-22.52C214.78,23.4,225.32,33.45,233.18,50.43Z"/><path class="cls-31" d="M125.77,39.77l-11.69-1.25A159.46,159.46,0,0,1,143.64,27,143.46,143.46,0,0,0,125.77,39.77Z"/><path class="cls-32" d="M107,42.32l19.69,2.1c-12.07,11.83-22.6,26.39-31.38,43.35l-36-3.85A160.86,160.86,0,0,1,107,42.32Z"/><path class="cls-33" d="M45.31,256.29l34.12,3.64c8.81,28.19,22.89,50.89,40.42,66.39A160.41,160.41,0,0,1,45.31,256.29Z"/><path class="cls-34" d="M241.29,330.9c17.79-11.45,33.85-27.89,46.91-48.67l19.71,2.11A160.87,160.87,0,0,1,241.29,330.9Z"/><path class="cls-35" d="M295.28,125.76c-10.89,9.09-33.31,3.42-49.7-16.21-15.4-18.44-18.94-41.89-7.08-51.79C249.93,48.21,272,54.56,288.2,74,303.59,92.4,306.83,116.12,295.28,125.76Z"/><path class="cls-36" d="M263.16,76.63a12,12,0,0,0-9.07,2.53c-6,5-5.43,15.31,1.34,23.41,3.82,4.58,8.83,7.5,13.73,8a12,12,0,0,0,9.07-2.53c6-5,5.43-15.31-1.33-23.41C273.07,80.08,268.06,77.15,263.16,76.63Z"/><path class="cls-12" d="M270.75,103.74a3.15,3.15,0,0,1-2.31.49c-2-.21-5-1.59-7.75-4.83-3.83-4.58-4-9.39-2.49-10.67a3.16,3.16,0,0,1,2.31-.49c2,.21,5,1.59,7.75,4.83C272.1,97.65,272.3,102.45,270.75,103.74Z"/><path class="cls-37" d="M275.88,190.57c-14,130.69-107.43,149.17-107.43,149.17,88,9.4,167.18-55.14,176.44-141.8C354.24,110.37,290.14,31.45,202,22,202,22,289.84,59.88,275.88,190.57Z"/><path class="cls-38" d="M27.4,164C18,251.62,82.12,330.52,168.47,339.75c0,0-110.05-37.26-95.6-172.59S202,22,202,22C124.58,13.77,37.67,67.93,27.4,164Z"/></g></g></svg>