<?xml version="1.0" encoding="iso-8859-1"?>
<!-- Generator: Adobe Illustrator 19.0.0, SVG Export Plug-In . SVG Version: 6.00 Build 0)  -->
<svg version="1.1" id="Capa_1" xmlns="http://www.w3.org/2000/svg" xmlns:xlink="http://www.w3.org/1999/xlink" x="0px" y="0px"
	 viewBox="0 0 512 512" style="enable-background:new 0 0 512 512;" xml:space="preserve">
<g>
	<polygon style="fill:none;" points="256,59.313 243.312,72 256,72 268.687,72 	"/>
	<polygon style="fill:#5C546A;" points="232,416 232,432 256,432 280,432 280,416 256,416 	"/>
	<path style="fill:#888693;" d="M240,456h16v-24h-24h-8c-8.82,0-16,7.176-16,16v48c0,8.824,7.18,16,16,16h8v-48
		C232,459.582,235.582,456,240,456z"/>
	<path style="fill:#B6B8BE;" d="M256,456h16c4.418,0,8,3.582,8,8v48h8c8.82,0,16-7.176,16-16v-48c0-8.824-7.18-16-16-16h-8h-24V456z
		"/>
	<rect x="88" y="280" style="fill:#5C546A;" width="72" height="48"/>
	<path style="fill:#5C546A;" d="M88,392h48c13.234,0,24-10.766,24-24v-24H88V392z"/>
	<rect y="280" style="fill:#5C546A;" width="72" height="48"/>
	<path style="fill:#5C546A;" d="M0,344v24c0,13.234,10.766,24,24,24h48v-48H0z"/>
	<rect y="216" style="fill:#5C546A;" width="72" height="48"/>
	<rect x="88" y="216" style="fill:#5C546A;" width="72" height="48"/>
	<path style="fill:#5C546A;" d="M72,152H24c-13.234,0-24,10.766-24,24v24h72V152z"/>
	<path style="fill:#5C546A;" d="M160,200v-24c0-13.234-10.766-24-24-24H88v48H160z"/>
	<polygon style="fill:#888693;" points="160,264 88,264 88,216 160,216 160,200 88,200 88,152 72,152 72,200 0,200 0,216 72,216 
		72,264 0,264 0,280 72,280 72,328 0,328 0,344 72,344 72,392 88,392 88,344 160,344 160,328 88,328 88,280 160,280 176,280 
		176,264 	"/>
	<rect x="440" y="280" style="fill:#5C546A;" width="72" height="48"/>
	<path style="fill:#5C546A;" d="M352,344v24c0,13.234,10.766,24,24,24h48v-48H352z"/>
	<path style="fill:#5C546A;" d="M440,392h48c13.234,0,24-10.766,24-24v-24h-72V392z"/>
	<rect x="352" y="280" style="fill:#5C546A;" width="72" height="48"/>
	<path style="fill:#5C546A;" d="M424,152h-48c-13.234,0-24,10.766-24,24v24h72V152z"/>
	<rect x="440" y="216" style="fill:#5C546A;" width="72" height="48"/>
	<path style="fill:#5C546A;" d="M488,152h-48v48h72v-24C512,162.766,501.234,152,488,152z"/>
	<rect x="352" y="216" style="fill:#5C546A;" width="72" height="48"/>
	<polygon style="fill:#888693;" points="440,152 424,152 424,200 352,200 352,216 424,216 424,264 352,264 336,264 336,280 352,280 
		424,280 424,328 352,328 352,344 424,344 424,392 440,392 440,344 512,344 512,328 440,328 440,280 512,280 512,264 440,264 
		440,216 512,216 512,200 440,200 	"/>
	<path style="fill:#5C546A;" d="M272,200v-17.209c-5.217,0.792-10.559,1.209-16,1.209s-10.783-0.417-16-1.209V200h16H272z"/>
	<path style="fill:#FFCF00;" d="M336,216c0-8.824-7.18-16-16-16h-48h-16v40h16c13.255,0,24,10.745,24,24v152h16
		c13.234,0,24-10.766,24-24V280v-16V216z"/>
	<path style="fill:#FF9300;" d="M240,240h16v-40h-16h-48c-8.82,0-16,7.176-16,16v48v16v112c0,13.234,10.766,24,24,24h16V264
		C216,250.745,226.745,240,240,240z"/>
	<path style="fill:#5C546A;" d="M256,59.313L268.687,72h22.625L264,44.688v-5.767c-1.178,0.682-2.541,1.079-4,1.079h-8
		c-1.459,0-2.822-0.397-4-1.079v5.767L220.687,72h22.625L256,59.313z"/>
	<path style="fill:#888693;" d="M256,72h-12.688h-22.625h-52.281c-4.484,0-8.797,1.906-11.828,5.227
		c-3.047,3.332-4.555,7.824-4.148,12.32c4.413,48.436,40.882,86.15,87.57,93.244c5.217,0.792,10.559,1.209,16,1.209V72z"/>
	<path style="fill:#FFCF00;" d="M260,40c1.459,0,2.822-0.397,4-1.079c2.389-1.384,4-3.961,4-6.921V8c0-4.418-3.582-8-8-8h-8
		c-4.418,0-8,3.582-8,8v24c0,2.959,1.611,5.537,4,6.921c1.178,0.682,2.541,1.079,4,1.079H260z"/>
	<path style="fill:#FF7400;" d="M256,240h-16c-13.255,0-24,10.745-24,24v152h16h24V240z"/>
	<path style="fill:#B6B8BE;" d="M256,72v112c5.441,0,10.783-0.417,16-1.209c46.688-7.093,83.157-44.808,87.57-93.244
		c0.406-4.496-1.102-8.988-4.148-12.32C352.39,73.906,348.078,72,343.594,72h-52.281h-22.625H256z"/>
	<path style="fill:#FF9300;" d="M272,240h-16v176h24h16V264C296,250.745,285.255,240,272,240z"/>
	<path style="fill:#5C546A;" d="M240,456c-4.418,0-8,3.582-8,8v48h24v-56H240z"/>
	<path style="fill:#888693;" d="M272,456h-16v56h24v-48C280,459.581,276.418,456,272,456z"/>
</g>
<g>
</g>
<g>
</g>
<g>
</g>
<g>
</g>
<g>
</g>
<g>
</g>
<g>
</g>
<g>
</g>
<g>
</g>
<g>
</g>
<g>
</g>
<g>
</g>
<g>
</g>
<g>
</g>
<g>
</g>
</svg>
