<?xml version="1.0" encoding="iso-8859-1"?>
<!-- Generator: Adobe Illustrator 19.0.0, SVG Export Plug-In . SVG Version: 6.00 Build 0)  -->
<svg version="1.1" id="Capa_1" xmlns="http://www.w3.org/2000/svg" xmlns:xlink="http://www.w3.org/1999/xlink" x="0px" y="0px"
	 viewBox="0 0 512 512" style="enable-background:new 0 0 512 512;" xml:space="preserve">
<polygon style="fill:#092339;" points="452,75 452,75.21 422,105 392,75 302,75 302,135 392,195 452,195 512,135 512,75 "/>
<g>
	<rect x="302" y="135" style="fill:#0E3759;" width="90" height="60"/>
	<rect x="452" y="135" style="fill:#0E3759;" width="60" height="60"/>
	<polygon style="fill:#0E3759;" points="452,75.21 452,135 392,135 392,75 452,75 	"/>
</g>
<polygon style="fill:#092339;" points="60,75 60,75.21 90,105 120,75 210,75 210,135 120,195 60,195 0,135 0,75 "/>
<g>
	<rect x="120" y="135" style="fill:#0E3759;" width="90" height="60"/>
	<rect y="135" style="fill:#0E3759;" width="60" height="60"/>
	<polygon style="fill:#0E3759;" points="60,75.21 60,135 120,135 120,75 60,75 	"/>
	<path style="fill:#0E3759;" d="M302,90h-76l30-90h46V90z"/>
</g>
<path style="fill:#185E98;" d="M256,90h-46V0h46V90z"/>
<polygon style="fill:#FA9647;" points="210,407 332,407 332,256 210,211 "/>
<g>
	<polygon style="fill:#F9B233;" points="180,256 180,407 256,407 256,211 	"/>
	<polygon style="fill:#F9B233;" points="180,256 332,256 332,60 256,60 	"/>
</g>
<rect x="180" y="60" style="fill:#FBC566;" width="76" height="196"/>
<polygon style="fill:#77AAD4;" points="226,427.873 256,512 293.401,512 343.904,446.127 "/>
<g>
	<polygon style="fill:#A5C6E3;" points="168.096,446.127 218.599,512 256,512 256,427.873 	"/>
	<path style="fill:#A5C6E3;" d="M256,301l-45,75.5l45,75.5h151C407,368.738,339.262,301,256,301z"/>
</g>
<path style="fill:#D2E3F1;" d="M105,452h151V301C172.738,301,105,368.738,105,452z"/>
<g>
</g>
<g>
</g>
<g>
</g>
<g>
</g>
<g>
</g>
<g>
</g>
<g>
</g>
<g>
</g>
<g>
</g>
<g>
</g>
<g>
</g>
<g>
</g>
<g>
</g>
<g>
</g>
<g>
</g>
</svg>
