<?xml version="1.0" encoding="iso-8859-1"?>
<!-- Generator: Adobe Illustrator 19.0.0, SVG Export Plug-In . SVG Version: 6.00 Build 0)  -->
<svg version="1.1" id="Capa_1" xmlns="http://www.w3.org/2000/svg" xmlns:xlink="http://www.w3.org/1999/xlink" x="0px" y="0px"
	 viewBox="0 0 512.001 512.001" style="enable-background:new 0 0 512.001 512.001;" xml:space="preserve">
<path style="fill:#DFEAEF;" d="M494.117,409.268L392.479,510.906c-1.459,1.459-3.824,1.459-5.283,0L267.46,391.171
	c-1.459-1.459-1.459-3.824,0-5.283L369.098,284.25c1.459-1.459,3.824-1.459,5.283,0l119.735,119.735
	C495.576,405.444,495.576,407.809,494.117,409.268z"/>
<path style="fill:#BAD0D8;" d="M369.098,284.25l-30.588,30.588l125.018,125.018l30.588-30.588c1.459-1.459,1.459-3.824,0-5.283
	L374.381,284.25C372.923,282.791,370.557,282.791,369.098,284.25z"/>
<g>
	<path style="fill:#2C5871;" d="M203.037,230.741l-37.656-37.656c-3.014-3.014-3.014-7.9,0-10.915s7.901-3.014,10.915,0
		l37.656,37.656c3.014,3.014,3.014,7.9,0,10.915S206.051,233.755,203.037,230.741z"/>
	<path style="fill:#2C5871;" d="M317.581,345.285l-33.593-33.593c-3.014-3.014-3.014-7.9,0-10.915c3.014-3.014,7.901-3.014,10.915,0
		l33.593,33.593c3.014,3.014,3.014,7.9,0,10.915C325.482,348.3,320.595,348.299,317.581,345.285z"/>
</g>
<path style="fill:#9EBECC;" d="M282.705,292.714l-94.016,94.016c-9.398,9.398-24.636,9.398-34.035,0l-29.384-29.384
	c-9.398-9.398-9.398-24.636,0-34.035l94.016-94.016L282.705,292.714z"/>
<path style="fill:#84AAB7;" d="M154.654,386.73c9.398,9.398,24.636,9.398,34.035,0l94.016-94.016L249.46,259.47L138.427,370.503
	L154.654,386.73z"/>
<rect x="250.423" y="168.77" transform="matrix(-0.7071 0.7071 -0.7071 -0.7071 677.0312 113.5341)" style="fill:#9EBECC;" width="129.159" height="56.429"/>
<path style="fill:#DFEAEF;" d="M227.75,142.902L126.113,244.54c-1.459,1.459-3.824,1.459-5.283,0L1.094,124.805
	c-1.459-1.459-1.459-3.824,0-5.283L102.732,17.884c1.459-1.459,3.824-1.459,5.283,0L227.75,137.619
	C229.209,139.078,229.209,141.443,227.75,142.902z"/>
<path style="fill:#BAD0D8;" d="M102.732,17.884L72.387,48.229l125.018,125.018l30.345-30.345c1.459-1.459,1.459-3.824,0-5.283
	L108.015,17.884C106.556,16.425,104.191,16.425,102.732,17.884z"/>
<path style="fill:#4A5A5E;" d="M370.448,234.1L225.314,379.234c-4.508,4.508-11.818,4.508-16.326,0l-76.222-76.222
	c-4.508-4.508-4.508-11.818,0-16.326L277.9,141.552c4.508-4.508,11.818-4.508,16.326,0l76.222,76.222
	C374.957,222.283,374.957,229.592,370.448,234.1z"/>
<path style="fill:#334042;" d="M208.988,379.234c4.508,4.508,11.818,4.508,16.326,0L370.448,234.1
	c4.508-4.508,4.508-11.818,0-16.326l-25.491-25.491l-161.46,161.46L208.988,379.234z"/>
<path style="fill:#66C1FF;" d="M341.832,1.289c-1.987-1.987-5.331-1.633-6.807,0.759c-30.236,49-24.119,114.074,18.367,156.56
	s107.56,48.603,156.56,18.367c2.392-1.476,2.747-4.819,0.759-6.807L341.832,1.289z"/>
<path style="fill:#2AAEE8;" d="M318.505,44.421l149.074,149.074c14.785-2.867,29.16-8.369,42.366-16.517
	c2.394-1.477,2.753-4.823,0.763-6.812L341.834,1.291c-1.989-1.989-5.335-1.631-6.812,0.763
	C326.874,15.261,321.371,29.636,318.505,44.421z"/>
<g>
	<polygon style="fill:#9EBECC;" points="182.389,188.263 182.389,188.263 146.174,152.048 194.177,104.045 194.177,104.045 
		183.262,93.13 135.259,141.133 104.501,110.375 152.504,62.373 152.504,62.372 141.589,51.457 93.586,99.46 57.371,63.245 
		46.456,74.16 46.456,74.16 82.671,110.375 34.668,158.378 45.583,169.293 93.586,121.291 124.344,152.048 76.341,200.051 
		87.256,210.966 135.259,162.963 171.474,199.178 	"/>
	<polygon style="fill:#9EBECC;" points="448.755,454.63 448.755,454.629 412.54,418.414 460.543,370.411 460.543,370.411 
		449.628,359.496 401.625,407.499 370.867,376.742 418.87,328.739 418.87,328.738 407.955,317.823 359.952,365.826 323.737,329.611 
		312.822,340.526 312.822,340.527 349.037,376.742 301.034,424.744 311.949,435.66 359.952,387.657 390.71,418.414 342.707,466.417 
		353.622,477.332 401.625,429.329 437.84,465.545 	"/>
</g>
<g>
	<polygon style="fill:#84AAB7;" points="150.275,126.117 161.19,137.032 194.177,104.045 194.177,104.045 190.809,100.678 
		183.262,93.13 	"/>
	<polygon style="fill:#84AAB7;" points="152.504,62.372 141.589,51.457 108.602,84.444 119.517,95.359 152.504,62.373 	"/>
	<polygon style="fill:#84AAB7;" points="374.726,351.053 385.641,361.968 418.87,328.739 418.87,328.738 411.323,321.191 
		407.955,317.823 	"/>
	<polygon style="fill:#84AAB7;" points="416.398,392.726 427.314,403.641 460.543,370.411 460.543,370.411 449.628,359.496 	"/>
</g>
<g>
</g>
<g>
</g>
<g>
</g>
<g>
</g>
<g>
</g>
<g>
</g>
<g>
</g>
<g>
</g>
<g>
</g>
<g>
</g>
<g>
</g>
<g>
</g>
<g>
</g>
<g>
</g>
<g>
</g>
</svg>
