<svg xmlns="http://www.w3.org/2000/svg" viewBox="0 0 360.28 360.28"><defs><style>.cls-1{fill:#b4b4b4;}.cls-2{fill:#e0e0e0;}.cls-3{fill:#424242;}.cls-4{fill:#707070;}.cls-5{fill:#003da8;}.cls-6{fill:#2f91ed;}.cls-7{fill:#63c1ff;}</style></defs><title>sat_02_1</title><g id="Layer_8" data-name="Layer 8"><polygon class="cls-1" points="226.85 136.96 250.37 160.47 324.31 86.53 300.8 63.02 257.14 90.17 226.85 136.96"/><polygon class="cls-1" points="86.71 324.13 160.66 250.19 137.15 226.67 88.71 251.89 63.2 300.62 86.71 324.13"/><rect class="cls-2" x="199.79" y="71.6" width="104.57" height="33.25" transform="translate(11.44 204.09) rotate(-45)"/><rect class="cls-2" x="36.13" y="235.27" width="104.57" height="33.25" transform="translate(-152.22 136.3) rotate(-45)"/><path class="cls-3" d="M307.54,56.28,259.6,95l-59.74,69,6.74,6.74,20.26-20.26,23.51,23.51,87.42-87.42ZM250.37,147l-10-10,11.18-11.18,10,10ZM275,122.36l-10-10,11.18-11.18,10,10Zm14.61-34.69L300.8,76.49l10,10L299.66,97.71Z"/><path class="cls-3" d="M86.71,337.6l87.42-87.42-23.51-23.51,20.26-20.26-6.73-6.73-69,59.74L56.46,307.36Zm50.44-97.46,10,10L136,261.36l-10-10ZM112.5,264.79l10,10L111.36,286l-10-10ZM97.89,299.48,86.71,310.66l-10-10,11.18-11.18Z"/><path class="cls-4" d="M277.29,26l-87.42,87.42L213.39,137l-20.26,20.26,6.73,6.73L307.54,56.28Zm-50.44,97.46-10-10L228,102.27l10,10ZM251.5,98.84l-10-10,11.18-11.18,10,10Zm14.61-34.69L277.29,53l10,10L276.15,74.2Z"/><path class="cls-4" d="M137.15,213.2l-23.51-23.51L26.22,277.11l30.25,30.25L164.14,199.68l-6.73-6.73ZM63.2,287.15l-10-10,11.18-11.18,10,10ZM87.85,262.5l-10-10L89,241.28l10,10Zm24.65-24.65-10-10,11.18-11.18,10,10Z"/><path class="cls-5" d="M87.23,131.76l91.39,91.39a31.61,31.61,0,0,0,44.7,0l-49.2-66.1-64.54-47.65Z"/><path class="cls-6" d="M223.33,178.44,131.94,87.05l-22.36,22.36L223.33,223.16h0A31.65,31.65,0,0,0,223.33,178.44Z"/><polygon class="cls-3" points="230.1 243.39 251.86 265.15 258.59 258.42 239.84 233.66 230.1 243.39"/><rect class="cls-4" x="246.32" y="228.79" width="9.53" height="30.76" transform="translate(-99.11 249.06) rotate(-45)"/><path class="cls-6" d="M205.09,236.81a31.4,31.4,0,0,0,9.46,22.27l9.61,9.44L246.31,246l-10.76-20.47-21.41-11.11A31.4,31.4,0,0,0,205.09,236.81Z"/><path class="cls-7" d="M258.85,214a31.61,31.61,0,0,0-44.71.41h0L246.31,246l22.15-22.56Z"/><polygon class="cls-3" points="95.65 158.87 109.12 172.34 140.82 140.64 137.15 129.75 127.35 127.17 95.65 158.87"/><rect class="cls-4" x="127.51" y="108.53" width="44.83" height="19.05" transform="translate(-39.57 140.6) rotate(-45)"/></g></svg>