<?xml version="1.0" encoding="iso-8859-1"?>
<!-- Generator: Adobe Illustrator 19.0.0, SVG Export Plug-In . SVG Version: 6.00 Build 0)  -->
<svg version="1.1" id="Capa_1" xmlns="http://www.w3.org/2000/svg" xmlns:xlink="http://www.w3.org/1999/xlink" x="0px" y="0px"
	 viewBox="0 0 512.008 512.008" style="enable-background:new 0 0 512.008 512.008;" xml:space="preserve">
<path style="fill:#CFD8DC;" d="M352,170.675c-5.891,0.011-10.675-4.757-10.686-10.648c-0.005-2.84,1.123-5.565,3.134-7.571
	L451.115,45.79c4.093-4.237,10.845-4.354,15.083-0.262c4.237,4.093,4.354,10.845,0.262,15.083c-0.086,0.089-0.173,0.176-0.262,0.262
	L359.531,167.539C357.535,169.541,354.827,170.669,352,170.675z"/>
<g>
	<path style="fill:#2196F3;" d="M74.667,512.008C33.429,512.008,0,478.579,0,437.342c0-5.891,4.776-10.667,10.667-10.667
		s10.667,4.776,10.667,10.667c0,29.455,23.878,53.333,53.333,53.333c5.891,0,10.667,4.776,10.667,10.667
		C85.333,507.233,80.558,512.008,74.667,512.008z"/>
	<path style="fill:#2196F3;" d="M74.667,469.342c-17.673,0-32-14.327-32-32c0-5.891,4.776-10.667,10.667-10.667
		S64,431.451,64,437.342c0,5.891,4.776,10.667,10.667,10.667s10.667,4.776,10.667,10.667S80.558,469.342,74.667,469.342z"/>
</g>
<g>
	<path style="fill:#546E7A;" d="M274.219,131.123l-128-128c-4.165-4.164-10.917-4.164-15.083,0l-128,128
		c-4.164,4.165-4.164,10.917,0,15.083l128,128c4.165,4.164,10.917,4.164,15.083,0l56.448-56.448l24.448,24.448
		c4.237,4.092,10.99,3.975,15.083-0.262c3.992-4.134,3.992-10.687,0-14.82l-24.448-24.448l56.448-56.448
		c4.177-4.154,4.195-10.908,0.04-15.085C274.231,131.136,274.225,131.129,274.219,131.123z"/>
	<path style="fill:#546E7A;" d="M508.885,365.79l-128-128c-4.165-4.164-10.917-4.164-15.083,0l-56.469,56.469l-24.448-24.448
		c-4.237-4.092-10.99-3.975-15.083,0.262c-3.992,4.134-3.992,10.687,0,14.82l24.448,24.448l-56.448,56.448
		c-4.164,4.165-4.164,10.917,0,15.083l128,128c4.165,4.164,10.917,4.164,15.083,0l128-128
		C513.049,376.707,513.049,369.955,508.885,365.79z"/>
</g>
<g>
	
		<rect x="104.092" y="40.076" transform="matrix(-0.7071 0.7071 -0.7071 -0.7071 289.5465 29.402)" style="fill:#CFD8DC;" width="69.184" height="69.184"/>
	
		<rect x="40.092" y="104.09" transform="matrix(-0.7071 0.7071 -0.7071 -0.7071 225.5564 183.9357)" style="fill:#CFD8DC;" width="69.184" height="69.184"/>
	
		<rect x="104.084" y="168.09" transform="matrix(-0.7071 0.7071 -0.7071 -0.7071 380.0537 247.9408)" style="fill:#CFD8DC;" width="69.184" height="69.184"/>
	
		<rect x="168.084" y="104.076" transform="matrix(-0.7071 0.7071 -0.7071 -0.7071 444.0438 93.4071)" style="fill:#CFD8DC;" width="69.184" height="69.184"/>
	
		<rect x="338.767" y="274.743" transform="matrix(-0.7071 0.7071 -0.7071 -0.7071 856.0972 264.0623)" style="fill:#CFD8DC;" width="69.184" height="69.184"/>
	
		<rect x="274.767" y="338.757" transform="matrix(-0.7071 0.7071 -0.7071 -0.7071 792.1072 418.596)" style="fill:#CFD8DC;" width="69.184" height="69.184"/>
	
		<rect x="338.76" y="402.757" transform="matrix(-0.7071 0.7071 -0.7071 -0.7071 946.6044 482.6012)" style="fill:#CFD8DC;" width="69.184" height="69.184"/>
	
		<rect x="402.76" y="338.743" transform="matrix(-0.7071 0.7071 -0.7071 -0.7071 1010.5945 328.0675)" style="fill:#CFD8DC;" width="69.184" height="69.184"/>
</g>
<path style="fill:#B0BEC5;" d="M380.885,173.79l-42.667-42.667c-4.165-4.164-10.917-4.164-15.083,0L134.251,320.008H32
	c-5.891-0.011-10.675,4.757-10.686,10.648c-0.005,2.84,1.123,5.565,3.134,7.571L173.781,487.56
	c4.16,4.171,10.914,4.179,15.085,0.019c2.011-2.006,3.139-4.731,3.134-7.571V377.758l188.885-188.885
	C385.049,184.707,385.049,177.955,380.885,173.79z"/>
<g>
</g>
<g>
</g>
<g>
</g>
<g>
</g>
<g>
</g>
<g>
</g>
<g>
</g>
<g>
</g>
<g>
</g>
<g>
</g>
<g>
</g>
<g>
</g>
<g>
</g>
<g>
</g>
<g>
</g>
</svg>
