<svg xmlns="http://www.w3.org/2000/svg" viewBox="0 0 360.04 360.04"><defs><style>.cls-1{fill:#b7b9c0;}.cls-2{fill:#9b9da6;}.cls-3{fill:#8ec1d6;}.cls-4{fill:#bce8f7;}.cls-5{fill:#edeef0;}.cls-6{fill:#dcdee2;}.cls-7{fill:#d8d9dd;}</style></defs><title>sat_01_1</title><g id="Layer_7" data-name="Layer 7"><path class="cls-1" d="M277.9,89a25.31,25.31,0,0,0-35.76,0L260,106.92,277.9,124.8A25.31,25.31,0,0,0,277.9,89Z"/><path class="cls-2" d="M277.9,89,260,106.92,277.9,124.8A25.31,25.31,0,0,0,277.9,89Z"/><rect class="cls-2" x="227.71" y="194.26" width="6.6" height="19.26" transform="translate(-76.51 223.07) rotate(-45)"/><rect class="cls-2" x="195.83" y="226.14" width="6.6" height="19.26" transform="translate(-108.39 209.86) rotate(-45)"/><rect class="cls-3" x="220.38" y="210.77" width="82.62" height="115.65" transform="translate(-113.28 263.72) rotate(-45)"/><rect class="cls-1" x="159.75" y="126.3" width="6.6" height="19.26" transform="translate(-48.36 155.11) rotate(-45)"/><rect class="cls-1" x="127.86" y="158.19" width="6.6" height="19.26" transform="translate(-80.25 141.9) rotate(-45)"/><rect class="cls-4" x="57.03" y="47.41" width="82.62" height="115.65" transform="translate(-45.61 100.36) rotate(-45)"/><path class="cls-5" d="M264.65,102.29,230.51,68.14l-4.58,4.58A48.28,48.28,0,0,0,294.21,141l4.58-4.58Z"/><path class="cls-6" d="M264.65,102.29,225.92,141a48.34,48.34,0,0,0,68.29,0l4.58-4.58Z"/><polygon class="cls-7" points="248.62 154.07 230.74 136.19 212.86 118.32 192.68 119.92 113.02 199.58 111.42 219.76 129.29 237.64 147.17 255.52 167.35 253.92 247.02 174.25 248.62 154.07"/><polygon class="cls-1" points="140.19 226.75 129.29 237.64 147.17 255.52 167.35 253.92 247.02 174.25 248.62 154.07 230.74 136.19 219.85 147.09 140.19 226.75"/><path class="cls-5" d="M86.66,30.47,23.57,93.56,110,180l63.09-63.09Zm52.57,111L103,105.24l24.55-24.55,36.23,36.23ZM122.88,76,98.34,100.57,62.11,64.35,86.66,39.8ZM57.45,69l36.23,36.23L69.13,129.79,32.9,93.56Zm16.35,65.44,24.54-24.55,36.23,36.23L110,170.68Z"/><path class="cls-6" d="M336.47,280.28,250,193.83l-63.09,63.09,86.45,86.45Zm-33.88,24.54L266.36,268.6l24.54-24.54,36.23,36.23Zm-16.35-65.44L261.7,263.93l-36.23-36.23L250,203.16Zm-65.44-7L257,268.6l-24.55,24.54-36.23-36.23Zm16.35,65.44,24.54-24.54,36.23,36.23L273.38,334Z"/><polygon class="cls-5" points="219.85 147.09 192.68 119.92 113.02 199.58 140.19 226.75 167.35 253.92 247.02 174.25 219.85 147.09"/><rect class="cls-6" x="137.27" y="181.3" width="112.66" height="38.42" transform="translate(-85.07 195.62) rotate(-45)"/></g></svg>