<svg xmlns="http://www.w3.org/2000/svg" viewBox="0 0 362.28 362.28"><defs><style>.cls-1{fill:#5c546a;}.cls-2{fill:#888693;}.cls-3{fill:#ff9300;}.cls-4{fill:#ffcf00;}.cls-5{fill:#b6b8be;}.cls-6{fill:#d5d9de;}</style></defs><title>sat_03_1</title><g id="Layer_9" data-name="Layer 9"><polygon class="cls-1" points="262.37 116.92 269.65 109.63 266.01 105.99 262.37 102.35 255.08 109.63 258.72 113.28 262.37 116.92"/><path class="cls-1" d="M229.59,142.41l14.31,14.31.25.26,7.29-7.29-14.57-14.57-14.57-14.57L215,127.85l.26.25Z"/><path class="cls-1" d="M120.81,208.41l-16.72,21.5a10.3,10.3,0,0,0,.85,13.61l11.78,11.78L142.2,229.8Z"/><path class="cls-2" d="M116.71,255.29l11.78,11.78a10.3,10.3,0,0,0,13.61.85l21.5-16.72L142.2,229.8Z"/><path class="cls-1" d="M65.73,73.22,51.17,87.79a5.15,5.15,0,0,0,0,7.28L62.09,106,80.3,87.79Z"/><path class="cls-1" d="M105.79,62.3,94.86,51.37a5.15,5.15,0,0,0-7.28,0L73,65.94,87.58,80.5Z"/><rect class="cls-1" x="72.88" y="101.16" width="25.75" height="20.6" transform="translate(-53.69 93.28) rotate(-45)"/><path class="cls-1" d="M113.07,157,124,167.9a5.15,5.15,0,0,0,7.28,0l14.57-14.57-14.57-14.57Z"/><path class="cls-1" d="M153.12,146l14.57-14.57a5.15,5.15,0,0,0,0-7.28l-10.92-10.92-18.21,18.21Z"/><rect class="cls-1" x="120.22" y="97.51" width="25.75" height="20.6" transform="translate(-37.25 125.69) rotate(-45)"/><rect class="cls-1" x="98.37" y="75.67" width="25.75" height="20.6" transform="translate(-28.2 103.84) rotate(-45)"/><rect class="cls-1" x="94.73" y="123" width="25.75" height="20.6" transform="translate(-62.74 115.13) rotate(-45)"/><polygon class="cls-2" points="153.12 146.05 138.56 131.48 156.76 113.28 149.48 105.99 131.28 124.2 116.71 109.63 134.92 91.43 127.63 84.14 109.43 102.35 94.86 87.79 113.07 69.58 105.79 62.3 87.58 80.5 73.01 65.94 65.73 73.22 80.3 87.79 62.09 105.99 69.37 113.28 87.58 95.07 102.14 109.63 83.94 127.84 91.22 135.12 109.43 116.92 123.99 131.48 105.79 149.69 113.07 156.97 131.28 138.76 145.84 153.33 153.12 160.61 160.41 153.33 153.12 146.05"/><rect class="cls-1" x="225.82" y="254.09" width="25.75" height="20.6" transform="translate(-117.04 246.22) rotate(-45)"/><path class="cls-1" d="M258.72,215.23,247.8,204.31a5.15,5.15,0,0,0-7.28,0L226,218.88l14.57,14.57Z"/><path class="cls-1" d="M218.67,226.16,204.1,240.72a5.15,5.15,0,0,0,0,7.28L215,258.93l18.21-18.21Z"/><path class="cls-1" d="M266,309.91l10.92,10.92a5.15,5.15,0,0,0,7.28,0l14.57-14.57L284.21,291.7Z"/><rect class="cls-1" x="247.67" y="275.94" width="25.75" height="20.6" transform="translate(-126.09 268.07) rotate(-45)"/><path class="cls-1" d="M320.63,277.14,309.7,266.21,291.5,284.42,306.06,299l14.57-14.57A5.15,5.15,0,0,0,320.63,277.14Z"/><rect class="cls-1" x="273.16" y="250.45" width="25.75" height="20.6" transform="translate(-100.6 278.63) rotate(-45)"/><rect class="cls-1" x="251.31" y="228.6" width="25.75" height="20.6" transform="translate(-91.55 256.78) rotate(-45)"/><polygon class="cls-2" points="309.7 266.21 302.42 258.93 284.21 277.14 269.65 262.57 287.86 244.37 280.57 237.08 262.37 255.29 247.8 240.72 266.01 222.52 258.72 215.24 240.52 233.44 225.95 218.88 218.67 211.59 211.39 218.88 218.67 226.16 233.24 240.72 215.03 258.93 222.31 266.21 240.52 248.01 255.08 262.57 236.88 280.78 244.16 288.06 262.37 269.86 276.93 284.42 258.72 302.63 266.01 309.91 284.21 291.7 298.78 306.27 306.06 298.99 291.5 284.42 309.7 266.21"/><path class="cls-3" d="M145.84,226.16l21.85-21.85L160.41,197l-17.75,17.75a.64.64,0,0,1-.91,0l-6.37-6.37a.64.64,0,0,1,0-.91l17.75-17.75-3.64-3.64a5.15,5.15,0,0,1,0-7.28L164,164.26a5.15,5.15,0,0,1,7.28,0L175,167.9l17.75-17.75a.64.64,0,0,1,.91,0l6.37,6.37a.64.64,0,0,1,0,.91l-17.75,17.75,7.28,7.28L215,157,185.9,127.84l-25.49,25.49-7.28,7.28L116.71,197a5.15,5.15,0,0,0,0,7.28l4.1,4.1L142.2,229.8Z"/><path class="cls-4" d="M244.16,186.1,215,157l-25.49,25.49,7.28,7.28L214.57,172a.64.64,0,0,1,.91,0l6.37,6.37a.64.64,0,0,1,0,.91L204.1,197l3.64,3.64a5.15,5.15,0,0,1,0,7.28l-14.57,14.57q-.19.19-.39.35a5,5,0,0,1-.64.44l-.34.18a5.17,5.17,0,0,1-5.91-1l-3.64-3.64L164.5,236.63a.64.64,0,0,1-.91,0l-6.37-6.37a.64.64,0,0,1,0-.91L175,211.59l-7.28-7.28-21.85,21.85-3.64,3.64,21.39,21.39,4.1,4.1a5.15,5.15,0,0,0,7.28,0l36.41-36.41,7.28-7.28Z"/><path class="cls-2" d="M229.59,142.41,215.28,128.1l-.26-.25a15.41,15.41,0,0,0-13.69-4l-12.8,2.56a5.15,5.15,0,0,0-2.63,1.41L215,157Z"/><path class="cls-5" d="M229.59,142.41,215,157l29.13,29.13a5.16,5.16,0,0,0,1.41-2.63l2.56-12.8a15.41,15.41,0,0,0-4-13.69l-.25-.26-14.31-14.31Z"/><path class="cls-2" d="M258.72,113.28l-3.64-3.64-2.94-2.94a10.28,10.28,0,0,0-3.22-2.18l-21.37-9.16a10.26,10.26,0,0,0-11.34,2.18l-4.82,4.82a5.15,5.15,0,0,0,0,7.28l10.92,10.92,14.57,14.57,21.85-21.85Z"/><path class="cls-5" d="M175,167.9l-3.64-3.64a5.15,5.15,0,0,0-7.28,0l-14.57,14.57a5.15,5.15,0,0,0,0,7.28l3.64,3.64,7.28,7.28,7.28,7.28,21.85-21.85-7.28-7.28Z"/><path class="cls-5" d="M192.79,222.87a5,5,0,0,1-.64.44A5.16,5.16,0,0,0,192.79,222.87Z"/><path class="cls-5" d="M187.31,223.51a5.15,5.15,0,0,0,4.5,0A5.15,5.15,0,0,1,187.31,223.51Z"/><path class="cls-4" d="M269.65,109.63l3.64,3.64a5.15,5.15,0,0,0,7.28-7.28l-7.28-7.28L266,106Z"/><path class="cls-5" d="M236.88,135.12l14.57,14.57,10.92,10.92a5.15,5.15,0,0,0,7.28,0l4.82-4.82a10.25,10.25,0,0,0,2.18-11.34l-9.16-21.39a10.33,10.33,0,0,0-2.18-3.21l-2.94-2.94-3.64-3.64Z"/><path class="cls-3" d="M273.29,98.71,266,91.43a5.15,5.15,0,0,0-7.28,7.28l3.64,3.64L266,106Z"/><path class="cls-6" d="M175,211.59l7.28,7.28,3.64,3.64a5.17,5.17,0,0,0,5.91,1l.34-.18a5.17,5.17,0,0,0,.64-.44,5.27,5.27,0,0,0,.39-.35L207.74,208a5.15,5.15,0,0,0,0-7.28L204.1,197l-7.28-7.28-7.28-7.28-21.85,21.85,7.28,7.28Z"/><path class="cls-1" d="M200,157.43a.64.64,0,0,0,0-.91l-6.37-6.37a.64.64,0,0,0-.91,0L175,167.9l7.28,7.28Z"/><path class="cls-1" d="M135.37,207.5a.64.64,0,0,0,0,.91l6.37,6.37a.64.64,0,0,0,.91,0L160.41,197l-7.28-7.28Z"/><path class="cls-2" d="M221.86,179.28a.64.64,0,0,0,0-.91L215.48,172a.64.64,0,0,0-.91,0l-17.75,17.75L204.1,197Z"/><path class="cls-2" d="M157.22,229.34a.64.64,0,0,0,0,.91l6.37,6.37a.64.64,0,0,0,.91,0l17.75-17.75L175,211.59Z"/></g></svg>