<svg xmlns="http://www.w3.org/2000/svg" viewBox="0 0 358.28 358.28"><defs><style>.cls-1{fill:#f47527;}.cls-2{fill:#a54d1c;}.cls-3{fill:#444242;}.cls-4{fill:#3a3839;}.cls-5{fill:#f9d026;}.cls-6{fill:#d3b121;}.cls-7{fill:#bce8f7;}.cls-8{fill:#8ec1d6;}.cls-9{fill:#fff;}</style></defs><title>sat_04</title><g id="Layer_10" data-name="Layer 10"><path class="cls-1" d="M178.69,245.78c-87.52,0-158.47-32.12-158.47-71.74H178.69Z"/><path class="cls-2" d="M178.69,245.78c88,0,159.31-32.12,159.31-71.74H178.69Z"/><path class="cls-3" d="M346.25,164.36c-5.7-13.22-23.31-24.4-52.32-33.23a312.65,312.65,0,0,0-39.24-9.07H103.53a312.59,312.59,0,0,0-39.24,9.07c-29,8.83-46.61,20-52.32,33.23-2.17,5-3.25,12.92,4,21.88,12.84,16,45.92,26.41,64.49,31.2a406.84,406.84,0,0,0,98.7,12.36,406.84,406.84,0,0,0,98.7-12.36c18.57-4.79,51.65-15.21,64.49-31.2C349.5,177.27,348.42,169.39,346.25,164.36Z"/><path class="cls-4" d="M346.25,164.36c-5.7-13.22-23.31-24.4-52.32-33.23a312.65,312.65,0,0,0-39.24-9.07H179.11V229.8a406.84,406.84,0,0,0,98.7-12.36c18.57-4.79,51.65-15.21,64.49-31.2C349.5,177.27,348.42,169.39,346.25,164.36Z"/><circle class="cls-5" cx="95.49" cy="182.06" r="10.72"/><circle class="cls-6" cx="262.73" cy="182.06" r="10.72"/><path class="cls-7" d="M264.71,120.1A91.52,91.52,0,0,0,179.11,61h0a91.52,91.52,0,0,0-85.6,59.14l-1.69,4.48,2.06,4.32c.79,1.67,5.42,10.42,18.54,18.82,16.54,10.59,39,16,66.7,16h0c27.72,0,50.16-5.37,66.7-16,13.11-8.4,17.74-17.15,18.54-18.82l2.06-4.32Z"/><path class="cls-8" d="M264.71,120.1A91.52,91.52,0,0,0,179.11,61h0V163.68h0c27.72,0,50.16-5.37,66.7-16,13.11-8.4,17.74-17.15,18.54-18.82l2.06-4.32Z"/><path class="cls-9" d="M110.94,106.85a54.23,54.23,0,0,1,18.41-25.42,48.37,48.37,0,0,1,29.32-9.93h0S118.33,89.92,119,119.28c-7.31-5-7.41-6.18-7.85-7.18L110,109.52Z"/><path class="cls-5" d="M179.11,188.5h0a10.72,10.72,0,1,0,0,21.44h0a10.72,10.72,0,1,0,0-21.44Z"/><path class="cls-6" d="M189.83,199.22a10.72,10.72,0,0,0-10.72-10.72v21.44A10.72,10.72,0,0,0,189.83,199.22Z"/></g></svg>