<?xml version="1.0" encoding="iso-8859-1"?>
<!-- Generator: Adobe Illustrator 19.0.0, SVG Export Plug-In . SVG Version: 6.00 Build 0)  -->
<svg version="1.1" id="Capa_1" xmlns="http://www.w3.org/2000/svg" xmlns:xlink="http://www.w3.org/1999/xlink" x="0px" y="0px"
	 viewBox="0 0 512 512" style="enable-background:new 0 0 512 512;" xml:space="preserve">
<g>
	<rect x="368" y="448" style="fill:#5C546A;" width="40" height="32"/>
	<path style="fill:#5C546A;" d="M464,432v-24c0-4.418-3.582-8-8-8h-32v32H464z"/>
	<rect x="368" y="400" style="fill:#5C546A;" width="40" height="32"/>
	<path style="fill:#5C546A;" d="M312,448v24c0,4.418,3.582,8,8,8h32v-32H312z"/>
	<path style="fill:#5C546A;" d="M424,480h32c4.418,0,8-3.582,8-8v-24h-40V480z"/>
	<path style="fill:#5C546A;" d="M352,400h-32c-4.418,0-8,3.582-8,8v24h40V400z"/>
	<polygon style="fill:#888693;" points="312,448 352,448 352,480 368,480 368,448 408,448 408,480 424,480 424,448 464,448 464,432 
		424,432 424,400 408,400 408,432 368,432 368,400 352,400 352,432 312,432 296,432 296,448 	"/>
	<path style="fill:#5C546A;" d="M200,432v-24c0-4.418-3.582-8-8-8h-32v32H200z"/>
	<path style="fill:#5C546A;" d="M160,480h32c4.418,0,8-3.582,8-8v-24h-40V480z"/>
	<path style="fill:#5C546A;" d="M48,448v24c0,4.418,3.582,8,8,8h32v-32H48z"/>
	<rect x="104" y="400" style="fill:#5C546A;" width="40" height="32"/>
	<rect x="104" y="448" style="fill:#5C546A;" width="40" height="32"/>
	<path style="fill:#5C546A;" d="M88,400H56c-4.418,0-8,3.582-8,8v24h40V400z"/>
	<polygon style="fill:#5C546A;" points="240,112 240,136 256,136 272,136 272,112 256,112 	"/>
	<polygon style="fill:#5C546A;" points="256,312 240,312 240,328 256,328 272,328 272,312 256,312 	"/>
	<path style="fill:#B6B8BE;" d="M256,248c-19.352,0-35.492-13.742-39.198-32H192v55.996c0,0.652,0.078,1.305,0.242,1.941
		c-0.164-0.635-0.242-1.287-0.242-1.938H256v40h0h16h32l0,0c3.672,0,6.867-2.5,7.758-6.059l8-32.004
		c0.164-0.635,0.242-1.287,0.242-1.938h0h-64V248z"/>
	<path style="fill:#B6B8BE;" d="M256,168v-32h-16h-12.688c-4.211,0-8.336,1.707-11.313,4.688L196.688,160
		c-3.023,3.023-4.688,7.039-4.688,11.313V200h24.802C220.508,181.742,236.649,168,256,168z"/>
	<path style="fill:#D5D9DE;" d="M293.573,221.753c-2.692,7.352-7.48,13.693-13.64,18.3c-3.594,2.687-7.654,4.785-12.038,6.148
		c-1.252,0.39-2.531,0.719-3.833,0.986c-2.604,0.533-5.3,0.813-8.061,0.813v24h64c0-0.001,0-0.003,0-0.004V216h-24.802
		C294.797,217.974,294.253,219.896,293.573,221.753z"/>
	<path style="fill:#D5D9DE;" d="M256,168c2.761,0,5.458,0.28,8.061,0.813c1.302,0.266,2.581,0.596,3.833,0.986
		c4.384,1.364,8.444,3.461,12.038,6.148c6.674,4.991,11.737,12.017,14.269,20.158c0.389,1.253,0.719,2.531,0.986,3.833
		c0.004,0.02,0.007,0.041,0.011,0.061H320v-28.688c0-4.273-1.664-8.289-4.688-11.313L296,140.688
		c-2.977-2.98-7.102-4.688-11.313-4.688H272h-16V168z"/>
	<path style="fill:#5C546A;" d="M40,16H8c-4.418,0-8,3.582-8,8v24h40V16z"/>
	<rect x="112" y="16" style="fill:#5C546A;" width="40" height="32"/>
	<rect x="56" y="16" style="fill:#5C546A;" width="40" height="32"/>
	<path style="fill:#5C546A;" d="M208,48V24c0-4.418-3.582-8-8-8h-32v32H208z"/>
	<path style="fill:#5C546A;" d="M168,96h32c4.418,0,8-3.582,8-8V64h-40V96z"/>
	<rect x="112" y="64" style="fill:#5C546A;" width="40" height="32"/>
	<path style="fill:#5C546A;" d="M0,64v24c0,4.418,3.582,8,8,8h32V64H0z"/>
	<rect x="56" y="64" style="fill:#5C546A;" width="40" height="32"/>
	<polygon style="fill:#888693;" points="208,48 168,48 168,16 152,16 152,48 112,48 112,16 96,16 96,48 56,48 56,16 40,16 40,48 
		0,48 0,64 40,64 40,96 56,96 56,64 96,64 96,96 112,96 112,64 152,64 152,96 168,96 168,64 208,64 224,64 224,48 	"/>
	<path style="fill:#5C546A;" d="M344,16h-32c-4.418,0-8,3.582-8,8v24h40V16z"/>
	<rect x="360" y="64" style="fill:#5C546A;" width="40" height="32"/>
	<rect x="416" y="16" style="fill:#5C546A;" width="40" height="32"/>
	<rect x="360" y="16" style="fill:#5C546A;" width="40" height="32"/>
	<rect x="416" y="64" style="fill:#5C546A;" width="40" height="32"/>
	<path style="fill:#5C546A;" d="M504,16h-32v32h40V24C512,19.582,508.418,16,504,16z"/>
	<path style="fill:#5C546A;" d="M472,96h32c4.418,0,8-3.582,8-8V64h-40V96z"/>
	<path style="fill:#5C546A;" d="M304,64v24c0,4.418,3.582,8,8,8h32V64H304z"/>
	<polygon style="fill:#888693;" points="472,16 456,16 456,48 416,48 416,16 400,16 400,48 360,48 360,16 344,16 344,48 304,48 
		288,48 288,64 304,64 344,64 344,96 360,96 360,64 400,64 400,96 416,96 416,64 456,64 456,96 472,96 472,64 512,64 512,48 472,48 
			"/>
	<path style="fill:#D5D9DE;" d="M256,32v80h24c4.418,0,8-3.582,8-8V64V48V32H256z"/>
	<path style="fill:#D5D9DE;" d="M272,0h-16v16h32C288,7.164,280.837,0,272,0z"/>
	<path style="fill:#888693;" d="M256,328h-16c-3.258,0-6.195,1.977-7.414,5l-14.141,35H256V328z"/>
	<path style="fill:#888693;" d="M256,400v-16h-40v48h-16h-40v-32h-16v32h-40v-32H88v32H48v16h40v32h16v-32h40v32h16v-32h40h16v48
		c0,8.824,7.18,16,16,16h16V408C248,403.582,251.582,400,256,400z"/>
	<path style="fill:#B6B8BE;" d="M256,0h-16c-8.836,0-16,7.163-16,16h32V0z"/>
	<path style="fill:#B6B8BE;" d="M256,32h-32v16v16v40c0,4.418,3.582,8,8,8h8h16V32z"/>
	<rect x="224" y="16" style="fill:#888693;" width="32" height="16"/>
	<rect x="256" y="16" style="fill:#B6B8BE;" width="32" height="16"/>
	<path style="fill:#888693;" d="M264.061,247.187c1.302-0.266,2.581-0.596,3.833-0.986
		C266.642,246.591,265.363,246.921,264.061,247.187z"/>
	<path style="fill:#FFCF00;" d="M239.029,191.03C234.686,195.373,232,201.373,232,208c0,13.255,10.745,24,24,24
		c6.627,0,12.627-2.686,16.97-7.029L239.029,191.03z"/>
	<path style="fill:#888693;" d="M256,272h-63.999c0,0.651,0.078,1.302,0.242,1.938l8,32.004C201.133,309.5,204.328,312,208,312h32
		h16V272z"/>
	<path style="fill:#B6B8BE;" d="M256,400c4.418,0,8,3.582,8,8v104h16c8.82,0,16-7.176,16-16v-48v-16v-48h-40V400z"/>
	<path style="fill:#B6B8BE;" d="M256,368h37.555l1.21,2.996c-0.055-0.156-0.109-0.309-0.172-0.461L279.414,333
		c-1.219-3.023-4.156-5-7.414-5h-16V368z"/>
	<path style="fill:#5C546A;" d="M256,368h-37.555l0,0l-1.21,2.996c-0.82,2.445-1.234,5.004-1.234,7.602V384h40V368z"/>
	<path style="fill:#888693;" d="M256,368v16h40v-5.402c0-2.598-0.414-5.156-1.234-7.602l-1.21-2.996H256z"/>
	<path style="fill:#D5D9DE;" d="M256,400c-4.418,0-8,3.582-8,8v104h8h8V408C264,403.582,260.418,400,256,400z"/>
	<path style="fill:#FFEDB9;" d="M242.038,188.486c-0.36,0.258-0.712,0.524-1.057,0.801c-0.128,0.103-0.256,0.205-0.382,0.311
		c-0.543,0.455-1.069,0.932-1.57,1.433l33.941,33.941c4.343-4.343,7.03-10.343,7.03-16.971c0-0.414-0.011-0.826-0.031-1.235
		c-0.622-12.272-10.462-22.112-22.734-22.734C256.826,184.01,256.414,184,256,184c-1.657,0-3.275,0.168-4.837,0.488
		C247.813,185.173,244.721,186.563,242.038,188.486z"/>
	<path style="fill:#B6B8BE;" d="M295.187,199.939c-0.266-1.302-0.596-2.581-0.986-3.833c-2.532-8.141-7.595-15.168-14.269-20.158
		c-3.594-2.688-7.654-4.785-12.038-6.148c-1.252-0.389-2.531-0.719-3.833-0.986c-2.604-0.533-5.3-0.813-8.061-0.813v16
		c0.414,0,0.826,0.01,1.235,0.031c12.272,0.622,22.112,10.462,22.734,22.734c0.021,0.409,0.031,0.821,0.031,1.235
		c0,6.627-2.687,12.627-7.03,16.971C268.628,229.314,262.628,232,256,232v16c2.761,0,5.458-0.28,8.061-0.813
		c1.302-0.266,2.581-0.596,3.833-0.986c4.384-1.364,8.444-3.461,12.038-6.148c6.16-4.607,10.948-10.948,13.64-18.3
		c0.68-1.857,1.225-3.779,1.625-5.753l0,0H320v-16h-24.802C295.194,199.98,295.192,199.959,295.187,199.939z"/>
</g>
<path style="fill:#888693;" d="M240.599,189.597c0.126-0.105,0.254-0.208,0.382-0.311c0.344-0.277,0.697-0.543,1.057-0.801
	c2.683-1.923,5.775-3.312,9.125-3.998c1.562-0.32,3.18-0.488,4.837-0.488v-16c-19.352,0-35.492,13.742-39.198,32H192v16h24.802
	c3.706,18.258,19.847,32,39.198,32v-16c-13.255,0-24-10.745-24-24c0-6.627,2.686-12.627,7.029-16.97
	C239.53,190.529,240.056,190.052,240.599,189.597z"/>
<g>
</g>
<g>
</g>
<g>
</g>
<g>
</g>
<g>
</g>
<g>
</g>
<g>
</g>
<g>
</g>
<g>
</g>
<g>
</g>
<g>
</g>
<g>
</g>
<g>
</g>
<g>
</g>
<g>
</g>
</svg>
