<?xml version="1.0" encoding="utf-8"?>
<!-- Generator: Adobe Illustrator 21.1.0, SVG Export Plug-In . SVG Version: 6.00 Build 0)  -->
<svg version="1.1" id="Capa_1" xmlns="http://www.w3.org/2000/svg" xmlns:xlink="http://www.w3.org/1999/xlink" x="0px" y="0px"
	 viewBox="0 0 1024 1024" style="enable-background:new 0 0 1024 1024;" xml:space="preserve">
<style type="text/css">
	.st0{fill:#FFFFFF;}
</style>
<g>
	<path class="st0" d="M104.7,690.2c-2.8,0-5.5-0.5-8.1-1.5c-11.9-4.4-17.9-17.7-13.5-29.6c42-112.1,125-233.6,233.6-342.3
		c4.3-4.3,10.1-6.7,16.3-6.7c6.1,0,11.9,2.4,16.3,6.7c4.3,4.3,6.7,10.1,6.7,16.3c0,6.1-2.4,11.9-6.7,16.3
		C245.2,453.4,166,569.2,126.2,675.2C122.9,684.2,114.2,690.2,104.7,690.2z"/>
	<path class="st0" d="M100.1,679.3c1.5,0.6,3,0.8,4.6,0.8c5.3,0,10.2-3.2,12.2-8.4c40.2-107.4,120.3-224.4,225.4-329.5
		c5.1-5.1,5.1-13.3,0-18.4c-5.1-5.1-13.3-5.1-18.4,0C216.2,431.5,134,551.8,92.5,662.6C90,669.3,93.4,676.8,100.1,679.3z"/>
	<path class="st0" d="M78.9,792.2c-0.9,0-1.7,0-2.6-0.1c-6.1-0.7-11.6-3.7-15.4-8.5c-3.8-4.8-5.6-10.8-4.9-16.9
		c1.3-11.7,3.3-24,6-36.4c2.3-10.5,11.7-18.2,22.5-18.2c1.6,0,3.2,0.2,4.8,0.5c6,1.3,11.2,4.8,14.5,10c3.3,5.2,4.5,11.3,3.2,17.3
		c-2.3,11-4.1,21.7-5.3,31.9C100.4,783.4,90.6,792.2,78.9,792.2z"/>
	<path class="st0" d="M77.4,782.1c0.5,0.1,1,0.1,1.5,0.1c6.5,0,12.2-4.9,12.9-11.6c1.2-10.6,3-21.6,5.4-32.9c1.5-7-3-13.9-10-15.4
		c-7-1.5-13.9,3-15.4,10c-2.6,12.1-4.6,24.1-5.8,35.5C65.2,774.8,70.3,781.3,77.4,782.1z"/>
	<path class="st0" d="M115.7,931.3c-6.1,0-11.9-2.4-16.3-6.7c-20.6-20.6-34.4-47.3-41-79.2c-1.2-6-0.1-12.2,3.3-17.3
		s8.6-8.6,14.6-9.9c1.5-0.3,3.1-0.5,4.6-0.5c10.9,0,20.3,7.7,22.5,18.4c4.7,22.9,14.3,41.7,28.5,55.9c9,9,9,23.6,0,32.5
		C127.7,928.9,121.9,931.3,115.7,931.3z"/>
	<path class="st0" d="M93.8,838.1c-1.4-7-8.3-11.6-15.4-10.1c-7,1.4-11.6,8.3-10.1,15.4c6.2,29.9,19,54.9,38.3,74.1
		c2.5,2.5,5.9,3.8,9.2,3.8c3.3,0,6.7-1.3,9.2-3.8c5.1-5.1,5.1-13.3,0-18.4C109.4,883.5,98.9,863,93.8,838.1z"/>
	<path class="st0" d="M691,714c-6.1,0-11.9-2.4-16.3-6.7c-4.3-4.3-6.7-10.1-6.7-16.3c0-6.1,2.4-11.9,6.7-16.3
		c97.7-97.7,174.4-207.2,216.1-308.3c3.6-8.6,11.9-14.2,21.3-14.2c3,0,6,0.6,8.8,1.7c11.7,4.8,17.3,18.3,12.5,30
		c-43.9,106.6-124.2,221.4-226.1,323.3C702.9,711.6,697.1,714,691,714z"/>
	<path class="st0" d="M917,363.2c-6.6-2.7-14.2,0.4-17,7.1c-42.2,102.3-119.7,212.9-218.3,311.5c-5.1,5.1-5.1,13.3,0,18.4
		c2.5,2.5,5.9,3.8,9.2,3.8c3.3,0,6.7-1.3,9.2-3.8c101-101,180.5-214.6,223.9-320C926.8,373.5,923.7,365.9,917,363.2z"/>
	<path class="st0" d="M937.4,321.3c-1.8,0-3.6-0.2-5.4-0.6c-6-1.4-11-5.1-14.3-10.3s-4.2-11.4-2.8-17.4c3.4-14.1,5.8-27.7,7.2-40.6
		c1.3-11.7,11.1-20.4,22.8-20.4c0.9,0,1.7,0,2.6,0.1c12.6,1.4,21.7,12.8,20.3,25.4c-1.7,14.8-4.4,30.3-8.2,46.2
		C957.3,314,948.1,321.3,937.4,321.3z"/>
	<path class="st0" d="M946.6,241.9c-7.1-0.8-13.6,4.3-14.4,11.5c-1.5,13.3-4,27.4-7.4,41.8c-1.7,7,2.6,14,9.6,15.7
		c1,0.2,2,0.4,3,0.4c5.9,0,11.2-4,12.6-10c3.7-15.5,6.4-30.6,8-45C958.8,249.2,953.7,242.7,946.6,241.9z"/>
	<path class="st0" d="M943,206.3c-10.9,0-20.3-7.7-22.5-18.4c-4.7-22.9-14.3-41.7-28.5-55.9c-4.3-4.3-6.7-10.1-6.7-16.3
		s2.4-11.9,6.7-16.3c4.3-4.3,10.1-6.7,16.3-6.7c6.1,0,11.9,2.4,16.3,6.7c20.6,20.6,34.4,47.3,41,79.2c1.2,6,0.1,12.2-3.3,17.3
		c-3.4,5.1-8.6,8.6-14.6,9.9C946.1,206.1,944.5,206.3,943,206.3z"/>
	<path class="st0" d="M930.2,185.9c1.3,6.2,6.7,10.4,12.7,10.4c0.9,0,1.7-0.1,2.6-0.3c7-1.4,11.6-8.3,10.1-15.4
		c-6.2-29.9-19-54.9-38.3-74.1c-5.1-5.1-13.3-5.1-18.4,0c-5.1,5.1-5.1,13.3,0,18.4C914.6,140.5,925.1,161,930.2,185.9z"/>
	<path class="st0" d="M260.2,896.1c-40.7,0-73.3-11.9-96.8-35.5c-4.3-4.3-6.7-10.1-6.7-16.3c0-6.1,2.4-11.9,6.7-16.3
		c4.3-4.3,10.1-6.7,16.3-6.7s11.9,2.4,16.3,6.7c14.6,14.6,36.4,22,64.8,22c36.8,0,83-12.7,133.8-36.6
		c52.5-24.8,108.9-61.3,163.1-105.7c4.1-3.4,9.3-5.2,14.6-5.2c6.9,0,13.4,3.1,17.8,8.4c8,9.8,6.6,24.3-3.2,32.4
		c-81,66.3-166.1,115.3-239.6,138C315.5,891.1,286.2,896.1,260.2,896.1z"/>
	<path class="st0" d="M563.9,715.5c-157.7,129-315.4,179.3-375.1,119.7c-5.1-5.1-13.3-5.1-18.4,0c-5.1,5.1-5.1,13.3,0,18.4
		c21.6,21.6,52,32.5,89.8,32.5c24.9,0,53.1-4.8,84-14.3c72.3-22.3,156.2-70.7,236.2-136.2c5.6-4.5,6.4-12.7,1.8-18.3
		C577.7,711.7,569.5,710.9,563.9,715.5z"/>
	<path class="st0" d="M626.6,700.8c-6.3,0-12.5-2.6-16.8-7.3c-4.2-4.5-6.4-10.3-6.2-16.5c0.2-6.1,2.8-11.8,7.3-16
		c8.6-8,17.1-16.3,25.4-24.6c4.3-4.3,10.1-6.7,16.3-6.7c6.1,0,11.9,2.4,16.3,6.7c4.3,4.3,6.7,10.1,6.7,16.3c0,6.1-2.4,11.9-6.7,16.3
		c-8.7,8.7-17.6,17.3-26.5,25.7C638.1,698.6,632.5,700.8,626.6,700.8z"/>
	<path class="st0" d="M643.4,643.4c-8.4,8.4-17,16.8-25.7,24.9c-5.2,4.9-5.5,13.1-0.6,18.4c2.6,2.7,6,4.1,9.5,4.1
		c3.2,0,6.4-1.2,8.9-3.5c8.8-8.3,17.7-16.8,26.3-25.4c5.1-5.1,5.1-13.3,0-18.4C656.7,638.3,648.5,638.3,643.4,643.4z"/>
	<path class="st0" d="M451.9,321.5c-6.9,0-13.4-3.1-17.8-8.4c-3.9-4.8-5.7-10.7-5.1-16.9c0.6-6.1,3.6-11.6,8.3-15.5
		c81-66.3,166.1-115.3,239.6-138c31.7-9.8,60.9-14.8,86.9-14.8c40.7,0,73.3,11.9,96.9,35.5c4.3,4.3,6.7,10.1,6.7,16.3
		s-2.4,11.9-6.7,16.3c-4.3,4.3-10.1,6.7-16.3,6.7c-6.1,0-11.9-2.4-16.3-6.7c-14.6-14.6-36.4-22-64.8-22c-36.8,0-83,12.7-133.8,36.6
		c-52.5,24.8-108.9,61.3-163.1,105.7C462.3,319.6,457.1,321.5,451.9,321.5z"/>
	<path class="st0" d="M451.9,311.5c2.9,0,5.8-1,8.2-2.9c157.7-129,315.4-179.3,375.1-119.7c5.1,5.1,13.3,5.1,18.4,0
		c5.1-5.1,5.1-13.3,0-18.4c-35.9-35.9-96-42.2-173.8-18.2c-72.3,22.3-156.2,70.7-236.2,136.2c-5.6,4.5-6.4,12.7-1.8,18.3
		C444.4,309.8,448.1,311.5,451.9,311.5z"/>
	<path class="st0" d="M371.4,394.4c-6.1,0-11.9-2.4-16.3-6.7c-4.3-4.3-6.7-10.1-6.7-16.3s2.4-11.9,6.7-16.3
		c8.6-8.7,17.6-17.3,26.5-25.7c4.3-4,9.9-6.2,15.7-6.2c6.3,0,12.5,2.6,16.8,7.3c4.2,4.5,6.4,10.3,6.2,16.5s-2.8,11.8-7.3,16
		c-8.6,8-17.1,16.3-25.4,24.6C383.3,392,377.5,394.4,371.4,394.4z"/>
	<path class="st0" d="M371.4,384.4c3.3,0,6.7-1.3,9.2-3.8c8.4-8.4,17-16.8,25.7-24.9c5.2-4.9,5.5-13.1,0.6-18.4s-13.1-5.5-18.4-0.6
		c-8.8,8.3-17.7,16.8-26.3,25.4c-5.1,5.1-5.1,13.3,0,18.4C364.7,383.1,368.1,384.4,371.4,384.4z"/>
	<path class="st0" d="M426.2,781.5c-8.5,0-16.3-4.6-20.3-12.1c-2.9-5.4-3.5-11.6-1.8-17.5c1.8-5.9,5.7-10.7,11.1-13.6
		C475.4,705.9,538.6,657.4,598,598c69.8-69.8,124.9-145.4,155.1-212.9c26.4-58.9,30.5-105.8,11-125.3c-4.3-4.3-6.7-10.1-6.7-16.3
		c0-6.1,2.4-11.9,6.7-16.3c4.3-4.3,10.1-6.7,16.3-6.7c6.1,0,11.9,2.4,16.3,6.7c34.5,34.5,34,97.3-1.6,176.6
		c-32.5,72.5-91,153-164.6,226.6C568,693.1,501.1,744.3,437.1,778.7C433.7,780.5,430,781.5,426.2,781.5z"/>
	<path class="st0" d="M426.2,771.5c2.1,0,4.2-0.5,6.1-1.6c63.2-34,129.3-84.6,191.1-146.5C696.2,550.7,754,471.2,786,399.8
		c33.7-75.3,35-134,3.6-165.4c-5.1-5.1-13.3-5.1-18.4,0c-5.1,5.1-5.1,13.3,0,18.4c22.9,22.9,19.6,72.6-9,136.4
		c-30.8,68.6-86.6,145.3-157.2,215.9C545,665.1,481,714.2,420,747c-6.3,3.4-8.7,11.3-5.3,17.6C417,769,421.5,771.5,426.2,771.5z"/>
	<path class="st0" d="M243.6,803.4c-6.1,0-11.9-2.4-16.3-6.7c-34.5-34.5-34-97.3,1.6-176.6c32.5-72.5,91-153,164.6-226.6
		c56.6-56.6,117.6-104.6,176.4-138.7c3.5-2,7.5-3.1,11.5-3.1c8.2,0,15.8,4.4,19.9,11.5c3.1,5.3,3.9,11.5,2.3,17.5s-5.4,10.9-10.7,14
		c-55.4,32.1-113.2,77.6-167,131.4c-69.8,69.8-124.9,145.4-155.1,212.9c-26.4,58.9-30.5,105.8-11,125.3c4.3,4.3,6.7,10.1,6.7,16.3
		c0,6.1-2.4,11.9-6.7,16.3C255.5,801,249.7,803.4,243.6,803.4z"/>
	<path class="st0" d="M418.9,418.9c54.4-54.4,112.9-100.4,169.1-133c6.2-3.6,8.3-11.6,4.7-17.8c-3.6-6.2-11.6-8.3-17.8-4.7
		c-58.1,33.7-118.4,81.1-174.4,137.1C327.8,473.3,270,552.8,238,624.2c-33.7,75.3-35,134-3.6,165.4c2.5,2.5,5.9,3.8,9.2,3.8
		s6.7-1.3,9.2-3.8c5.1-5.1,5.1-13.3,0-18.4c-22.9-22.9-19.6-72.6,9-136.4C292.5,566.2,348.3,489.5,418.9,418.9z"/>
	<path class="st0" d="M418.8,640.5c-10.2,0-18.7-3.4-25.4-10c-18.1-18.1-11.3-49.9,20.3-94.4c22.5-31.7,50.9-60.5,56.4-66
		c5.9-5.9,27-26.5,52.5-46.3c34.5-26.7,62.2-40.3,82.4-40.3c10.3,0,18.9,3.3,25.5,9.9c23.3,23.3-0.6,63.1-8.4,76.1
		c-15.4,25.7-39.7,55.6-68.3,84.2c-28.6,28.6-58.5,52.9-84.2,68.3C449,634.5,432.4,640.5,418.8,640.5z M588.4,435.6
		c-4.3,2.2-9.5,5.1-15.7,9.1c-21.4,13.7-46.3,34.3-70,58c-23.7,23.7-44.3,48.6-58,70c-4,6.2-6.9,11.4-9.1,15.7
		c4.3-2.2,9.5-5.1,15.7-9.1c21.4-13.7,46.3-34.3,70-58c23.7-23.7,44.3-48.6,58-70C583.3,445.1,586.2,439.9,588.4,435.6z"/>
	<path class="st0" d="M418.8,630.5c11.6,0,26.8-5.6,45.6-17c25-15,54.3-38.7,82.3-66.8c28-28,51.8-57.3,66.8-82.3
		c18.6-31.1,21.9-52,9.9-63.9c-33.8-33.8-134.8,65.3-146.2,76.7c-11.4,11.4-110.5,112.4-76.7,146.2
		C405.2,628.1,411.3,630.5,418.8,630.5z M436.2,567.3c14.1-22,35.2-47.4,59.4-71.7c24.2-24.2,49.7-45.3,71.7-59.4
		c21-13.4,32.6-16.5,37.2-16.7c-0.2,4.5-3.3,16.2-16.7,37.2c-14.1,22-35.2,47.4-59.4,71.7c-24.2,24.2-49.7,45.3-71.7,59.4
		c-21,13.4-32.6,16.5-37.2,16.7C419.7,600,422.8,588.3,436.2,567.3z"/>
	<path class="st0" d="M350.2,737.2c-19.2,0-34.7-5.8-46.2-17.2c-25.4-25.4-22.7-70.3,7.7-129.9c25.3-49.5,69.1-107.2,120.1-158.3
		c39.7-39.7,84.3-75.8,125.5-101.4c31.9-19.9,78.1-43.6,116.5-43.6c19.2,0,34.7,5.8,46.2,17.2c25.4,25.4,22.7,70.3-7.7,129.9
		c-25.3,49.5-69.1,107.2-120.1,158.3c-39.7,39.7-84.3,75.7-125.5,101.4C434.8,713.5,388.7,737.2,350.2,737.2z M673.8,332.9
		c-15.1,0-36.8,6.7-61.2,18.9c-46.1,23.1-98.8,63-148.3,112.6c-49.5,49.5-89.5,102.2-112.5,148.3c-22,44.1-21.2,68.9-15.3,74.8
		c2.3,2.3,7.2,3.6,13.6,3.6c15.1,0,36.8-6.7,61.2-18.9c46.1-23.1,98.8-63,148.3-112.6c49.5-49.5,89.5-102.2,112.5-148.3
		c22-44.1,21.2-68.9,15.3-74.8C685.1,334.2,680.3,332.9,673.8,332.9z"/>
	<path class="st0" d="M350.2,727.2c60.6,0,157.8-64.9,234.9-142.1c97.4-97.4,175.3-226.6,127.8-274c-47.5-47.5-176.6,30.4-274,127.8
		c-97.4,97.4-175.3,226.6-127.8,274C320.9,722.8,334.3,727.2,350.2,727.2z M342.9,608.2c23.5-47.1,64.2-100.7,114.4-150.9
		s103.9-90.9,150.9-114.4c26.3-13.1,49.3-20,65.6-20c9.2,0,16.3,2.2,20.7,6.6c12.2,12.2,7.1,45.3-13.4,86.3
		c-23.5,47.1-64.2,100.7-114.4,150.9s-103.9,90.9-150.9,114.4c-41,20.5-74.1,25.6-86.3,13.4C317.2,682.3,322.4,649.2,342.9,608.2z"
		/>
</g>
</svg>
