<?xml version="1.0" encoding="UTF-8"?>
<!DOCTYPE svg PUBLIC "-//W3C//DTD SVG 1.1//EN" "http://www.w3.org/Graphics/SVG/1.1/DTD/svg11.dtd">
<svg xmlns="http://www.w3.org/2000/svg" xml:space="preserve" width="1024px" height="1024px" shape-rendering="geometricPrecision" text-rendering="geometricPrecision" image-rendering="optimizeQuality" fill-rule="evenodd" clip-rule="evenodd" viewBox="0 0 10240 10240" xmlns:xlink="http://www.w3.org/1999/xlink">
	<title>document_gear icon</title>
	<desc>document_gear icon from the IconExperience.com O-Collection. Copyright by INCORS GmbH (www.incors.com).</desc>
	<path id="curve1" fill="#43516A" d="M1280 640l5230 0c353,0 656,126 905,375l1170 1170c249,249 375,553 375,905l0 6510 -7680 0 0 -8960zm5760 960l960 960 -960 0 0 -960zm-5120 -320l4160 0c176,0 320,144 320,320l0 1600 1600 0c176,0 320,144 320,320l0 5440 -6400 0 0 -7680z"/>
	<path id="curve0" fill="#43516A" d="M6281 4198c63,47 123,98 180,153 24,23 56,31 88,22l503 -137c78,-21 157,8 201,75 73,110 135,217 192,336 35,73 20,156 -38,212l-373 362c-24,23 -33,55 -26,87 18,77 31,155 40,234 4,33 23,60 53,74l473 218c73,34 115,107 106,187 -14,131 -37,253 -69,380 -20,78 -85,132 -165,138l-520 38c-33,2 -60,21 -75,50 -36,70 -76,138 -120,204 -19,28 -21,60 -7,91l221 470c34,73 19,156 -40,212 -96,91 -191,170 -298,247 -65,47 -150,47 -215,0l-422 -305c-27,-19 -59,-23 -90,-10 -72,31 -146,57 -221,78 -32,9 -55,33 -63,65l-133 503c-21,78 -86,132 -167,137 -132,8 -256,7 -388,-3 -80,-6 -145,-60 -164,-139l-127 -505c-8,-32 -31,-56 -62,-66 -74,-23 -146,-50 -217,-81 -30,-13 -63,-10 -90,9l-425 300c-66,47 -150,46 -215,-2 -107,-79 -202,-159 -296,-252 -58,-56 -72,-139 -37,-212l227 -469c14,-30 12,-63 -6,-90 -42,-64 -80,-131 -114,-200 -15,-30 -42,-48 -75,-51l-520 -43c-80,-7 -144,-62 -163,-140 -31,-129 -52,-252 -65,-384 -8,-80 34,-153 108,-186l475 -213c30,-14 50,-40 54,-73 9,-76 23,-152 41,-227 8,-32 -1,-64 -25,-87l-370 -367c-57,-57 -71,-140 -35,-212 59,-119 122,-226 197,-336 45,-67 125,-95 202,-73l501 142c32,9 64,1 88,-21 56,-53 116,-102 178,-148 27,-20 40,-49 37,-82l-47 -520c-7,-80 35,-153 109,-185 121,-53 238,-95 365,-131 78,-22 157,7 202,74l292 431c19,27 48,42 81,40 78,-4 156,-4 234,1 33,2 63,-12 81,-39l298 -429c46,-66 125,-94 203,-72 127,37 243,80 363,134 73,33 116,106 107,187l-53 518c-3,33 10,63 36,83zm-1161 602c530,0 960,430 960,960 0,530 -430,960 -960,960 -530,0 -960,-430 -960,-960 0,-530 430,-960 960,-960z"/>
</svg>
