<?xml version="1.0" encoding="utf-8"?>
<!-- Generator: Adobe Illustrator 21.1.0, SVG Export Plug-In . SVG Version: 6.00 Build 0)  -->
<svg version="1.1" id="Layer_1" xmlns="http://www.w3.org/2000/svg" xmlns:xlink="http://www.w3.org/1999/xlink" x="0px" y="0px"
	 viewBox="0 0 1024 1024" style="enable-background:new 0 0 1024 1024;" xml:space="preserve">
<style type="text/css">
	.st0{fill:#43516A;}
	.st1{display:none;}
	.st2{display:none;fill:none;stroke:#AAD03B;stroke-width:60;stroke-miterlimit:10;}
</style>
<path class="st0" d="M574.7,950c-5.4,0-14.6-0.2-23.3-0.6l-40.9-1.8l1.8-1.8c-48.8-6.8-96.8-22.1-140.9-45.2
	c-55.8-29.1-105.7-70.8-144.3-120.6c-53.9-69.4-85.3-152.8-90.8-241c-5.4-88.2,15.5-174.9,60.5-250.6
	c31.5-52.9,74.8-99.6,125.4-135.1c36.9-25.8,77.3-45.8,120.3-59.2C485.1,80.8,529.2,74,573.7,74c41.5,0,82.8,5.9,122.7,17.6
	c71,20.8,136,59.5,188,112c52,52.5,90.2,117.9,110.5,189.2c9.5,33.2,14.4,63.4,15.9,97.8c4.7,108.5-26.7,207-93.4,292.8
	c-12.1,15.6-43.5,48.3-59,61.4c-63.6,54-140.4,88.8-222.1,100.8c-10.1,1.5-25.7,3-35.6,3.3c-10.9,0.4-19.2,0.8-21.5,1l-0.2,0
	C578,950,576.6,950,574.7,950z M507.5,884.6c10.1,1.8,20.3,3.2,30.6,4.3c4.8,0.5,14.3,0.8,26,0.8c23.2,0,49.7-1.1,59-2.4l8.9-1.2
	l0,0c50-8.1,95.1-24.6,137.7-50.3c2.8-1.7,5.6-3.4,8.4-5.2c-1.2,0-2.5,0-3.9,0c-2.4,0-4.8,0-7.3-0.1c-18.2-0.4-24.4-0.7-32.9-5.3
	c-11.3-6-20.6-16.6-24.2-27.6c-2-6.2-15.6-76.9-18.3-91c-6.1-32-11-57.2-13.8-71c-5-0.8-11.4-1.8-18.8-2.9
	c-34.5-5.2-38.1-7.4-41-9.1c-6-3.6-9.2-9.4-14.7-21c-4.2-8.9-10.6-23-22.6-50.3c-28.2-64.3-28.4-67.8-28.4-72.3c0-7.6,3-14.7,8.6-20
	c2.3-2.3,3.9-3.8,55.7-28.3c8.3-4,50.3-23.8,58.6-26.7c2.4-0.8,4.8-1.2,7.7-1.2c6,0,16.4,1.4,62.7,9.8c17.3,3.1,35.1,6.4,47,8.6
	c0.2-0.8,0.4-1.5,0.6-2.2c-7.9-4.3-20.3-10.9-35.8-19l-38.9-20.4l-18.6,6.1c-18.9,6.2-31,9.4-35.9,9.4c-12.4-0.1-22.3-6.2-37.5-18.2
	c-16.4-13-25.7-21.2-26.9-39.6c-1.2-18.8,7.8-30.1,15.5-36.3c3.9-3.1,14.2-7.9,23.3-11.8c-11.9-6.5-13.8-8.6-15.1-10.1
	c-7.3-8.3-9.4-19.2-5.6-29.1c0.9-2.3,2.2-5.9,24.8-35.4c6.6-8.6,22.4-29.1,27.7-34.1c9-8.5,13.3-11.6,23.2-16.5c6-3,11-5.1,16.3-6.5
	c-25.6-9.9-51.9-16.6-82-21.3c-11.8-1.8-37.4-3.2-60.7-3.2c-11.8,0-21.8,0.4-28,1c-10.5,1.1-24.5,3.1-34.5,4.8
	c-0.1,5.9-0.8,11.7-1.8,15.4c-1.2,4.4-3.9,9.9-6.7,13.9c-1.8,3-11.7,21.1-28.6,53.1c-28.9,54.7-31.3,56.3-35.2,58.9l-0.2,0.1
	c-5.8,3.7-11.7,4.6-37.5,5.3c-21.7,0.6-21.9,0.7-24.9,2.1c-9,4.3-14.8,5.1-24.4,5.1c-9.9,0-15.7-0.8-24.4-5.3
	c-9.8-5.1-16-11.5-21.9-21.4h-2.8l2-1.4c-1.4-2.5-2.9-5.2-4.4-8.1l-1.8,2l-1.2,24.9c-0.5,10.7-0.8,19.6-0.9,25.4
	c24.6,5.1,44.9,20.1,55.6,41.2c10.3,20.3,10.7,44.2,1,65.6c-3,6.6-17.7,29.9-25,41.3c-11.9,18.5-21.1,33.3-22.4,35.8
	c-4.2,8.4-6.5,17.5-7.1,28.7c-0.1,2.8-0.1,5.6-0.1,8.3c4.3-0.8,9.3-1.9,15.1-3.1c20.1-4.2,32.8-6.4,37.7-6.4c2.5,0,4.7,0.4,6.9,1.2
	c1.4,0.5,3.8,1.4,35.3,20l26.1,15.4l40.8,1.6c48.9,2,51.8,3.3,55.1,4.9l0.1,0.1c8.4,3.9,14.4,9.4,16.6,23.5c1.3,8.5,1.8,22,2.9,51.6
	c0,0,0.3,8.8,0.5,12.5c1.7,44.6,1.9,49.3-9.7,62.2c-0.5,0.6-1.1,1.2-1.8,2c-10.6,12.3-20.3,30.4-25.3,47.3c-2,6.9-2.7,10.8-3.1,23.7
	c-0.8,23.6,2.3,36.6,14.4,60.5c8.6,16.9,8.6,20.1,8.6,23.2C511.4,875.5,510,880.3,507.5,884.6z M199.3,568.5
	c10.3,66.7,36.4,126.8,77.7,178.5c29.2,36.6,64,66.9,103,90.1c-9.9-14.2-17.2-30.2-21.5-47.7c-1-3.6-8.9-25-20.8-54.2L319,689.5
	l-34.4-51.8c-17.3-26.1-29-43.2-33.7-50c-5.8-2.3-18.1-7-35.7-13.4C210,572.4,204.5,570.4,199.3,568.5z M321.2,585.4
	c4.5,6.7,10.5,15.7,18.4,27.6l32.4,48.6l20.7,50.6c9.9,24.2,21.5,54.3,23.6,62.3c2.6,9.8,7,19.6,12.6,28.1
	c-1-14.5-0.4-28.7,2.1-41.5c5.4-28,20-58.8,38-80.5l0.6-0.7l-1.2-34.7c-0.3-10.1-0.7-18.7-0.9-25.5c-6.5-0.3-15-0.7-25.5-1.1
	l-46.2-1.8l-59.1-34.8L321.2,585.4z M883.1,548.5c0.3,0.2,0.6,0.5,0.9,0.8c8.9,8.1,13.4,18.3,13.5,31.1c0,3.2,0,8.6-34.1,115.6
	c-15.2,47.7-24.3,75-29.8,90.9c25.1-23.8,47.3-51,64.4-79.6c30-49.9,47.7-105.1,52.8-164.1c1.7-20.4,0.8-55.1-1.7-78.5
	c0.1,2,0.1,4.2,0.1,6.7c0,14.4-0.5,18.3-6.2,29.6c-5.2,10.1-9.5,14.7-20.9,24.2C905.2,539.1,895.3,546.5,883.1,548.5z M677.6,575.4
	c33.1,5.1,39.1,6,46.2,13.2c5.2,5.2,6.9,11.5,10,25.7c2.8,13,7.3,36,15,76.4c8,41.6,13.2,69,16,80.7c1.7,0,3.6-0.1,5.6-0.1
	c1.2,0,3.4-0.1,5.5-0.2c10.4-30.2,43.7-133.6,56.9-176.2c-8.9-1.6-16.7-4.9-21.8-12.6l-0.1-0.1c-1.4-2.3-3.2-5.1-17.8-59.8
	c-3.3-12.3-8-30.1-11-41.3c-9.2-1.7-24.2-4.5-44.1-8.1l-49.6-9l-38.8,18c-11.5,5.4-21.5,10-28.9,13.5c3.6,8.5,8.8,20.5,15.1,34.9
	l18.2,41.5L677.6,575.4z M195.6,503.8c12,4.5,25.8,9.6,36.8,13.6c1.7-32.1,8.6-45.5,37.2-89.6c22.6-34.9,23.5-37.3,23.5-41.9
	c0-9.2-4.9-15.4-13.6-17.2c-18.9-3.9-33.6-10.2-43.5-28c-0.4,0.7-0.7,1.3-1,2c-24.7,49.6-39.4,108.6-39.4,158.1V503.8z M858.6,453.2
	c9.5,12.4,17.3,22,22.7,28.5c7.6-6.1,9-8.2,9.2-8.7l0,0c0,0,0.1-0.3,0.1-1.2c0-0.6,0-0.8,0-0.8c-0.4-1.2-3-4.7-12.9-14.5
	c-8.2-8.2-13.6-14-16.7-19.9c-3.4-6.4-5.9-16.3,1.3-27.3c7-10.7,14.4-14.3,29-14.3c6,0,14.1,0.5,26.4,1.2c6.1,0.4,11.7,0.7,16.7,1
	c-15.1-47-39.8-91.6-72.1-129.9c-5.8-6.9-13.9-15.4-20.2-21.8c-1.4,1.4-3,2.8-4.6,4.5c-14.3,13.9-21.1,20.4-25.9,24.3
	c-5.9,4.8-11.5,8-19.9,8c-7.8,0-13.7-2.4-20.2-8.4c-4.2-3.9-9.6-10-20.7-22.9c-15.8-18.4-20.1-23.4-20.1-35.4c0,0,0,0,0-0.1
	c-2,0.1-3.6,0.2-4.6,0.4c-0.9,0.1-1.2,0.2-4.7,1.8c-3.2,1.5-7.4,4.3-8.8,5.5c-2.9,3-13.6,16.2-22,27.1c2.3,1.2,4.9,2.5,7.9,4
	c30.8,15.4,33.3,18.8,35.4,21.9c7.6,10.8,6.7,26.3-2,36.1c-1.7,1.9-3.4,3.6-8.6,6.3c4.4,0.4,11.1,3.6,58.2,28
	c23.4,12.2,52.3,27.3,56.8,30.5c8.9,6.3,17.1,22.6,17.1,34.1c0,6.5-3.7,19.9-4.9,23.8l-1.6,5.7L858.6,453.2z M339,215.1
	c1,2.2,2.2,4.7,3.5,7.5c2.1,4.3,3.6,7.4,4.8,9.7c7.4-4.2,13.3-4.4,23.7-4.4c6,0,16.8-0.3,23.6-0.8l2.6-0.2l19.5-37.2
	c2.2-4.1,8.8-16.8,15.2-28.7c-25.6,10.3-49.1,22.9-71.5,38.2C352.9,204.4,344.8,210.5,339,215.1z"/>
<path class="st1" d="M552.3,931.4C431.4,926,317,866.2,241.4,769c-105.4-135.6-116.9-323.4-29-471.3c30-50.4,72.1-95.8,120.2-129.5
	c104.3-73.1,236.5-95,358.7-59.2c138.7,40.6,246.6,149.4,286.3,288.9c9.1,31.9,13.7,60.6,15.2,93.7c4.5,104-25.7,198.7-89.7,280.9
	c-11.4,14.7-41.9,46.4-56.4,58.7c-61.3,52-134.4,85.2-213.1,96.7c-9.4,1.4-24.6,2.8-33.7,3.2s-19,0.8-22,1
	C574.9,932.1,563.4,931.9,552.3,931.4L552.3,931.4z M625.6,905.2c55.5-7.8,106.4-25.7,153.3-54c53.6-32.3,102.1-80.9,134.5-134.7
	c31.2-52,50-110.5,55.3-171.8c2.4-27.8,0.1-79.8-4.5-100.6c-0.8-3.6-1.4-3.7-32.3-5.5l-14-0.8l3.4,4c1.9,2.2,4.9,6.8,6.7,10.3
	c3,5.6,3.3,7.5,3.3,19.2c0,12.4-0.2,13.3-4.3,21.4c-3.6,7.1-6.2,10-16.4,18.5c-18.1,15.1-24.5,19.1-32.2,19.7l-6.5,0.5l-8.7-8.4
	c-4.8-4.6-15.4-16.8-23.5-27s-15-18.5-15.1-18.4c-0.1,0.2,4.3,17.3,9.9,38.2l10.1,38l6.6,1c11.5,1.7,15.8,3.3,20.7,7.7
	c5.2,4.8,7.5,10.2,7.6,18c0,7.5-65.4,212.8-69.8,218.9c-3.9,5.5-11.2,10.4-17.9,12.2c-2.8,0.8-13.1,1.1-24.5,0.9
	c-17.5-0.4-20.3-0.7-24.8-3.2c-7.3-3.9-13.4-10.7-15.6-17.3c-1-3.1-9-43.1-17.8-88.8c-8.8-45.7-16.1-83.2-16.3-83.4
	c-0.2-0.1-14.2-2.4-31.3-4.9c-19.4-2.9-32.2-5.5-34.3-6.7c-2.7-1.7-8.1-13-30.2-63.1c-16.8-38.1-26.9-62.6-26.9-65.1
	c0-2.7,1-5,3-6.9c2.5-2.4,97.4-47.4,107.9-51.1c2.5-0.9,16.9,1.3,61.2,9.3c31.9,5.8,59.1,10.8,60.5,11.1c2.3,0.5,3-0.9,7-15
	c3.4-12.1,4.1-15.9,3-17c-0.8-0.8-22-12.2-47.1-25.3l-45.6-23.9l-25.9,8.5c-14.2,4.7-27.9,8.5-30.3,8.5c-6.4,0-12.6-3.4-26.3-14.3
	c-16.7-13.2-19.5-16.9-20.1-26.6c-0.6-9.1,2.2-15.9,8.7-21.1c2.3-1.8,14.8-7.6,27.8-13s24.2-10.2,24.8-10.8
	c0.6-0.6-7.5-5.4-19.6-11.5c-11.4-5.7-21.6-11.4-22.7-12.6c-3-3.3-3.7-7.1-2.3-10.8c1.7-4.6,41.6-56.8,48-62.9
	c7.7-7.2,10.5-9.3,18.9-13.5c13.7-6.9,19.7-7.8,50.8-7.4c15.4,0.2,28,0.1,28-0.2c0-0.3-6.2-4-13.8-8.2
	c-43.9-24.1-85.4-38.1-136.2-45.9c-20.7-3.2-72.1-4.5-93.3-2.3c-15.9,1.6-41.2,5.5-48.4,7.5c-4.2,1.1-4.5,1.4-3.4,4.3
	c1.5,4,1.5,15.8-0.1,21.5c-0.7,2.4-2.6,6.3-4.2,8.6c-1.6,2.3-15,27-29.7,54.8c-14.9,28.2-27.9,51.4-29.3,52.4
	c-1.9,1.2-9.4,1.9-28.2,2.4c-24.5,0.7-25.9,0.8-32.3,3.9c-5.6,2.7-8.4,3.3-16.5,3.3c-8.2,0-10.8-0.5-16-3.3
	c-9-4.7-13.4-10.5-22.2-28.9c-4.4-9.1-8.4-16.1-9.2-15.8c-0.8,0.3-6.4,5.8-12.5,12.4l-11.1,12l-1.5,31.4
	c-0.8,17.3-1.2,32.9-0.9,34.7c1,5,4.4,7.2,14.2,9.2c39.3,8.1,60,46.5,44,81.8c-1.8,4.1-12.5,21.6-23.8,39s-21.7,34.2-23.3,37.4
	c-5.4,10.7-8.3,22.3-9,36c-0.7,12.8,1.1,28.5,3.4,29.9c0.6,0.4,15.6-2.4,33.3-6.2c19-4,33.2-6.5,34.6-5.9
	c1.3,0.5,15.8,8.8,32.3,18.6l30,17.7l45.3,1.8c26.9,1.1,46.5,2.4,48.2,3.2c7.2,3.3,7.1,3,9.3,60c2.2,58.5,2.8,52.9-6.7,63.8
	c-12.3,14.2-23.2,34.6-28.9,53.9c-2.6,8.8-3.4,14.4-3.9,28.2c-0.9,26.6,2.9,42.8,16.3,69.3c3.6,7.1,6.6,13.9,6.6,15
	c0,3.9-3.5,9-7.3,10.5c-4.9,2-15.7-0.5-32.7-7.8c-40-17-67.6-48.4-77.6-88.4c-1.3-5.1-11-30.5-21.6-56.6L335,681.1l-35.4-53.3
	c-19.5-29.3-36.1-53.9-37.1-54.6c-0.9-0.8-19.5-7.8-41.2-15.8s-40.2-14.7-41-15c-2.2-0.8-2,7.1,0.8,26
	c10.4,70.6,38.3,135.2,81.8,189.8c67.8,85,164.8,137.7,273.4,148.5C553.4,908.5,608.8,907.5,625.6,905.2L625.6,905.2z M453.9,838.7
	c-7.6-24-9.6-51.8-5.2-74.1c4.8-24.9,18.2-53.2,34.2-72.4l5-6l-1.4-41.6c-0.8-22.9-1.6-41.8-1.8-41.9s-19.1-1.1-41.9-2l-41.6-1.7
	l-61.3-36l-24.1,5.1c-15.8,3.3-23.8,5.5-23.3,6.4c0.4,0.7,14.9,22.5,32.2,48.4l31.4,47.1l20,49c11,26.9,21.3,53.9,22.9,60
	c5.5,21,17.9,41.5,33.1,54.1c6.6,5.5,23.8,16.6,24.6,15.7C456.8,848.7,455.6,844.1,453.9,838.7L453.9,838.7z M789.5,786.4
	c1.9-2.1,66.4-202.1,66.4-206c0-0.7-4.3-1.6-9.5-2c-12.7-1-18-2.6-20.2-5.9c-1-1.5-8-26.2-15.6-54.8c-7.6-28.6-13.9-52.1-14-52.2
	c-0.1-0.1-25-4.7-55.3-10.2l-55.2-10l-43.9,20.4c-24.1,11.2-44.2,20.6-44.4,20.9s9.5,23.3,21.7,51.1l22.2,50.6l33.2,5.1
	c29.9,4.6,33.5,5.4,36.1,8c2.7,2.7,4.6,11.4,20.2,92.9c16,83.8,17.4,90.1,20.3,92.7c3,2.7,3.8,2.8,19.4,2.4
	C785.4,788.9,787.5,788.6,789.5,786.4L789.5,786.4z M250.2,523.5c1-31.1,4.5-39.6,34.5-86c24.4-37.7,26.4-41.5,26.4-51.6
	c0-17.7-10.9-31.3-27.9-34.8c-18-3.7-25.8-8.6-31.8-20c-3.2-6.2-3.3-6.8-3.1-25.9l0.2-19.6l-2.9,3.6c-4.3,5.3-20.3,32.6-26.6,45.3
	c-25.9,52-41.3,114.1-41.3,166.1v15.5l5.2,2c24.1,9.1,64.2,23.7,65.4,23.8C249.2,542.1,249.8,536.3,250.2,523.5L250.2,523.5z
	 M892,496.2c13.1-10.3,16.6-15.5,16.6-24.4c0-8.3-3.2-13.2-18.3-28.1c-14.7-14.6-16.9-18.7-13.1-24.5c4.6-7,4.8-7.1,39.3-5
	c17.3,1.1,33.9,1.9,36.8,1.9h5.3l-2.4-8.9c-15.2-55.2-42.7-107.1-80.1-151.5c-10.8-12.8-31.9-34.3-33.7-34.3c-0.7,0-8.6,7-17.4,15.6
	c-26.6,25.8-28.3,27.2-33.2,27.2c-5.4,0-6.8-1.3-27.2-25.1c-15-17.5-15.7-18.6-15.7-23.7c0-4.9,0.5-5.9,6.4-11.3
	c3.5-3.3,6.4-6.3,6.4-6.7s-9-0.6-19.9-0.4c-19.3,0.4-20.1,0.5-28,4.3c-4.5,2.1-10.4,5.9-13.3,8.5c-4.2,3.7-32.5,39.5-36,45.5
	c-0.6,1,7.4,5.6,26,15c15.4,7.7,27.7,14.7,28.8,16.2c2.8,4,2.4,10.1-0.8,13.8c-1.9,2.2-14.1,7.8-39.9,18.3
	c-20.4,8.4-37.4,15.5-37.8,15.8c-1.1,1.1,0.5,2.7,12.2,11.6l11.5,8.8l27.4-9.2c15.1-5,28.4-9.2,29.5-9.2c2.2,0,100.6,51,106.5,55.3
	c4.3,3,9.6,13.8,9.6,19.4c0,2.4-1.9,10.9-4.2,18.8l-4.2,14.4l15.1,19.7c17.5,22.8,33.2,41.4,34.8,41.4
	C879.7,505.5,885.4,501.4,892,496.2L892,496.2z M354.5,249.1c4.3-2.9,5.8-3.2,16.6-3.2c6.5,0,17.6-0.4,24.7-0.8l12.8-0.8l24.2-46.2
	c13.3-25.4,25.5-48,27.2-50.3c3.3-4.5,3.9-10.5,1.5-13.9c-1.4-2-2.5-1.8-16.2,2.9c-34.5,11.9-65.8,27.5-94.8,47.4
	c-14.1,9.6-33,24.6-33,26c0,0.6,4.1,9.6,9,20c7,14.6,9.8,19.4,12.5,20.9C343.3,253.8,348.6,253.1,354.5,249.1L354.5,249.1z
	 M809.1,219.7l15.3-15.1l-19.5-14.9l-28.4,27.1l7.6,9c4.2,4.9,8.1,9,8.7,9C793.4,234.8,800.8,228,809.1,219.7L809.1,219.7z"/>
<path class="st0" d="M101,254.9c-4.5,0-8.9-0.4-13-1.1c-35.2-6.3-63.8-32.3-72.8-66.4c-3.3-12.4-3.3-33.3,0-45.7
	c10.5-39.6,46.5-67.3,87.8-67.3c10.2,0,20.3,1.7,30,5.1c13.2,4.6,22.3,10.6,33.7,22c27.4,27.4,34,68,16.7,103.2
	c-6.8,13.8-20.9,29.3-33.5,36.9C135.9,249.9,117.7,254.9,101,254.9z M102.3,134.7c-9.3,0-9.3,0-12.4,1.5
	c-7.2,3.5-11.1,7.4-14.5,14.3c-4.1,8.3-4.5,17.4-1.3,25.6c3.2,8.1,9.7,14.3,18.1,17.4c1.8,0.7,2.9,1,7.5,1c1.2,0,2.5,0,3.9-0.1
	c7.8-0.3,7.8-0.3,12.3-2.5l1.2-0.6c10-5.4,15.8-15.5,15.7-27.2c-0.1-12.3-6.8-22.8-17.8-27.9C111.8,134.7,111.8,134.7,102.3,134.7z"
	/>
<path class="st1" d="M91.1,236c-28.2-5-51.4-26.1-58.5-53.3c-2.4-9.3-2.4-27.2,0-36.5c10.7-40.7,54.5-63.8,94.4-49.8
	c10.6,3.7,17.5,8.3,27,17.7c22.1,22.1,27.3,54.1,13.3,82.5c-5.2,10.7-16.9,23.5-26.6,29.4C126.2,234.7,106.2,238.7,91.1,236z
	 M124,208.2c36.5-18,35.8-70.9-1.2-88.2c-6.3-2.9-8.4-3.3-20.5-3.3c-12.2,0-14.1,0.3-20.4,3.4c-10.7,5.2-17.5,12-22.7,22.4
	c-13.1,26.6-0.9,57.7,26.7,67.9c5.2,1.9,8.9,2.3,18.2,2.1C114.6,212.2,117,211.7,124,208.2L124,208.2z"/>
<line class="st2" x1="584" y1="103" x2="935" y2="103"/>
</svg>
