<?xml version="1.0" encoding="UTF-8" standalone="no"?>
<!-- Generator: Adobe Illustrator 18.0.0, SVG Export Plug-In . SVG Version: 6.00 Build 0)  -->

<svg
   xmlns:dc="http://purl.org/dc/elements/1.1/"
   xmlns:cc="http://creativecommons.org/ns#"
   xmlns:rdf="http://www.w3.org/1999/02/22-rdf-syntax-ns#"
   xmlns:svg="http://www.w3.org/2000/svg"
   xmlns="http://www.w3.org/2000/svg"
   xmlns:sodipodi="http://sodipodi.sourceforge.net/DTD/sodipodi-0.dtd"
   xmlns:inkscape="http://www.inkscape.org/namespaces/inkscape"
   version="1.1"
   id="Capa_1"
   x="0px"
   y="0px"
   viewBox="0 0 312.103 312.103"
   style="enable-background:new 0 0 312.103 312.103;"
   xml:space="preserve"
   sodipodi:docname="earth_white.svg"
   inkscape:version="0.92.0 r15299"><metadata
     id="metadata61"><rdf:RDF><cc:Work
         rdf:about=""><dc:format>image/svg+xml</dc:format><dc:type
           rdf:resource="http://purl.org/dc/dcmitype/StillImage" /></cc:Work></rdf:RDF></metadata><defs
     id="defs59" /><sodipodi:namedview
     pagecolor="#ffffff"
     bordercolor="#666666"
     borderopacity="1"
     objecttolerance="10"
     gridtolerance="10"
     guidetolerance="10"
     inkscape:pageopacity="0"
     inkscape:pageshadow="2"
     inkscape:window-width="1920"
     inkscape:window-height="1017"
     id="namedview57"
     showgrid="false"
     inkscape:zoom="2.5248075"
     inkscape:cx="156.0515"
     inkscape:cy="156.0515"
     inkscape:window-x="1912"
     inkscape:window-y="-8"
     inkscape:window-maximized="1"
     inkscape:current-layer="Capa_1" /><g
     id="g24"><circle
       style="fill:none;stroke:#000000;stroke-width:8;stroke-linecap:round;stroke-linejoin:round;stroke-miterlimit:10;"
       cx="176.017"
       cy="156.051"
       r="132.085"
       id="circle10" /><circle
       style="fill:none;stroke:#000000;stroke-width:8;stroke-linecap:round;stroke-linejoin:round;stroke-miterlimit:10;"
       cx="23.633"
       cy="43.618"
       r="19.633"
       id="circle12" /><path
       style="fill:none;stroke:#000000;stroke-width:8;stroke-linecap:round;stroke-linejoin:round;stroke-miterlimit:10;"
       d="   M78.438,173.285l22.609-4.76l20.229,11.9l29.749,1.19l1.19,32.129c0,0-26.179,24.989-5.95,58.308   c-28.559-7.14-30.939-30.939-30.939-30.939l-13.09-32.129L78.438,173.285z"
       id="path14" /><path
       style="fill:none;stroke:#000000;stroke-width:8;stroke-linecap:round;stroke-linejoin:round;stroke-miterlimit:10;"
       d="   M304.72,126.222l0.607,3.034l-27.774-1.583l7.51,7.505c4.581,4.578,4.257,12.096-0.7,16.264c-4.332,3.643-8.824,7.171-9.976,7.171   c-2.05,0-15.679-18.193-19.073-22.766c-0.482-0.649-0.631-1.486-0.403-2.262l2.516-8.57c0.631-2.148-0.344-4.443-2.328-5.48   l-31.488-16.458l-16.801,5.597c-1.399,0.466-2.938,0.202-4.101-0.703l-7.203-5.6c-2.482-1.93-2.206-5.763,0.528-7.317l24.007-9.826   l-20.824-10.412l12.358-16.331c4.066-5.373,10.477-8.451,17.212-8.263l17.826,0.498l-10.305,9.52l10.305,11.9l16.243-15.6"
       id="path16" /><path
       style="fill:none;stroke:#000000;stroke-width:8;stroke-linecap:round;stroke-linejoin:round;stroke-miterlimit:10;"
       d="   M140.303,28.86c4.343,2.654,5.153,8.853,1.321,12.506l-16.778,31.962l-17.314,0.535c-3.927,3.736-10.353,2.535-12.661-2.368   l-5.248-11.162c-0.535-1.13-0.773-2.332-0.762-3.522"
       id="path18" /><path
       style="fill:none;stroke:#000000;stroke-width:8;stroke-linecap:round;stroke-linejoin:round;stroke-miterlimit:10;"
       d="   M75.284,70.628l-0.981,21.431c-0.184,4.008,2.805,7.458,6.798,7.848l0,0c8.971,0.876,15.581,9.296,13.653,18.101   c-0.453,2.07-1.278,4.089-2.489,5.957l-11.877,18.334c-5.732,8.848-7.037,19.854-3.533,29.797l0,0l-32.533-11.9l-0.345-0.738"
       id="path20" /><path
       style="fill:none;stroke:#000000;stroke-width:8;stroke-linecap:round;stroke-linejoin:round;stroke-miterlimit:10;"
       d="   M267.604,173.972l-6.865-0.687l-9.52-35.699l-39.269-7.14l-33.319,15.469l16.769,38.183l22.499,3.466l10.938,56.875   c0.558,2.904,3.099,5.003,6.056,5.003h9.432c2.687,0,5.065-1.74,5.878-4.301l20.903-65.844   C271.897,176.812,270.199,174.231,267.604,173.972z"
       id="path22" /></g><g
     id="g26" /><g
     id="g28" /><g
     id="g30" /><g
     id="g32" /><g
     id="g34" /><g
     id="g36" /><g
     id="g38" /><g
     id="g40" /><g
     id="g42" /><g
     id="g44" /><g
     id="g46" /><g
     id="g48" /><g
     id="g50" /><g
     id="g52" /><g
     id="g54" /><path
     style="fill:#ffffff;stroke-width:0.39606979"
     d="M 169.1218,291.6993 C 130.02437,289.96986 93.019355,270.63677 68.559976,239.16128 34.463871,195.2848 30.725628,134.52765 59.177905,86.675731 68.878291,70.361327 82.49291,55.692094 98.07264,44.768144 131.82472,21.102389 174.56325,14.046216 214.10981,25.610297 c 44.87961,13.123552 79.78256,48.334444 92.63102,93.448283 2.94082,10.32589 4.44586,19.6117 4.9109,30.29934 1.46342,33.63221 -8.31784,64.28423 -29.00164,90.88392 -3.69828,4.75604 -13.55314,15.01838 -18.24959,19.00418 -19.81829,16.81941 -43.49392,27.56656 -68.94006,31.29416 -3.04973,0.44676 -7.9511,0.90586 -10.89192,1.02023 -2.94081,0.11437 -6.14898,0.25745 -7.12925,0.31796 -0.98028,0.0605 -4.72314,-0.0201 -8.31747,-0.17907 z m 23.7163,-8.45472 c 17.94931,-2.52268 34.42285,-8.32387 49.59385,-17.46458 17.35209,-10.45484 33.03663,-26.17136 43.5015,-43.59018 10.10041,-16.81219 16.19252,-35.73821 17.89526,-55.59421 0.77116,-8.99265 0.0255,-25.80927 -1.44296,-32.5409 -0.25398,-1.16428 -0.45433,-1.19829 -10.46588,-1.77639 l -4.53838,-0.26206 1.0947,1.30099 c 0.60209,0.71554 1.57372,2.21128 2.15918,3.32388 0.96025,1.82483 1.06474,2.43382 1.06725,6.21952 0.003,4.01689 -0.0567,4.3135 -1.38567,6.92594 -1.17602,2.31175 -1.98641,3.22913 -5.29675,5.99608 -5.85602,4.89475 -7.93184,6.16477 -10.4124,6.37048 l -2.08914,0.17325 -2.8142,-2.71688 c -1.54781,-1.49428 -4.97642,-5.4296 -7.61914,-8.74516 -2.64272,-3.31555 -4.83738,-5.99114 -4.87701,-5.94575 -0.0396,0.0454 1.40151,5.60771 3.20256,12.3607 l 3.27465,12.27817 2.12785,0.31818 c 3.71082,0.55487 5.10671,1.07766 6.68518,2.50371 1.70113,1.53688 2.44131,3.28819 2.45501,5.80873 0.0133,2.43996 -21.15672,68.83221 -22.58348,70.82521 -1.26109,1.76158 -3.62187,3.3792 -5.77964,3.96023 -0.90272,0.24307 -4.22615,0.36137 -7.92509,0.28209 -5.6745,-0.12161 -6.55187,-0.23302 -8.03142,-1.01981 -2.36751,-1.25898 -4.34715,-3.45332 -5.03974,-5.58628 -0.32839,-1.01134 -2.91951,-13.94248 -5.75805,-28.73588 -2.83854,-14.79339 -5.20674,-26.93204 -5.26266,-26.97478 -0.0559,-0.0428 -4.60811,-0.75954 -10.11596,-1.59288 -6.26432,-0.94779 -10.41707,-1.7611 -11.08995,-2.17194 -0.88327,-0.53931 -2.62902,-4.1927 -9.75978,-20.42468 -5.42097,-12.33994 -8.68772,-20.25562 -8.69373,-21.06591 -0.006,-0.86718 0.31245,-1.60919 0.96073,-2.23547 0.80584,-0.77848 31.52423,-15.33888 34.89661,-16.54086 0.80526,-0.28701 5.45646,0.42205 19.80349,3.01893 10.31307,1.86672 19.11954,3.47771 19.56993,3.57997 0.74203,0.16849 0.95361,-0.28697 2.25453,-4.85336 1.11134,-3.90095 1.32897,-5.14589 0.96343,-5.51116 -0.25972,-0.25952 -7.11709,-3.94581 -15.23861,-8.19176 l -14.76638,-7.7199 -8.37328,2.74581 c -4.60531,1.51018 -9.01078,2.74188 -9.78994,2.7371 -2.06115,-0.0127 -4.09117,-1.11221 -8.50919,-4.60895 -5.4066,-4.27917 -6.29691,-5.45754 -6.49694,-8.599047 -0.18789,-2.950713 0.71665,-5.128383 2.83089,-6.815383 0.7279,-0.580805 4.7809,-2.466881 9.00664,-4.191282 4.22575,-1.724397 7.84216,-3.294239 8.03646,-3.488539 0.20698,-0.206982 -2.4152,-1.740177 -6.33222,-3.702473 -3.67702,-1.842061 -6.97631,-3.681488 -7.33176,-4.08761 -0.95155,-1.087204 -1.20846,-2.278681 -0.75085,-3.482285 0.57028,-1.499948 13.45204,-18.371323 15.52644,-20.335136 2.47416,-2.342257 3.40558,-3.008812 6.10191,-4.366716 4.43512,-2.233574 6.35767,-2.511734 16.44263,-2.378959 4.99014,0.0657 9.07093,0.03034 9.06842,-0.07858 -0.003,-0.10892 -2.00778,-1.29648 -4.45617,-2.639022 -14.20349,-7.788303 -27.62372,-12.314895 -44.04612,-14.856576 -6.6779,-1.033533 -23.31202,-1.440287 -30.16923,-0.737729 -5.12861,0.525453 -13.34312,1.791418 -15.67417,2.415599 -1.36799,0.366303 -1.44433,0.464321 -1.08919,1.398418 0.497,1.307201 0.48574,5.11806 -0.0205,6.940574 -0.21891,0.788059 -0.82719,2.035678 -1.35174,2.772488 -0.52456,0.73681 -4.84202,8.714959 -9.59435,17.72922 -4.81457,9.132297 -9.01157,16.632619 -9.47835,16.938468 -0.61518,0.403084 -3.03692,0.60782 -9.11581,0.770661 -7.94021,0.212705 -8.36698,0.264978 -10.45645,1.280743 -1.81314,0.881425 -2.70965,1.0577 -5.34695,1.051327 -2.655292,-0.0064 -3.495118,-0.17873 -5.184558,-1.063756 -2.901928,-1.520195 -4.345986,-3.398782 -7.188746,-9.351869 -1.410357,-2.953457 -2.717561,-5.208069 -2.970674,-5.123698 -0.248609,0.08287 -2.061812,1.892465 -4.029336,4.021325 l -3.577315,3.870655 -0.493609,10.164616 c -0.271484,5.590537 -0.399874,10.636272 -0.28531,11.21274 0.320461,1.612507 1.41656,2.323738 4.583811,2.974322 12.727988,2.614453 19.411547,15.037484 14.232428,26.454454 -0.598022,1.31829 -4.05669,6.98716 -7.685929,12.59749 -3.629243,5.61033 -7.026496,11.04638 -7.549454,12.08013 -1.744731,3.44885 -2.685714,7.20723 -2.912959,11.63464 -0.21235,4.13722 0.373296,9.21568 1.115657,9.67448 0.187215,0.1157 5.038749,-0.78329 10.781182,-1.99776 6.146841,-1.3 10.752562,-2.09078 11.198872,-1.9228 0.41695,0.15694 5.12475,2.86084 10.46179,6.00866 l 9.70371,5.72331 14.65459,0.58977 c 8.71266,0.35063 15.04162,0.76992 15.60913,1.03408 2.32586,1.08261 2.311,0.98652 3.00052,19.39874 0.70904,18.93334 0.90014,17.1021 -2.1528,20.6295 -3.98127,4.59999 -7.52362,11.20109 -9.36427,17.45012 -0.84022,2.85255 -1.08882,4.67231 -1.24452,9.10961 -0.30215,8.61158 0.92803,13.82643 5.28876,22.41949 1.17233,2.31015 2.13151,4.50234 2.13151,4.87152 0,1.24347 -1.14231,2.89321 -2.34957,3.39328 -1.57402,0.65198 -5.06705,-0.17969 -10.56237,-2.51486 -12.93022,-5.49451 -21.86392,-15.67179 -25.09036,-28.58294 -0.40891,-1.63629 -3.55739,-9.8766 -6.99662,-18.31179 L 98.858363,210.74874 87.40888,193.5197 c -6.297212,-9.47597 -11.697305,-17.42679 -12.000202,-17.66849 -0.302897,-0.2417 -6.298857,-2.53923 -13.324355,-5.10562 -7.025499,-2.56639 -12.996423,-4.74927 -13.268721,-4.85085 -0.715289,-0.26682 -0.633686,2.29985 0.267955,8.42805 3.359553,22.83393 12.373137,43.75555 26.457512,61.4111 21.93486,27.49656 53.302961,44.54179 88.431821,48.05329 5.54367,0.55415 23.45756,0.21741 28.86521,-0.5426 z m -55.549,-21.51469 c -2.45604,-7.77474 -3.0879,-16.74844 -1.68705,-23.95924 1.56421,-8.05162 5.89673,-17.2255 11.06139,-23.42188 l 1.6211,-1.94496 -0.46826,-13.46373 c -0.25754,-7.40505 -0.51507,-13.51011 -0.5723,-13.56679 -0.0572,-0.0567 -6.16434,-0.34365 -13.57136,-0.63771 l -13.4673,-0.53466 -9.909,-5.82668 -9.909,-5.82668 -7.796057,1.64167 c -5.123384,1.07886 -7.708916,1.78836 -7.541873,2.06958 0.139796,0.23536 4.825639,7.28983 10.412975,15.67661 l 10.158805,15.24869 6.46719,15.84279 c 3.55695,8.71354 6.88286,17.44687 7.3909,19.40742 1.76295,6.80325 5.80187,13.41724 10.69528,17.51423 2.13372,1.78645 7.69995,5.3496 7.95638,5.09318 0.0854,-0.0854 -0.29339,-1.57576 -0.84182,-3.31184 z m 108.59434,-16.91915 c 0.6248,-0.67248 21.46367,-65.39007 21.46367,-66.65799 0,-0.22454 -1.38129,-0.51848 -3.06954,-0.65319 -4.09272,-0.32658 -5.83494,-0.8349 -6.52851,-1.90482 -0.31674,-0.48859 -2.58899,-8.46319 -5.04946,-17.72132 -2.46047,-9.25813 -4.49345,-16.86209 -4.51773,-16.89768 -0.0243,-0.0356 -8.07964,-1.52403 -17.90081,-3.30766 l -17.85666,-3.24296 -14.21056,6.59382 c -7.81581,3.6266 -14.2854,6.66866 -14.37688,6.76013 -0.0915,0.0915 3.06973,7.52508 7.02489,16.51912 l 7.19121,16.35281 10.73635,1.64305 c 9.67774,1.48104 10.83116,1.73785 11.69786,2.60455 0.87138,0.87138 1.48311,3.68709 6.5265,30.04075 5.18717,27.10489 5.63317,29.14177 6.56882,30.00004 0.96264,0.88303 1.22038,0.91552 6.28434,0.79214 4.67472,-0.11389 5.36497,-0.21953 6.01651,-0.92079 z M 71.397885,159.75475 c 0.335389,-10.04647 1.445382,-12.81041 11.166246,-27.8045 7.894906,-12.17761 8.522796,-13.40743 8.528052,-16.70355 0.0091,-5.72316 -3.529311,-10.12957 -9.044507,-11.26312 C 76.238255,102.78956 73.70933,101.20066 71.771814,97.527374 70.724156,95.541148 70.7,95.340705 70.762884,89.15531 l 0.06442,-6.337116 -0.944159,1.180387 C 68.5013,85.726166 63.331089,94.538034 61.280238,98.660985 52.914295,115.47954 47.924445,135.55406 47.924445,152.39227 v 5.01956 l 1.683297,0.63535 c 7.801138,2.94445 20.781444,7.67738 21.141575,7.70873 0.306049,0.0267 0.510489,-1.86503 0.648568,-6.00116 z m 207.610605,-8.84528 c 4.23751,-3.3467 5.36962,-5.00992 5.36962,-7.88867 0,-2.67104 -1.03552,-4.26544 -5.91157,-9.10207 -4.77249,-4.73391 -5.46607,-6.03426 -4.2271,-7.92516 1.48963,-2.27346 1.5374,-2.2795 12.71844,-1.60681 5.60278,0.33708 10.95438,0.61287 11.89246,0.61287 h 1.70559 l -0.79189,-2.87151 C 294.83963,104.27146 285.96599,87.482957 273.85766,73.114484 270.36048,68.964512 263.53229,62.02453 262.94635,62.02453 c -0.23767,0 -2.77568,2.276838 -5.64003,5.059641 -8.59837,8.353595 -9.14591,8.802801 -10.72966,8.802801 -1.73462,0 -2.197,-0.42604 -8.79425,-8.10318 -4.85518,-5.649908 -5.09141,-6.005646 -5.09141,-7.667309 0,-1.595237 0.17575,-1.904105 2.07937,-3.654492 1.14365,-1.051591 2.07937,-2.030847 2.07937,-2.176125 0,-0.145278 -2.89626,-0.19981 -6.43614,-0.121181 -6.24775,0.138776 -6.51292,0.179247 -9.05945,1.382671 -1.44283,0.681841 -3.37577,1.919497 -4.29542,2.750348 -1.34376,1.214012 -10.50153,12.783765 -11.64138,14.707512 -0.19924,0.336251 2.37834,1.818701 8.41058,4.837204 4.97756,2.490753 8.96596,4.735149 9.32468,5.247287 0.90387,1.290451 0.78683,3.265105 -0.26433,4.459917 -0.61933,0.703958 -4.55444,2.511423 -12.90062,5.925469 -6.6052,2.701893 -12.10367,5.006738 -12.21881,5.12188 -0.3668,0.3668 0.14945,0.859408 3.93603,3.755787 l 3.70508,2.83403 8.87778,-2.96585 c 4.88279,-1.63122 9.18576,-2.96585 9.56217,-2.96585 0.69862,0 32.53573,16.51692 34.45253,17.87379 1.37445,0.97295 3.10362,4.47148 3.10362,6.27937 0,0.78191 -0.60468,3.51989 -1.34375,6.0844 l -1.34375,4.66274 4.8906,6.35447 c 5.67965,7.37969 10.73129,13.40286 11.24101,13.40286 0.19563,0 2.06687,-1.35146 4.15832,-3.00325 z M 105.14046,70.972578 c 1.37098,-0.930376 1.87332,-1.026653 5.35667,-1.026653 2.11409,0 5.70388,-0.11381 7.9773,-0.25291 l 4.13349,-0.25291 7.81871,-14.930336 c 4.30029,-8.211685 8.26047,-15.529106 8.80039,-16.260935 1.06976,-1.449974 1.27765,-3.393036 0.47977,-4.484201 -0.46786,-0.639834 -0.82397,-0.575431 -5.24792,0.949079 -11.15262,3.843231 -21.28307,8.908463 -30.68858,15.344308 -4.567707,3.125509 -10.693889,7.948159 -10.693889,8.418434 0,0.188355 1.316576,3.09713 2.92572,6.463949 2.258537,4.725533 3.184322,6.26605 4.059719,6.75543 1.45757,0.814838 3.17186,0.570705 5.07862,-0.723255 z m 147.07885,-9.484149 4.93562,-4.892866 -3.16143,-2.406587 -3.16142,-2.406588 -4.58954,4.388096 -4.58954,4.388096 2.45022,2.900586 c 1.34762,1.595325 2.61453,2.905437 2.81535,2.911362 0.20082,0.0059 2.58615,-2.191022 5.30074,-4.882099 z"
     id="path63"
     inkscape:connector-curvature="0" /><path
     style="fill:#ffffff;stroke-width:0.39606979"
     d="M 19.931159,66.759659 C 10.816446,65.143587 3.3076945,58.306058 0.99013262,49.511813 0.1991511,46.510346 0.1991511,40.704222 0.99013262,37.702755 4.4611539,24.531582 18.614185,17.067333 31.517803,21.602589 c 3.413225,1.199653 5.658497,2.676245 8.717969,5.733333 7.160482,7.15491 8.821143,17.492052 4.289479,26.700773 -1.699805,3.454147 -5.460669,7.604851 -8.608772,9.501134 -4.618219,2.781816 -11.099479,4.08811 -15.98532,3.22183 z m 10.639038,-9.000702 c 11.806787,-5.812463 11.577317,-22.931331 -0.382524,-28.536905 -2.026205,-0.949682 -2.723653,-1.06149 -6.62152,-1.06149 -3.956308,0 -4.561512,0.100589 -6.58426,1.094344 -3.452573,1.696214 -5.67004,3.89117 -7.3355316,7.261063 -4.2540007,8.607386 -0.2963018,18.659947 8.6512306,21.974137 1.664194,0.616421 2.887342,0.753306 5.8939,0.659596 3.337378,-0.10402 4.104928,-0.271369 6.378705,-1.390745 z"
     id="path65"
     inkscape:connector-curvature="0" /></svg>