<?xml version="1.0" encoding="utf-8"?>
<!-- Generator: Adobe Illustrator 21.1.0, SVG Export Plug-In . SVG Version: 6.00 Build 0)  -->
<svg version="1.1"
	 id="Layer_1" image-rendering="optimizeQuality" shape-rendering="geometricPrecision" text-rendering="geometricPrecision"
	 xmlns="http://www.w3.org/2000/svg" xmlns:xlink="http://www.w3.org/1999/xlink" x="0px" y="0px" viewBox="0 0 1024 1024"
	 style="enable-background:new 0 0 1024 1024;" xml:space="preserve">
<style type="text/css">
	.st0{fill:#43516A;}
</style>
<title>radar icon</title>
<desc>radar icon from the IconExperience.com O-Collection. Copyright by INCORS GmbH (www.incors.com).</desc>
<path class="st0" d="M512,64C264.6,64,64,264.6,64,512s200.6,448,448,448s448-200.6,448-448S759.4,64,512,64z M512,896
	c-212.1,0-384-171.9-384-384s171.9-384,384-384s384,171.9,384,384S724.1,896,512,896z"/>
<path id="curve0" class="st0" d="M513.6,448h0.2c1,0,2.1,0.1,3.1,0.2h0.2c1,0.1,2,0.2,3,0.3h0.3c0.5,0.1,1,0.1,1.4,0.2l0,0
	c0.5,0.1,0.9,0.2,1.4,0.2h0.3c1,0.2,2,0.4,3,0.6h0.1c1,0.2,2,0.5,3,0.8l0,0c1,0.3,2,0.6,2.9,0.9h0.1c0.9,0.3,1.9,0.7,2.8,1l0.1,0.1
	c0.5,0.2,0.9,0.4,1.3,0.5l0,0c0.5,0.2,0.9,0.4,1.4,0.6h0.1c0.4,0.2,0.9,0.4,1.3,0.6h0.1c0.4,0.2,0.9,0.4,1.3,0.7l0.1,0.1
	c0.9,0.4,1.7,0.9,2.6,1.4l0.2,0.1c0.4,0.2,0.8,0.5,1.2,0.7l0,0c0.4,0.3,0.8,0.5,1.2,0.8l0.2,0.1c0.4,0.2,0.7,0.5,1.1,0.7l0.1,0.1
	c0.4,0.3,0.8,0.5,1.1,0.8l0.2,0.1c0.4,0.3,0.7,0.5,1.1,0.8h0.1c0.4,0.3,0.8,0.6,1.1,0.9l0.2,0.2c0.3,0.2,0.6,0.5,0.9,0.7l0.2,0.2
	c0.3,0.3,0.7,0.6,1,0.9l0.2,0.2c0.3,0.3,0.7,0.6,1,0.9l0.1,0.1c0.3,0.3,0.7,0.6,1,1l0.2,0.2c0.3,0.3,0.6,0.6,0.9,0.8l0.1,0.1
	c0.3,0.3,0.6,0.6,0.9,1l0.2,0.2c0.3,0.3,0.6,0.6,0.8,0.9l0.1,0.1c0.3,0.3,0.6,0.7,0.9,1l0.2,0.3c0.2,0.3,0.5,0.6,0.7,0.8l0.2,0.3
	c0.3,0.3,0.6,0.7,0.8,1l0.2,0.2c0.3,0.3,0.5,0.6,0.7,1l0.1,0.2c0.3,0.4,0.5,0.7,0.8,1.1l0.1,0.2c0.2,0.3,0.5,0.6,0.7,1l0.2,0.3
	c0.3,0.4,0.5,0.8,0.7,1.1l0.1,0.2c0.2,0.3,0.4,0.7,0.7,1.1l0.1,0.2c0.2,0.4,0.4,0.7,0.7,1.1l27.3-16.7
	c-8.2-13.9-19.9-25.9-34.7-34.4l16-27.7l0,0c-18.8-10.9-40.7-17.2-64-17.2v-32c59.2,0,110.9,32.2,138.6,80l27.7-16l0.1,0.1
	c-16.4-28.5-40.2-53.1-70.3-70.4l16-27.7h0.1c-33-19.1-71.2-30-112.1-30v-32c94.7,0,177.5,51.5,221.7,128l27.7-16l0.2,0.4
	c-24.6-42.8-60.3-79.7-105.7-105.8l16-27.7l0,0c-47.1-27.2-101.7-42.8-160-42.8v-32c194.4,0,352,157.6,352,352
	c0,106.1-47.1,204-126.8,270.5L528.1,573.8c-5.3,1.4-10.8,2.2-16.6,2.2c-35.3,0-64-28.7-64-64s28.7-64,64-64l0,0c0.5,0,1.1,0,1.6,0
	H513.6z M520.3,448.5c0.5,0.1,1,0.1,1.4,0.2"/>
</svg>
