<?xml version="1.0" encoding="UTF-8" standalone="no"?>
<!-- Generator: Adobe Illustrator 18.0.0, SVG Export Plug-In . SVG Version: 6.00 Build 0)  -->

<svg
   xmlns:dc="http://purl.org/dc/elements/1.1/"
   xmlns:cc="http://creativecommons.org/ns#"
   xmlns:rdf="http://www.w3.org/1999/02/22-rdf-syntax-ns#"
   xmlns:svg="http://www.w3.org/2000/svg"
   xmlns="http://www.w3.org/2000/svg"
   xmlns:sodipodi="http://sodipodi.sourceforge.net/DTD/sodipodi-0.dtd"
   xmlns:inkscape="http://www.inkscape.org/namespaces/inkscape"
   version="1.1"
   id="Capa_1"
   x="0px"
   y="0px"
   viewBox="0 0 368.258 368.258"
   style="enable-background:new 0 0 368.258 368.258;"
   xml:space="preserve"
   sodipodi:docname="39-telescope.svg"
   inkscape:version="0.92.0 r15299"><metadata
     id="metadata81"><rdf:RDF><cc:Work
         rdf:about=""><dc:format>image/svg+xml</dc:format><dc:type
           rdf:resource="http://purl.org/dc/dcmitype/StillImage" /></cc:Work></rdf:RDF></metadata><defs
     id="defs79" /><sodipodi:namedview
     pagecolor="#ffffff"
     bordercolor="#666666"
     borderopacity="1"
     objecttolerance="10"
     gridtolerance="10"
     guidetolerance="10"
     inkscape:pageopacity="0"
     inkscape:pageshadow="2"
     inkscape:window-width="1920"
     inkscape:window-height="1017"
     id="namedview77"
     showgrid="false"
     inkscape:zoom="2.1398042"
     inkscape:cx="184.129"
     inkscape:cy="184.129"
     inkscape:window-x="1912"
     inkscape:window-y="-8"
     inkscape:window-maximized="1"
     inkscape:current-layer="Capa_1" /><g
     id="g44"><line
       style="fill:none;stroke:#000000;stroke-width:8;stroke-linecap:round;stroke-linejoin:round;stroke-miterlimit:10;"
       x1="269.227"
       y1="38.252"
       x2="168.148"
       y2="105.313"
       id="line10" /><line
       style="fill:none;stroke:#000000;stroke-width:8;stroke-linecap:round;stroke-linejoin:round;stroke-miterlimit:10;"
       x1="291.653"
       y1="72.053"
       x2="190.574"
       y2="139.114"
       id="line12" /><polyline
       style="fill:none;stroke:#000000;stroke-width:8;stroke-linecap:round;stroke-linejoin:round;stroke-miterlimit:10;"
       points="   175.781,148.929 119.263,186.426 96.838,152.624 153.355,115.128  "
       id="polyline14" /><polyline
       style="fill:none;stroke:#000000;stroke-width:8;stroke-linecap:round;stroke-linejoin:round;stroke-miterlimit:10;"
       points="   99.335,156.388 59.718,182.672 64.118,189.304 72.749,202.314 77.149,208.946 116.766,182.662  "
       id="polyline16" /><line
       style="fill:none;stroke:#000000;stroke-width:8;stroke-linecap:round;stroke-linejoin:round;stroke-miterlimit:10;"
       x1="72.78"
       y1="202.363"
       x2="59.962"
       y2="210.874"
       id="line18" /><line
       style="fill:none;stroke:#000000;stroke-width:8;stroke-linecap:round;stroke-linejoin:round;stroke-miterlimit:10;"
       x1="64.156"
       y1="189.343"
       x2="51.327"
       y2="197.855"
       id="line20" /><polyline
       style="fill:none;stroke:#000000;stroke-width:8;stroke-linecap:round;stroke-linejoin:round;stroke-miterlimit:10;"
       points="   64.156,189.343 29.146,212.578 50.98,216.828 72.78,202.363  "
       id="polyline22" /><rect
       x="276.02"
       y="14.286"
       transform="matrix(0.8333 -0.5528 0.5528 0.8333 28.0478 174.0034)"
       style="fill:none;stroke:#000000;stroke-width:8;stroke-linecap:round;stroke-linejoin:round;stroke-miterlimit:10;"
       width="53.021"
       height="52.421"
       id="rect24" /><rect
       x="177.315"
       y="95.06"
       transform="matrix(0.8333 -0.5528 0.5528 0.8333 -51.0926 127.7018)"
       style="fill:none;stroke:#000000;stroke-width:8;stroke-linecap:round;stroke-linejoin:round;stroke-miterlimit:10;"
       width="17.749"
       height="107.011"
       id="rect26" /><line
       style="fill:none;stroke:#000000;stroke-width:8;stroke-linecap:round;stroke-linejoin:round;stroke-miterlimit:10;"
       x1="218.147"
       y1="152.015"
       x2="205.998"
       y2="160.075"
       id="line28" /><line
       style="fill:none;stroke:#000000;stroke-width:8;stroke-linecap:round;stroke-linejoin:round;stroke-miterlimit:10;"
       x1="212.365"
       y1="143.299"
       x2="223.93"
       y2="160.731"
       id="line30" /><polyline
       style="fill:none;stroke:#000000;stroke-width:8;stroke-linejoin:round;stroke-miterlimit:10;"
       points="184.842,199.979    185.165,199.76 202.062,188.549  "
       id="polyline32" /><polyline
       style="fill:none;stroke:#000000;stroke-width:8;stroke-linejoin:round;stroke-miterlimit:10;"
       points="169.153,210.381    158.227,217.636 149.812,204.952 166.053,194.178 176.75,187.085 193.656,175.865  "
       id="polyline34" /><line
       style="fill:none;stroke:#000000;stroke-width:8;stroke-linecap:round;stroke-linejoin:round;stroke-miterlimit:10;"
       x1="258.91"
       y1="45.474"
       x2="280.463"
       y2="77.96"
       id="line36" /><path
       style="fill:none;stroke:#000000;stroke-width:8;stroke-linecap:round;stroke-linejoin:round;stroke-miterlimit:10;"
       d="   M184.844,315.785h-15.688V195.936c0-3.863,3.132-6.995,6.995-6.995h1.698c3.863,0,6.995,3.132,6.995,6.995V315.785z"
       id="path38" /><polyline
       style="fill:none;stroke:#000000;stroke-width:8;stroke-linejoin:round;stroke-miterlimit:10;"
       points="184.84,274.199    191.277,280.636 274.888,364.258 246.337,364.258 184.84,302.749  "
       id="polyline40" /><polyline
       style="fill:none;stroke:#000000;stroke-width:8;stroke-linejoin:round;stroke-miterlimit:10;"
       points="169.152,302.761    107.655,364.258 79.115,364.258 162.726,280.636 169.152,274.21  "
       id="polyline42" /></g><g
     id="g46" /><g
     id="g48" /><g
     id="g50" /><g
     id="g52" /><g
     id="g54" /><g
     id="g56" /><g
     id="g58" /><g
     id="g60" /><g
     id="g62" /><g
     id="g64" /><g
     id="g66" /><g
     id="g68" /><g
     id="g70" /><g
     id="g72" /><g
     id="g74" /><path
     style="fill:#ffffff;stroke-width:0.46733248"
     d="m 76.60658,366.70501 c -1.472495,-1.47249 -1.657301,-2.32493 -0.850307,-3.92216 0.283661,-0.56143 20.579276,-21.1065 45.101367,-45.65572 l 44.58562,-44.63494 -0.12061,-27.4405 -0.12062,-27.4405 -2.93961,1.85873 c -3.34778,2.11683 -5.10991,2.33574 -6.49807,0.80725 -0.52522,-0.57833 -2.87518,-3.93757 -5.22212,-7.46498 -4.69214,-7.05221 -5.19286,-8.69021 -3.21567,-10.51931 0.57833,-0.53501 9.88409,-6.7994 20.67947,-13.92086 10.79538,-7.12147 19.80399,-13.11078 20.01914,-13.30958 0.2815,-0.2601 -11.44949,-18.66801 -13.0883,-20.53775 -0.29421,-0.33567 -1.89091,0.69512 -28.69807,18.5267 -27.19966,18.09266 -27.02943,18.0008 -29.60381,15.97579 l -1.25883,-0.99019 -18.43822,12.28406 c -20.158686,13.43029 -20.301357,13.49923 -22.588375,10.914 -0.666617,-0.75355 -1.527481,-1.84957 -1.91303,-2.43561 l -0.700999,-1.06553 -9.728081,6.33004 c -7.152724,4.65427 -10.109304,6.33005 -11.168104,6.33005 -1.883095,0 -22.607758,-4.07054 -23.69952,-4.65484 -0.462562,-0.24755 -1.089661,-1.05037 -1.393553,-1.78403 -1.018824,-2.45966 -0.158255,-3.43875 7.531838,-8.56918 3.930379,-2.62215 11.300305,-7.58697 16.377613,-11.03295 l 9.231469,-6.2654 -1.40365,-2.04014 c -1.481304,-2.153 -1.791561,-4.22972 -0.819485,-5.48526 0.321291,-0.41497 8.857412,-6.24757 18.969157,-12.96131 14.987217,-9.95083 18.324209,-12.35419 18.056114,-13.00429 -0.720762,-1.74774 -0.747273,-2.38078 -0.147331,-3.51779 0.395714,-0.74995 10.535067,-7.76873 27.601037,-19.1063 l 26.97555,-17.9209 -1.38709,-2.09087 c -1.488,-2.24298 -1.67888,-3.25026 -0.89386,-4.71708 0.63821,-1.19251 17.03238,-12.094767 18.18739,-12.094767 1.08782,0 3.32924,1.850557 4.19041,3.459686 0.35724,0.6675 0.81341,1.213639 1.01371,1.213639 0.20031,0 12.30957,-7.920954 26.90948,-17.60212 14.59991,-9.681166 35.85179,-23.764941 47.2264,-31.297275 l 20.68111,-13.695155 -0.93456,-1.532832 c -1.15177,-1.889083 -1.1876,-3.233556 -0.12023,-4.511307 0.44981,-0.538464 10.98398,-7.711949 23.40926,-15.941078 15.76236,-10.4392288 22.97592,-14.96205151 23.86336,-14.96205151 0.78292,0 1.73673,0.49409904 2.4809,1.28516431 0.66494,0.7068404 7.67977,11.0640962 15.58851,23.0161252 15.24183,23.034089 15.57868,23.674432 13.49696,25.657515 -0.50121,0.477465 -10.97463,7.517829 -23.27426,15.64525 -16.90848,11.172887 -22.70638,14.777132 -23.77093,14.777132 -1.00947,0 -1.82777,-0.458327 -2.89126,-1.619391 l -1.48331,-1.619391 -46.94863,31.110646 c -25.82175,17.11086 -47.10257,31.2529 -47.2907,31.42676 -0.2423,0.22393 8.08536,13.42857 9.70354,15.3863 0.20436,0.24724 6.76211,-4.08978 6.75149,-4.46515 -0.006,-0.19446 -0.95185,-1.80752 -2.103,-3.58456 -1.15115,-1.77705 -2.09299,-3.63335 -2.09299,-4.12512 0,-1.29458 2.5143,-3.6262 3.91031,-3.6262 1.8327,0 3.07685,1.45483 9.37829,10.96638 6.36068,9.60096 6.83454,10.86575 4.79041,12.78611 -1.14037,1.07133 -3.08884,1.31814 -4.48926,0.56866 -0.45986,-0.24611 -1.73121,-1.82133 -2.82522,-3.50047 -1.21528,-1.86528 -2.19616,-2.92774 -2.52133,-2.73102 -1.2895,0.78011 -6.10006,3.91271 -6.27093,4.08358 -0.10381,0.10381 3.46922,5.72772 7.94008,12.49758 4.47086,6.76985 8.26669,12.66806 8.43517,13.10713 0.80133,2.08821 -0.4672,3.37457 -8.80622,8.92996 -10.70399,7.1309 -10.61542,7.12838 -15.09537,0.43011 l -1.94908,-2.9142 -6.06241,4.03846 -6.06241,4.03847 v 35.56043 35.56043 l 44.86392,44.86573 c 41.34414,41.34581 44.86392,44.98648 44.86392,46.4049 0,1.01107 -0.39357,1.93274 -1.14709,2.68625 l -1.14709,1.14709 h -15.24027 c -10.18991,0 -15.57854,-0.17098 -16.26105,-0.51596 -0.56142,-0.28378 -13.34691,-12.81956 -28.4122,-27.85728 l -27.39142,-27.34131 -0.23089,2.4029 c -0.15793,1.64361 -0.57319,2.76728 -1.31415,3.55599 -1.08118,1.15086 -1.10117,1.15308 -10.3697,1.15308 -9.23655,0 -9.29258,-0.006 -10.43351,-1.14709 -0.95348,-0.95348 -1.14709,-1.60333 -1.14709,-3.85025 v -2.70316 l -28.16583,28.15154 -28.16583,28.15154 H 93.538335 77.972625 Z m 59.03531,-35.90234 29.79381,-29.79108 v -8.87962 -8.87962 l -38.32126,38.31913 c -21.0767,21.07552 -38.321268,38.47733 -38.321268,38.67069 0,0.19337 3.837355,0.35157 8.527457,0.35157 h 8.527461 z m 129.80296,29.4395 c 0,-0.19336 -17.24457,-17.59517 -38.32126,-38.67069 l -38.32127,-38.31913 v 9.11055 9.11055 l 29.5574,29.56014 29.5574,29.56015 h 8.76387 c 4.82012,0 8.76386,-0.1582 8.76386,-0.35157 z M 180.85767,253.2609 c 0,-66.22011 0.35045,-60.43952 -3.66414,-60.43952 -1.53067,0 -2.41695,0.28153 -3.19889,1.01613 l -1.08162,1.01613 v 58.56876 58.56876 h 3.97232 3.97233 z M 58.542802,207.24339 c 4.685675,-3.1203 8.597106,-5.73912 8.692068,-5.81959 0.130054,-0.11021 -3.236735,-5.81103 -3.922259,-6.64138 -0.06446,-0.0781 -5.556157,3.44022 -12.203774,7.81844 -6.647616,4.37821 -11.981425,7.988 -11.852909,8.02174 0.128517,0.0337 2.546962,0.53806 5.374324,1.12071 2.827362,0.58265 5.197466,1.08501 5.266899,1.11636 0.06943,0.0314 3.959976,-2.49597 8.645651,-5.61628 z m 104.125918,2.97019 2.53331,-1.76843 0.13376,-4.54056 c 0.0736,-2.4973 0.014,-4.54055 -0.13241,-4.54055 -0.14639,0 -2.48197,1.48663 -5.19016,3.30364 l -4.92399,3.30363 0.81261,1.25286 c 2.65147,4.08796 3.16882,4.75784 3.67449,4.75784 0.30749,0 1.69907,-0.79579 3.09239,-1.76843 z M 95.040668,192.58772 c 8.888162,-5.91176 16.165732,-10.90722 16.172382,-11.10102 0.0204,-0.59542 -12.729062,-19.50926 -13.150848,-19.50926 -0.217651,0 -7.740208,4.89752 -16.716796,10.88339 l -16.321067,10.88338 4.126593,6.29109 c 2.269627,3.46009 4.789217,7.23742 5.59909,8.39407 0.809869,1.15665 1.888738,2.8019 2.397476,3.65611 0.508743,0.85422 1.106761,1.48511 1.32893,1.402 0.22217,-0.0831 7.676077,-4.98801 16.56424,-10.89976 z m 97.727392,-2.39938 c 2.34481,-1.56044 3.83278,-2.84546 3.65269,-3.15449 -0.16713,-0.2868 -1.11636,-1.73079 -2.1094,-3.20886 l -1.80552,-2.68739 -4.20498,2.82742 -4.20498,2.82742 1.6695,1.95044 c 0.91823,1.07274 1.78968,2.42925 1.93656,3.01447 0.14688,0.58522 0.45662,1.06403 0.68831,1.06403 0.23169,0 2.20171,-1.18487 4.37782,-2.63304 z m 21.4019,-0.40462 c 1.98699,-1.28516 3.51898,-2.58361 3.40443,-2.88545 -0.11457,-0.30183 -7.09026,-10.92196 -15.50154,-23.60029 -8.41128,-12.67832 -20.61967,-31.09546 -27.12974,-40.92697 -6.51008,-9.83151 -11.95286,-17.87547 -12.09506,-17.87547 -0.27012,0 -7.15228,4.52295 -7.8751,5.17551 -0.23257,0.20996 0.30478,1.46632 1.22199,2.85711 0.9004,1.3653 9.37664,14.15399 18.83608,28.41932 9.45944,14.26532 21.05609,31.78224 25.77033,38.92648 6.08131,9.21599 8.7434,12.88159 9.16362,12.61798 0.32575,-0.20436 2.21799,-1.42305 4.20499,-2.70822 z m -68.28701,-25.56926 24.61016,-16.34318 -8.97689,-13.62638 c -4.93729,-7.49451 -9.13557,-13.62639 -9.32951,-13.62639 -0.59317,0 -49.76767,32.6861 -49.80551,33.10553 -0.0793,0.87887 17.87329,27.37877 18.3684,27.1137 0.28775,-0.15406 11.59775,-7.63454 25.13335,-16.62328 z M 258.43486,89.577234 c 9.3817,-6.228949 17.03716,-11.571975 17.01214,-11.873395 -0.025,-0.301415 -4.00162,-6.498473 -8.83688,-13.771232 -5.82055,-8.75475 -9.00307,-13.141969 -9.41782,-12.982814 -0.8508,0.326483 -82.50802,54.441027 -83.16579,55.114277 -0.38741,0.39653 1.80897,4.06029 8.50986,14.19525 l 9.03203,13.66078 24.90441,-16.50875 c 13.69743,-9.07982 32.58035,-21.605168 41.96205,-27.834116 z m 25.82847,-17.110813 c 0.95928,-0.65185 1.74415,-1.374874 1.74415,-1.606718 0,-0.311565 -16.62361,-25.888755 -17.59978,-27.079142 -0.19484,-0.237595 -1.87663,0.645937 -3.328,1.748374 l -1.06614,0.809827 9.0108,13.651737 c 4.95594,7.508458 9.1197,13.653842 9.25281,13.656417 0.13311,0.0028 1.02688,-0.528646 1.98616,-1.180495 z m 30.95243,-13.462517 c 10.02428,-6.669031 18.2026,-12.357954 18.17405,-12.64205 -0.0876,-0.871728 -23.97218,-36.7348049 -24.46512,-36.7348049 -0.57795,0 -37.11861,24.2648599 -37.31266,24.7775069 -0.2748,0.725986 24.30856,37.371414 24.85053,37.043683 0.28998,-0.175353 8.72892,-5.775305 18.7532,-12.444335 z"
     id="path83"
     inkscape:connector-curvature="0" /></svg>