<?xml version="1.0" encoding="utf-8"?>
<!-- Generator: Adobe Illustrator 21.1.0, SVG Export Plug-In . SVG Version: 6.00 Build 0)  -->
<svg version="1.1" id="Layer_1" xmlns="http://www.w3.org/2000/svg" xmlns:xlink="http://www.w3.org/1999/xlink" x="0px" y="0px"
	 viewBox="0 0 1024 1024" style="enable-background:new 0 0 1024 1024;" xml:space="preserve">
<style type="text/css">
	.st0{fill:#FFFFFF;}
	.st1{display:none;}
</style>
<path class="st0" d="M696.3,983.8c-36-0.1-37.9-1.1-41.9-3.1c-2.8-1.4-3.4-1.7-25.9-23.8c-13.4-13.2-30.7-30.3-48.7-48.3l-50.4-50.3
	c-2.9,2.3-6.7,4.1-12.5,4.7c-4.1,0.5-9.8,0.5-22.3,0.5c-22.5,0-28.7,0-35.3-5.4L333.5,983.8h-91l-8.6-8.3
	c-8.9-8.9-10.6-18.8-5.3-29.4c1.6-3.1,1.8-3.5,36.4-38.5c21.3-21.5,49.1-49.5,78.4-78.8l105.3-105.4l-0.5-102.7c-0.4,0-0.8,0-1.2,0
	c-4.8,0-11.8-1.4-17.8-8c-2.9-3.1-11.1-15.4-14.5-20.5c-6.5-9.8-10.4-16.3-12.3-22.3c-2.9-9.6-0.5-18.7,6.9-25.6
	c1-0.9,4-3.6,53.4-36.2c15.6-10.3,27.8-18.4,36.2-23.9c-4.5-7.1-10.1-16-14.7-23c-10.7,7-29.2,19.2-56.5,37.4l-1.2,0.8
	c-59.6,39.7-65.9,43.8-76.7,43.8c-3,0-5.5-0.6-7.7-1.4l-36.3,24.2c-42.1,28.1-49.7,33.1-60.1,33.1c-7.3,0-12.3-3.4-15.3-6.3
	l-11.1,7.2c-23.9,15.5-29.7,18.4-36.9,18.4c-1.5,0-5.1,0-33.3-5.5c-29-5.7-31-6.8-33.3-8c-6.9-3.6-10.3-10.7-11.2-13
	c-4.9-11.9-0.4-20.6,4.2-25.9c3.9-4.5,9.8-8.7,20.7-16c9.1-6,27.1-18.2,40.4-27.2l9.9-6.7c-2.8-8.6-1.6-17.2,3.6-23.8
	c1.8-2.3,3.1-4,50.9-35.8c10.1-6.7,26.8-17.8,35.7-24.1c0.1-3.2,1-6.7,3-10.5c2.5-4.8,3.5-6.8,73.9-53.5l53.6-35.6
	c-1.7-5.3-2.1-11.9,1.9-19.4c1.8-3.5,3.2-6,27.6-22.3c25.1-16.7,27.6-16.7,32.4-16.7c5.9,0,11.5,2.8,16,6.4
	c11.2-7.3,30-19.7,54.1-35.6l45.4-30.1c26.7-17.7,53.8-35.7,71.4-47.4l39.3-26c-1.5-9.5,3-16.5,5.6-19.5c1.6-1.9,3.6-4.3,61.6-42.7
	c60.2-39.9,61.9-39.9,68.5-39.9c6.7,0,13.4,3.1,18.6,8.5c2.5,2.7,16.1,22.6,40.4,59.2c19.4,29.4,29,43.9,33.6,52.8
	c3.1,6,10.5,19.9-2.7,32.5c-1.1,1-3.3,3.1-60,40.6c-21.8,14.4-35.5,23.3-44.5,28.9c-12.9,8-17.8,10.5-23.7,10.5
	c-5.1,0-9.3-1.6-12.5-3.5l-105.1,69.6c-28.9,19.2-54.3,36-73.9,49c7.3,4.7,13.8,14.5,24.9,31.3c8.9,13.4,13.3,20.4,15.5,26.4
	c2.7,7.2,3.8,17.7-6.2,27.1c-4.4,4.1-10.3,6.6-16.4,7c19.8,30,20.8,32.4,21.3,33.7l0,0.1c2.5,6.5,3.4,16.2-6.2,25.9
	c-4.3,4.4-11.1,9.2-22,16.5l-0.4,0.3c-16.4,11-23.9,16-33.7,16c-10.5,0-16.8-5.9-22.1-13l-8.4,5.6v159.8l106,106
	c53.1,53.1,79.2,79.3,94.1,94.7c17,17.6,21.9,23.1,21.9,32.2c0,7-2.8,13.7-7.9,18.7l-7.8,7.8c0,0-45.5,0-45.9,0l-4.9,4.9
	L696.3,983.8z M241.8,517c5.6,8.5,10.9,16.5,13,19.6c6.6-4.3,15.4-10.2,25.8-17.1l1.5-1c11.1-7.4,20.1-13.5,26.5-17.9
	c-4.3-6.5-9.6-14.4-14-20.8c-6.7,4.4-16,10.5-27.5,18.2l-26.3,17.5L241.8,517z M332.6,441.3c7.4,11.4,18.8,28.1,26.6,39.3
	c9.5-6.3,23.7-15.7,41.2-27.3l7.6-5.1l46.8-31l-12.9-19.5c-5.4-8.1-9.9-14.9-13.4-20.1C405,392.8,355.7,425.6,332.6,441.3z
	 M509.2,324c3.2,5,7.6,11.8,13.1,20.2l12.9,19.6l47.4-31.4c32-21.2,80.4-53.3,103.8-68.9l14.7-9.8c5.5-3.7,10.3-7,14.2-9.7
	c-3.4-5.3-7.9-12.1-13.3-20.3c-5.7-8.6-9.8-14.6-12.8-18.9C652.5,228.8,545.4,299.8,509.2,324z M751.3,146
	c10.9,16.9,31.1,47.1,42.7,63.8c7.8-5.2,18.9-12.5,33-21.9c13.6-9.1,24.3-16.4,31.7-21.5c-10.9-16.9-30.9-46.9-42.3-63.6
	C799,114.1,768.3,134.5,751.3,146z"/>
<path class="st1" d="M278,909.5c-3.2-3.2-3.6-5.1-1.9-8.5c0.6-1.2,44.8-46,98.2-99.4l97.1-97.2l-0.5-119.5l-6.4,4.1
	c-7.3,4.6-11.1,5.1-14.2,1.8c-1.2-1.3-6.3-8.6-11.4-16.3c-10.2-15.4-11.3-18.9-7-22.9c1.3-1.2,21.5-14.8,45-30.3
	c23.5-15.5,43.1-28.5,43.6-29c0.6-0.6-24.9-40.6-28.5-44.7c-0.7-0.7-4.1,1.5-62.5,40.3c-59.2,39.4-58.9,39.2-64.4,34.8l-2.7-2.2
	l-40.1,26.7c-43.9,29.2-44.2,29.4-49.2,23.8c-1.5-1.6-3.3-4-4.2-5.3l-1.5-2.3l-21.2,13.8c-15.6,10.1-22,13.8-24.3,13.8
	c-4.1,0-49.2-8.9-51.6-10.1c-1-0.5-2.4-2.3-3-3.9c-2.2-5.4-0.4-7.5,16.4-18.7c8.6-5.7,24.6-16.5,35.7-24l20.1-13.6l-3.1-4.4
	c-3.2-4.7-3.9-9.2-1.8-12c0.7-0.9,19.3-13.6,41.3-28.2c32.6-21.7,39.9-26.9,39.3-28.3c-1.6-3.8-1.6-5.2-0.3-7.7
	c0.9-1.6,22.9-16.9,60.1-41.6l58.7-39l-3-4.6c-3.2-4.9-3.7-7.1-2-10.3c1.4-2.6,37.1-26.3,39.6-26.3c2.4,0,7.2,4,9.1,7.5
	c0.8,1.5,1.8,2.6,2.2,2.6s26.8-17.2,58.6-38.3c31.8-21.1,78-51.7,102.8-68.2l45-29.8l-2-3.3c-2.5-4.1-2.6-7-0.3-9.8
	c1-1.2,23.9-16.8,51-34.7c34.3-22.7,50-32.6,52-32.6c1.7,0,3.8,1.1,5.4,2.8c1.5,1.5,16.7,24.1,34,50.1
	c33.2,50.2,33.9,51.5,29.4,55.9c-1.1,1.1-23.9,16.4-50.7,34.1c-36.8,24.3-49.4,32.2-51.8,32.2c-2.2,0-4-1-6.3-3.5l-3.2-3.5
	l-102.2,67.7c-56.2,37.3-102.6,68.1-103,68.4c-0.5,0.5,17.6,29.2,21.1,33.5c0.5,0.5,14.7-8.9,14.7-9.7c0-0.4-2.1-3.9-4.6-7.8
	c-2.5-3.9-4.6-7.9-4.6-9c0-2.8,5.5-7.9,8.5-7.9c4,0,6.7,3.2,20.4,23.9c13.9,20.9,14.9,23.7,10.4,27.8c-2.5,2.3-6.7,2.9-9.8,1.2
	c-1-0.5-3.8-4-6.1-7.6c-2.7-4.1-4.8-6.4-5.5-5.9c-2.8,1.7-13.3,8.5-13.7,8.9c-0.2,0.2,7.5,12.5,17.3,27.2
	c9.7,14.7,18,27.6,18.4,28.5c1.8,4.5-1,7.3-19.2,19.4c-23.3,15.5-23.1,15.5-32.9,0.9l-4.2-6.3l-26.4,17.6v154.8L620,803
	c90,90,97.7,97.9,97.7,101c0,2.2-0.9,4.2-2.5,5.8l-2.5,2.5h-33.2c-22.2,0-33.9-0.4-35.4-1.1c-1.2-0.6-29.1-27.9-61.9-60.7
	l-59.6-59.5l-0.5,5.2c-0.4,3.6-1.3,6-2.9,7.7c-2.4,2.5-2.4,2.5-22.6,2.5c-20.1,0-20.2,0-22.7-2.5c-2.1-2.1-2.5-3.5-2.5-8.4v-5.9
	L348.7,912.4H281L278,909.5z M406.5,831.3l64.9-64.9v-38.7l-83.4,83.4c-45.9,45.9-83.4,83.8-83.4,84.2c0,0.4,8.3,0.8,18.6,0.8h18.6
	L406.5,831.3z M689.1,895.4c0-0.4-37.5-38.3-83.4-84.2l-83.4-83.4v39.7L651,896.2H670C680.5,896.2,689.1,895.8,689.1,895.4
	L689.1,895.4z M505,662.5c0-144.2,0.8-131.6-8-131.6c-3.3,0-5.3,0.6-7,2.2l-2.4,2.2v255H505V662.5z M238.6,562.3
	c10.2-6.8,18.7-12.5,18.9-12.7c0.3-0.3-7-12.7-8.5-14.5c-0.2-0.2-12.1,7.5-26.6,17c-14.5,9.5-26.1,17.4-25.8,17.5
	c0.3,0.1,5.5,1.2,11.7,2.4c6.2,1.3,11.3,2.4,11.5,2.4C220,574.6,228.4,569.1,238.6,562.3L238.6,562.3z M465.3,568.8l5.5-3.9l0.3-9.9
	c0.2-5.4,0-9.9-0.3-9.9s-5.4,3.2-11.3,7.2l-10.7,7.2l1.8,2.7c5.8,8.9,6.9,10.3,8,10.3C459.3,572.6,462.3,570.9,465.3,568.8
	L465.3,568.8z M318.1,530.4c19.3-12.9,35.2-23.8,35.2-24.2c0.1-1.3-27.7-42.5-28.6-42.5c-0.5,0-16.9,10.7-36.4,23.7l-35.5,23.7
	l9,13.7c4.9,7.5,10.4,15.8,12.2,18.3c1.8,2.5,4.1,6.1,5.2,8c1.1,1.9,2.4,3.2,2.9,3.1C282.5,554,298.7,543.3,318.1,530.4L318.1,530.4
	z M530.9,525.2c5.1-3.4,8.3-6.2,7.9-6.9c-0.4-0.6-2.4-3.8-4.6-7l-3.9-5.9L512,517.8l3.6,4.2c2,2.3,3.9,5.3,4.2,6.6s1,2.3,1.5,2.3
	S526.1,528.3,530.9,525.2L530.9,525.2z M577.5,524.3c4.3-2.8,7.7-5.6,7.4-6.3s-15.4-23.8-33.8-51.4c-18.3-27.6-44.9-67.7-59.1-89.1
	c-14.2-21.4-26-38.9-26.3-38.9c-0.6,0-15.6,9.8-17.1,11.3c-0.5,0.5,0.7,3.2,2.7,6.2c2,3,20.4,30.8,41,61.9s45.9,69.2,56.1,84.8
	c13.2,20.1,19,28,19.9,27.5C569,529.7,573.2,527.1,577.5,524.3L577.5,524.3z M428.8,468.6l53.6-35.6l-19.5-29.7
	c-10.7-16.3-19.9-29.7-20.3-29.7c-1.3,0-108.4,71.2-108.4,72.1c-0.2,1.9,38.9,59.6,40,59C374.7,504.5,399.3,488.2,428.8,468.6
	L428.8,468.6z M673.9,306.1c20.4-13.6,37.1-25.2,37-25.9c-0.1-0.7-8.7-14.2-19.2-30c-12.7-19.1-19.6-28.6-20.5-28.3
	c-1.9,0.7-179.6,118.5-181.1,120c-0.9,0.9,3.9,8.8,18.5,30.9l19.7,29.7l54.2-36C612.3,346.9,653.4,319.6,673.9,306.1L673.9,306.1z
	 M730.1,268.9c2.1-1.4,3.8-3,3.8-3.5c0-0.7-36.2-56.4-38.3-59c-0.4-0.5-4.1,1.4-7.2,3.8L686,212l19.6,29.7
	c10.8,16.3,19.8,29.7,20.1,29.7C726.1,271.4,728,270.3,730.1,268.9L730.1,268.9z M797.5,239.5c21.8-14.5,39.6-26.9,39.6-27.5
	c-0.2-1.9-52.2-80-53.3-80c-1.3,0-80.8,52.8-81.2,53.9c-0.6,1.6,52.9,81.4,54.1,80.7C757.3,266.3,775.7,254.1,797.5,239.5z"/>
</svg>
