<?xml version="1.0" standalone="no"?>
<!DOCTYPE svg PUBLIC "-//W3C//DTD SVG 1.1//EN" "http://www.w3.org/Graphics/SVG/1.1/DTD/svg11.dtd" >
<svg>
<metadata>
Created by FontForge 20110222 at Mon Mar  7 13:36:03 2011
 By www-data
Modern and elegant sans serif font.
</metadata>
<defs>
<font id="Hero-Light" horiz-adv-x="616" >
  <font-face 
    font-family="Hero Light"
    font-weight="300"
    font-stretch="normal"
    units-per-em="1000"
    panose-1="2 0 5 6 0 0 0 2 0 4"
    ascent="750"
    descent="-250"
    x-height="501"
    cap-height="624"
    bbox="-33.7174 -203 1144.58 823"
    underline-thickness="50"
    underline-position="-50"
    unicode-range="U+0020-2122"
  />
    <missing-glyph />
    <glyph glyph-name="numbersign" unicode="#" horiz-adv-x="554" 
d="M80 13l35 205h-71c-9 0 -18 7 -18 18c0 9 9 17 18 17h77l25 142h-77c-9 0 -18 6 -18 17s9 18 18 18h83l35 204c1 11 7 17 18 17c12 0 18 -11 17 -22l-34 -199h177l35 204c2 11 8 17 19 17s19 -11 16 -22l-34 -199h73c9 0 18 -8 18 -17c0 -11 -7 -18 -18 -18h-79l-25 -142
h79c9 0 18 -6 18 -17s-7 -18 -18 -18h-85l-35 -211c-3 -11 -9 -16 -19 -16c-12 0 -19 11 -16 22l35 205h-178l-36 -211c-1 -11 -7 -16 -18 -16c-12 0 -18 11 -17 22zM182 395l-25 -142h178l24 142h-177z" />
    <glyph glyph-name="dollar" unicode="$" horiz-adv-x="699" 
d="M46 130c-6 21 23 30 30 9c23 -82 135 -113 209 -120c10 -1 21 -2 31 -2v286c-129 11 -257 27 -257 160c0 97 96 146 179 163c26 6 51 9 78 9v58c0 20 28 20 28 0v-58c93 -4 212 -30 247 -125c9 -25 -22 -30 -29 -12c-30 86 -135 104 -218 106v-274
c134 -11 270 -23 270 -156c0 -142 -152 -184 -270 -187v-59c0 -18 -28 -18 -28 0v60c-101 3 -240 35 -270 142zM316 333v271h-18c-71 -5 -174 -33 -200 -109c-4 -11 -6 -22 -6 -34c0 -102 107 -117 224 -128zM344 301v-284c97 2 237 38 237 156c0 106 -115 118 -237 128z
" />
    <glyph glyph-name="percent" unicode="%" horiz-adv-x="640" 
d="M546 636l-449 -635c-12 -16 -40 0 -26 20l449 635c13 18 39 -1 26 -20zM179 646c71 0 129 -59 129 -138c0 -69 -49 -142 -129 -142c-72 0 -129 57 -129 142c0 70 50 138 129 138zM277 508c0 53 -38 106 -98 106c-56 0 -100 -49 -100 -106c0 -52 37 -110 100 -110
c58 0 96 45 98 110zM447 277c71 0 129 -59 129 -138c0 -69 -49 -142 -129 -142c-72 0 -129 57 -129 142c0 70 50 138 129 138zM545 139c0 53 -38 106 -98 106c-56 0 -100 -49 -100 -106c0 -52 37 -110 100 -110c58 0 96 45 98 110z" />
    <glyph glyph-name="ampersand" unicode="&#x26;" horiz-adv-x="648" 
d="M287 -18c-118 1 -251 42 -251 191c0 82 57 133 137 146c-69 17 -122 70 -122 149c0 126 129 176 238 176c112 -1 240 -50 238 -178c0 -19 -30 -17 -30 0c0 198 -416 198 -416 0c0 -108 100 -133 207 -133h310c17 0 17 -30 0 -30h-66v-131c0 -146 -122 -190 -245 -190z
M503 303h-215c-112 0 -224 -18 -224 -132c0 -122 131 -161 224 -161c94 0 215 35 215 161v132z" />
    <glyph glyph-name="quotesingle" unicode="'" horiz-adv-x="208" 
d="M90 624v-115c0 -22 -33 -22 -33 0v115c0 22 33 22 33 0z" />
    <glyph glyph-name="parenleft" unicode="(" horiz-adv-x="272" 
d="M216 634c-186 -158 -187 -526 -1 -684c9 -7 11 -20 3 -28c-8 -7 -18 -6 -25 1c-204 176 -201 561 0 737c17 17 42 -10 23 -26z" />
    <glyph glyph-name="parenright" unicode=")" horiz-adv-x="271" 
d="M25 628c-8 7 -10 20 -2 28c8 7 18 6 25 -1c204 -176 201 -561 0 -737c-7 -7 -17 -8 -25 -1c-8 8 -6 21 3 28c187 159 183 523 -1 683z" />
    <glyph glyph-name="asterisk" unicode="*" horiz-adv-x="324" 
d="M218 465l-66 45l2 -82c0 -21 -31 -21 -31 0l3 82l-69 -45c-18 -9 -34 16 -16 28l68 37l-68 38c-17 11 -4 38 16 28l69 -45l-4 82c0 20 32 21 32 0l-3 -81l67 44c18 8 35 -15 17 -28l-68 -38l68 -37c15 -12 3 -37 -17 -28z" />
    <glyph glyph-name="plus" unicode="+" horiz-adv-x="567" 
d="M282 494v-183h182c11 0 18 -6 18 -17c0 -9 -7 -17 -18 -17h-182v-182c0 -11 -8 -18 -17 -18c-11 0 -17 7 -17 18v182h-183c-9 0 -17 8 -17 17c0 11 8 17 17 17h183v183c0 9 6 17 17 17c9 0 17 -8 17 -17z" />
    <glyph glyph-name="comma" unicode="," horiz-adv-x="147" 
d="M95 7l-48 -102c-10 -20 -39 -5 -29 14l45 101c13 30 45 10 32 -13z" />
    <glyph glyph-name="hyphen" unicode="-" horiz-adv-x="411" 
d="M295 283h-218c-26 0 -24 35 0 35h218c24 0 24 -35 0 -35z" />
    <glyph glyph-name="period" unicode="." horiz-adv-x="141" 
d="M58 50c15 0 25 -11 25 -26s-10 -25 -25 -25s-26 10 -26 25s11 26 26 26z" />
    <glyph glyph-name="slash" unicode="/" horiz-adv-x="373" 
d="M6 -81l309 727c11 24 44 11 33 -13l-311 -728c-12 -26 -41 -10 -31 14z" />
    <glyph glyph-name="zero" unicode="0" horiz-adv-x="536" 
d="M465 407c2 273 -397 273 -395 0v-180c-2 -273 397 -273 395 0v180zM39 407c-3 314 460 314 458 0v-180c2 -314 -461 -314 -458 0v180z" />
    <glyph glyph-name="one" unicode="1" horiz-adv-x="323" 
d="M68 425l156 213c5 7 15 11 23 8c10 -3 15 -11 15 -19v-626c0 -23 -32 -23 -32 0v596l-136 -189c-14 -20 -40 -2 -26 17z" />
    <glyph glyph-name="two" unicode="2" horiz-adv-x="568" 
d="M169 74l-73 -46l88 4h315c24 0 24 -31 0 -31h-423c-8 0 -16 6 -19 14c-2 8 1 17 8 22c106 78 214 156 319 234c63 46 96 108 85 186c-13 100 -89 149 -185 149c-98 0 -173 -48 -187 -149c-1 -8 -2 -18 -2 -27c0 -17 -30 -16 -30 0c0 11 1 22 2 32c17 118 105 177 218 177
c109 0 200 -61 216 -177c14 -87 -23 -159 -95 -212z" />
    <glyph glyph-name="three" unicode="3" horiz-adv-x="567" 
d="M81 183c14 -114 98 -156 202 -156c97 0 172 55 186 156c11 78 -25 161 -101 194c-40 17 -88 16 -126 -2c-12 -8 -28 1 -28 15c0 5 2 12 6 15l218 201h-353c-22 0 -22 32 0 32h383c19 0 28 -25 12 -37l-140 -130l-74 -60c36 12 86 10 116 -2c93 -37 132 -135 117 -233
c-16 -114 -104 -180 -216 -180c-118 0 -214 43 -233 180c-1 11 -2 22 -2 32c0 18 31 19 31 0c0 -8 0 -17 2 -25z" />
    <glyph glyph-name="four" unicode="4" horiz-adv-x="512" 
d="M436 183v442c0 8 6 15 15 15c8 0 15 -7 15 -15v-609c0 -22 -30 -22 -30 -1v138h-380c-26 0 -37 19 -23 41l261 444c11 18 38 4 27 -16l-262 -439h377z" />
    <glyph glyph-name="five" unicode="5" horiz-adv-x="561" 
d="M76 183c15 -114 92 -152 195 -152c257 0 266 368 -5 368h-195c-9 0 -16 6 -16 15v200c0 16 10 25 25 25h342c9 0 16 -7 16 -16c0 -8 -7 -15 -16 -15h-336v-178h180c314 0 298 -429 6 -429c-121 0 -209 49 -226 175c-2 11 -3 22 -3 32c0 18 31 19 31 0c0 -8 1 -17 2 -25z
" />
    <glyph glyph-name="six" unicode="6" horiz-adv-x="562" 
d="M90 376v-61c33 76 119 123 200 123c124 0 227 -91 228 -220c2 -190 -213 -286 -363 -195c-60 36 -97 100 -97 169v188c0 95 17 172 104 226c47 30 104 42 158 37c57 -5 111 -29 152 -69c16 -16 -7 -38 -24 -21c-68 66 -179 81 -261 33c-86 -50 -97 -123 -97 -210zM170 50
c133 -79 313 2 313 168c0 104 -84 189 -191 189c-103 0 -198 -74 -200 -177l-1 -37c0 -57 29 -113 79 -143z" />
    <glyph glyph-name="seven" unicode="7" horiz-adv-x="529" 
d="M103 20l334 585h-368c-24 0 -24 32 0 32h382c25 0 37 -16 21 -38l-339 -596c-3 -5 -9 -8 -16 -8c-8 0 -16 8 -16 16c0 4 1 7 2 9z" />
    <glyph glyph-name="eight" unicode="8" horiz-adv-x="599" 
d="M296 -17c-119 1 -255 42 -255 191c0 84 59 135 140 148c-70 18 -123 71 -123 150c0 29 7 53 18 74c41 79 142 103 222 103c79 0 179 -25 219 -103c11 -21 19 -45 19 -74c0 -83 -50 -131 -124 -149c83 -12 141 -69 141 -150c0 -146 -134 -190 -257 -190zM297 309
c-113 0 -226 -22 -226 -137c0 -122 131 -162 226 -162c94 0 226 36 226 162c0 114 -114 137 -226 137zM296 333c108 0 210 28 210 137c0 12 -1 24 -5 36c-45 152 -363 152 -408 0c-5 -12 -6 -24 -6 -36c0 -109 101 -137 209 -137z" />
    <glyph glyph-name="nine" unicode="9" horiz-adv-x="559" 
d="M471 255v62c-33 -75 -119 -122 -201 -122c-124 0 -225 91 -226 219c-3 191 211 286 362 195c60 -36 96 -100 96 -169v-187c0 -95 -17 -172 -104 -227c-95 -61 -240 -44 -321 34c-16 16 7 39 24 22c68 -67 191 -83 274 -35c85 50 96 123 96 208zM391 583
c-133 79 -316 -2 -316 -169c0 -105 89 -188 194 -188c104 0 197 74 200 177l1 36c0 58 -29 113 -79 144z" />
    <glyph glyph-name="colon" unicode=":" horiz-adv-x="143" 
d="M55 56c15 0 26 -11 26 -26s-11 -26 -26 -26s-25 11 -25 26s10 26 25 26zM55 502c15 0 26 -11 26 -26s-11 -25 -26 -25s-25 10 -25 25s10 26 25 26z" />
    <glyph glyph-name="semicolon" unicode=";" horiz-adv-x="155" 
d="M68 502c15 0 26 -11 26 -26s-11 -25 -26 -25s-25 10 -25 25s10 26 25 26zM32 -85l48 102c13 23 -20 43 -33 13l-44 -101c-10 -19 19 -34 29 -14z" />
    <glyph glyph-name="less" unicode="&#x3c;" horiz-adv-x="317" 
d="M243 488l-182 -173l181 -172c5 -5 7 -9 7 -14c0 -9 -7 -17 -18 -17c-5 0 -9 2 -13 6l-186 180c-13 12 -10 25 2 37l186 179c3 3 7 5 11 5c11 0 18 -7 18 -18c0 -3 -2 -8 -6 -13z" />
    <glyph glyph-name="equal" unicode="=" horiz-adv-x="526" 
d="M401 407h-337c-9 0 -16 8 -16 17s7 17 16 17h337c9 0 17 -8 17 -17s-8 -17 -17 -17zM64 294h337c9 0 17 -7 17 -16s-8 -17 -17 -17h-337c-9 0 -16 8 -16 17c0 11 5 16 16 16z" />
    <glyph glyph-name="greater" unicode="&#x3e;" horiz-adv-x="353" 
d="M235 317l-179 173c-4 5 -6 10 -6 13c0 11 7 18 18 18c4 0 8 -2 11 -5l186 -179c12 -12 15 -25 2 -37l-186 -180c-4 -4 -8 -6 -13 -6c-11 0 -18 8 -18 17c0 5 2 9 7 14z" />
    <glyph glyph-name="question" unicode="?" horiz-adv-x="621" 
d="M523 452c2 125 -144 159 -244 159c-86 0 -196 -18 -230 -113c-7 -19 -37 -13 -29 12c36 111 163 136 260 136c116 0 281 -53 278 -195c-5 -193 -280 -145 -280 -284v-41c0 -20 -33 -20 -33 0v42c0 165 275 111 278 284zM278 61v-55c0 -21 -33 -21 -33 0v55
c0 21 33 21 33 0z" />
    <glyph glyph-name="at" unicode="@" horiz-adv-x="812" 
d="M555 56v35c-12 -37 -41 -66 -77 -86c-152 -85 -329 38 -332 204c-2 73 30 147 96 196c93 70 264 48 313 -64v85c0 9 7 16 16 16s16 -7 16 -16v-370c0 -24 14 -44 40 -44c42 0 64 71 72 100c9 33 13 68 13 104c0 90 -37 171 -96 230s-140 95 -230 95
c-180 0 -326 -145 -326 -325c0 -107 50 -205 138 -267c86 -60 195 -76 295 -41c16 5 28 -22 9 -29c-109 -37 -227 -20 -321 46c-96 67 -151 174 -151 291c0 196 159 355 356 355c98 0 187 -40 251 -104s104 -153 104 -251c0 -39 -4 -76 -14 -112c-13 -46 -40 -122 -100 -122
c-42 0 -72 33 -72 74zM555 172v84c0 19 -4 37 -11 55c-44 111 -194 140 -287 66c-55 -44 -81 -107 -79 -169c4 -141 150 -244 282 -179c37 18 69 49 84 88c7 18 11 36 11 55z" />
    <glyph glyph-name="A" unicode="A" horiz-adv-x="697" 
d="M546 209l-199 396l-200 -396h399zM562 179h-430l-89 -177c-10 -19 -39 -4 -29 16l318 627c3 6 9 9 15 9s11 -3 14 -9l319 -627c10 -20 -19 -35 -29 -16z" />
    <glyph glyph-name="bracketleft" unicode="[" horiz-adv-x="271" 
d="M215 662h-99v-740h99c24 0 25 -32 0 -32h-112c-13 0 -23 10 -23 23v760c0 13 10 23 23 23h112c23 0 26 -34 0 -34z" />
    <glyph glyph-name="backslash" unicode="\" horiz-adv-x="355" 
d="M34 646l304 -719c11 -26 -22 -44 -33 -15l-304 721c-13 26 22 40 33 13z" />
    <glyph glyph-name="bracketright" unicode="]" horiz-adv-x="299" 
d="M150 667h-100c-23 0 -24 32 0 32h113c12 0 23 -10 23 -23v-764c0 -13 -11 -23 -23 -23h-113c-23 0 -24 33 0 33h100v745z" />
    <glyph glyph-name="asciicircum" unicode="^" horiz-adv-x="385" 
d="M200 679l109 -136c13 -19 -12 -37 -25 -18l-105 129l-102 -130c-16 -21 -43 -2 -27 19l109 136c12 15 29 15 41 0z" />
    <glyph glyph-name="underscore" unicode="_" horiz-adv-x="434" 
d="M392 -64h-372c-26 0 -25 33 0 33h372c26 0 25 -33 0 -33z" />
    <glyph glyph-name="grave" unicode="`" horiz-adv-x="327" 
d="M134 727l77 -96c9 -13 -9 -33 -24 -16l-82 90c-15 21 15 39 29 22z" />
    <glyph glyph-name="braceleft" unicode="{" horiz-adv-x="261" 
d="M104 258c7 -5 13 -10 18 -17c32 -40 28 -103 28 -151c-1 -29 -3 -58 0 -89c3 -20 6 -45 21 -61c15 -15 34 -19 53 -19c24 0 24 -37 0 -37c-31 0 -61 7 -82 32c-33 39 -29 107 -29 156c0 15 1 28 1 43c0 33 2 83 -23 108c-12 13 -29 17 -46 17c-24 0 -24 36 0 36
c17 1 34 5 46 17c25 25 23 75 23 108c0 15 -1 29 -1 44c-3 86 -4 199 111 199c24 0 24 -32 0 -32c-19 0 -38 -8 -53 -23c-34 -38 -23 -111 -21 -163c0 -54 5 -133 -46 -168z" />
    <glyph glyph-name="bar" unicode="|" horiz-adv-x="154" 
d="M58 -86v714c0 11 8 18 17 18c11 0 18 -7 18 -18v-714c0 -11 -7 -17 -18 -17c-9 0 -17 6 -17 17z" />
    <glyph glyph-name="braceright" unicode="}" horiz-adv-x="270" 
d="M162 263c-50 34 -49 111 -46 165c1 42 13 127 -21 165c-15 15 -34 19 -53 19c-24 0 -24 36 0 36c114 0 114 -115 111 -201c-1 -15 -1 -29 -2 -44c0 -31 0 -82 23 -105c13 -12 30 -16 47 -17c24 0 24 -36 0 -36c-19 0 -34 -4 -47 -17c-23 -23 -23 -77 -23 -108
c1 -15 1 -31 2 -46c0 -49 4 -117 -29 -156c-21 -25 -51 -32 -82 -32c-24 0 -24 37 0 37c19 0 38 4 53 19c15 16 18 41 21 61c3 31 1 60 0 89c0 48 -4 114 28 154c5 7 11 12 18 17z" />
    <glyph glyph-name="asciitilde" unicode="~" horiz-adv-x="516" 
d="M26 240c23 132 131 112 237 56c29 -15 60 -27 91 -35c56 -15 92 3 103 63c5 20 35 17 32 -5c-11 -80 -67 -109 -142 -90c-35 9 -65 22 -97 37c-63 29 -175 89 -191 -32c-2 -23 -36 -18 -33 6z" />
    <glyph glyph-name="Euro" unicode="&#x20ac;" horiz-adv-x="676" 
d="M10 273h56c-4 37 -4 70 2 102h-58c-20 0 -20 28 0 28h61c29 121 120 219 251 240c102 15 214 -14 284 -90c16 -19 -8 -39 -24 -22c-63 70 -164 92 -255 79c-115 -18 -195 -102 -223 -207h174c23 0 23 -28 0 -28h-181c-5 -35 -6 -68 -1 -102h182c22 0 22 -28 0 -28h-175
c45 -174 240 -278 418 -189c36 18 69 45 94 77c14 20 40 0 26 -19c-27 -38 -63 -67 -106 -88c-200 -100 -422 17 -466 219h-59c-19 0 -19 28 0 28z" />
    <glyph glyph-name="ellipsis" unicode="&#x2026;" horiz-adv-x="376" 
d="M69 51c15 0 25 -10 25 -25s-10 -26 -25 -26s-26 11 -26 26s11 25 26 25zM309 51c15 0 26 -10 26 -25s-11 -26 -26 -26s-25 11 -25 26s10 25 25 25zM189 51c15 0 25 -10 25 -25s-10 -26 -25 -26s-26 11 -26 26s11 25 26 25z" />
    <glyph glyph-name="perthousand" unicode="&#x2030;" horiz-adv-x="917" 
d="M546 636l-449 -635c-12 -16 -40 0 -26 20l449 635c13 18 39 -1 26 -20zM179 646c71 0 129 -59 129 -138c0 -69 -49 -142 -129 -142c-72 0 -129 57 -129 142c0 70 50 138 129 138zM277 508c0 53 -38 106 -98 106c-56 0 -100 -49 -100 -106c0 -52 37 -110 100 -110
c58 0 96 45 98 110zM447 277c71 0 129 -59 129 -138c0 -69 -49 -142 -129 -142c-72 0 -129 57 -129 142c0 70 50 138 129 138zM545 139c0 53 -38 106 -98 106c-56 0 -100 -49 -100 -106c0 -52 37 -110 100 -110c58 0 96 45 98 110zM749 277c71 0 129 -59 129 -138
c0 -69 -49 -142 -129 -142c-72 0 -129 57 -129 142c0 70 50 138 129 138zM847 139c0 53 -38 106 -98 106c-56 0 -100 -49 -100 -106c0 -52 37 -110 100 -110c58 0 96 45 98 110z" />
    <glyph glyph-name="guilsinglleft" unicode="&#x2039;" horiz-adv-x="316" 
d="M263 432l-179 -173l178 -172c5 -5 7 -9 7 -14c0 -9 -7 -17 -18 -17c-5 0 -9 2 -13 6l-186 180c-13 12 -10 25 2 37l186 179c3 3 7 5 11 5c11 0 18 -7 18 -18c0 -3 -2 -8 -6 -13z" />
    <glyph glyph-name="quoteleft" unicode="&#x2018;" horiz-adv-x="145" 
d="M40 540l48 102c10 20 39 5 29 -14l-45 -101c-13 -30 -45 -10 -32 13z" />
    <glyph glyph-name="quoteright" unicode="&#x2019;" horiz-adv-x="116" 
d="M99 618l-48 -102c-10 -20 -39 -5 -29 14l45 101c13 30 45 10 32 -13z" />
    <glyph glyph-name="quotedblleft" unicode="&#x201c;" horiz-adv-x="230" 
d="M129 534l48 102c10 20 39 5 29 -14l-45 -101c-13 -30 -45 -10 -32 13zM31 534l48 102c10 20 39 5 29 -14l-45 -101c-13 -30 -45 -10 -32 13z" />
    <glyph glyph-name="quotedblright" unicode="&#x201d;" horiz-adv-x="224" 
d="M105 618l-48 -102c-10 -20 -39 -5 -29 14l45 101c13 30 45 10 32 -13zM203 618l-48 -102c-10 -20 -39 -5 -29 14l45 101c13 30 45 10 32 -13z" />
    <glyph glyph-name="bullet" unicode="&#x2022;" horiz-adv-x="234" 
d="M109 370c40 0 70 -30 70 -70c0 -37 -30 -68 -70 -68c-37 0 -68 31 -68 68c0 40 31 70 68 70z" />
    <glyph glyph-name="endash" unicode="&#x2013;" horiz-adv-x="406" 
d="M340 284h-276c-26 0 -24 35 0 35h276c24 0 24 -35 0 -35z" />
    <glyph glyph-name="emdash" unicode="&#x2014;" horiz-adv-x="540" 
d="M479 285h-415c-26 0 -24 34 0 34h415c24 0 24 -34 0 -34z" />
    <glyph glyph-name="guilsinglright" unicode="&#x203a;" horiz-adv-x="302" 
d="M229 251l-179 173c-4 5 -6 10 -6 13c0 11 7 18 18 18c4 0 8 -2 11 -5l186 -179c12 -12 15 -25 2 -37l-186 -180c-4 -4 -8 -6 -13 -6c-11 0 -18 8 -18 17c0 5 2 9 7 14z" />
    <glyph glyph-name="copyright" unicode="&#xa9;" horiz-adv-x="457" 
d="M224 513c108 0 194 -87 194 -194s-86 -194 -194 -194c-107 0 -194 87 -194 194s87 194 194 194zM224 478c-87 0 -159 -71 -159 -159s72 -159 159 -159c88 0 159 71 159 159s-71 159 -159 159zM285 380c-28 31 -77 32 -109 8c-36 -31 -41 -93 -9 -128c32 -38 99 -34 128 5
c4 4 8 6 12 7c9 1 19 -4 20 -15c1 -5 0 -9 -3 -13c-43 -60 -135 -60 -183 -7c-29 32 -37 79 -25 120c7 23 20 43 38 58c9 8 20 14 31 18c43 16 95 6 126 -29c2 -2 4 -5 5 -9c1 -11 -4 -18 -15 -21c-6 -1 -11 1 -16 6z" />
    <glyph glyph-name="guillemotleft" unicode="&#xab;" horiz-adv-x="404" 
d="M226 427l-172 -167l172 -166c4 -4 6 -8 6 -13c0 -9 -6 -17 -17 -17c-5 0 -9 2 -12 6l-180 173c-13 12 -10 25 2 36l179 173c3 3 7 5 11 5c9 0 17 -8 17 -17c0 -5 -2 -9 -6 -13zM210 260l172 -166c4 -4 6 -8 6 -13c0 -9 -8 -17 -17 -17c-5 0 -9 2 -12 6l-180 173
c-13 12 -10 25 2 36l179 173c3 3 7 5 11 5c9 0 17 -8 17 -17c0 -5 -2 -9 -6 -13z" />
    <glyph glyph-name="registered" unicode="&#xae;" horiz-adv-x="421" 
d="M209 507c108 0 194 -87 194 -194s-86 -194 -194 -194c-107 0 -194 87 -194 194s87 194 194 194zM209 472c-87 0 -159 -71 -159 -159s72 -159 159 -159c88 0 159 71 159 159s-71 159 -159 159zM185 385c24 29 54 47 93 47c9 0 18 -7 18 -18c0 -9 -7 -17 -18 -17
c-58 0 -93 -50 -93 -106v-92c0 -11 -7 -18 -18 -18s-17 7 -17 18v212c-1 11 6 18 17 18s18 -7 18 -18v-26z" />
    <glyph glyph-name="degree" unicode="&#xb0;" horiz-adv-x="195" 
d="M90 672c40 0 72 -31 72 -71c0 -41 -32 -72 -72 -72c-41 0 -73 31 -73 72c0 40 32 71 73 71zM90 643c-24 0 -44 -19 -44 -42c0 -24 20 -43 44 -43c23 0 43 19 43 43c0 23 -20 42 -43 42z" />
    <glyph glyph-name="plusminus" unicode="&#xb1;" horiz-adv-x="474" 
d="M253 499v-164h164c19 0 23 -31 0 -31h-164v-166c0 -9 -8 -16 -17 -16c-11 0 -16 5 -16 16v166h-164c-22 0 -21 31 0 31h164v164c0 11 5 16 16 16c9 0 17 -7 17 -16zM417 0h-361c-9 0 -16 8 -16 16c0 9 7 17 16 17h361c9 0 16 -8 16 -17c0 -8 -7 -16 -16 -16z" />
    <glyph glyph-name="paragraph" unicode="&#xb6;" horiz-adv-x="481" 
d="M441 602h-51v-695c0 -9 -6 -17 -17 -17s-18 8 -18 17v695h-179v-695c0 -9 -6 -17 -17 -17s-18 8 -18 17v446c-67 11 -117 71 -117 141c0 77 66 143 143 143h274c11 0 18 -7 18 -18s-7 -17 -18 -17z" />
    <glyph glyph-name="middot" unicode="&#xb7;" horiz-adv-x="122" 
d="M59 329c15 0 25 -11 25 -26s-10 -25 -25 -25s-26 10 -26 25s11 26 26 26z" />
    <glyph glyph-name="guillemotright" unicode="&#xbb;" horiz-adv-x="421" 
d="M362 258l-173 167c-3 5 -5 9 -5 13c0 9 7 17 16 17c5 0 9 -2 12 -5l179 -173c13 -12 14 -24 2 -36l-180 -173c-4 -4 -8 -6 -13 -6c-9 0 -16 8 -16 17c0 5 2 9 6 13zM34 92l172 166l-173 167c-3 5 -5 9 -5 13c0 9 7 17 16 17c5 0 9 -2 12 -5l179 -173c13 -12 14 -24 2 -36
l-180 -173c-4 -4 -8 -6 -13 -6c-9 0 -16 8 -16 17c0 5 2 9 6 13z" />
    <glyph glyph-name="space" unicode=" " horiz-adv-x="273" 
 />
    <glyph glyph-name="space" unicode="&#xa0;" horiz-adv-x="273" 
 />
    <glyph glyph-name="a" unicode="a" 
d="M201 497c33 14 68 20 106 19c43 -1 84 -11 120 -32c33 -22 58 -53 73 -93v101c0 11 6 18 17 18s18 -7 18 -18v-479c0 -11 -7 -18 -18 -18s-17 7 -17 18v101c-15 -40 -40 -71 -73 -93c-63 -37 -143 -46 -219 -15c-108 44 -162 143 -159 260c3 101 57 194 152 231zM396 44
c66 32 100 92 104 165v87c-4 73 -38 133 -104 165c-29 13 -58 19 -89 20c-85 1 -171 -44 -205 -127c-11 -26 -17 -58 -18 -87c-3 -77 23 -148 88 -200c35 -27 78 -42 123 -45c35 -1 68 7 101 22z" />
    <glyph glyph-name="b" unicode="b" horiz-adv-x="618" 
d="M415 497c95 -37 149 -130 152 -231c3 -117 -51 -216 -159 -260c-76 -31 -156 -22 -219 15c-33 22 -58 49 -73 89v-99c0 -11 -6 -18 -17 -18s-18 7 -18 18v625c0 11 7 18 18 18s17 -7 17 -18v-240c33 78 110 118 193 120c38 1 73 -5 106 -19zM220 44
c33 -15 66 -23 101 -22c45 3 88 18 123 45c65 52 91 123 88 200c-1 29 -7 61 -18 87c-34 83 -120 128 -205 127c-112 -4 -186 -82 -193 -185v-87c4 -73 38 -133 104 -165z" />
    <glyph glyph-name="c" unicode="c" horiz-adv-x="531" 
d="M460 408c-60 71 -138 87 -223 68c-149 -40 -202 -252 -103 -372c81 -100 254 -105 335 0c3 3 7 6 12 7c11 1 17 -6 20 -15c0 -6 -1 -11 -4 -14c-96 -120 -294 -117 -390 0c-43 52 -62 115 -58 190c7 112 71 206 179 234c106 22 188 7 259 -75c3 -4 4 -7 4 -10
c1 -9 -4 -18 -15 -19c-7 -1 -12 1 -16 6z" />
    <glyph glyph-name="d" unicode="d" horiz-adv-x="617" 
d="M203 497c33 14 68 20 106 19c43 -1 84 -11 120 -32c33 -22 58 -49 73 -89v241c0 11 6 18 17 18s18 -7 18 -18v-623c0 -11 -7 -18 -18 -18s-17 7 -17 18v99c-15 -40 -40 -69 -73 -91c-63 -37 -143 -46 -219 -15c-108 44 -162 143 -159 260c3 101 57 194 152 231zM398 44
c66 32 100 92 104 165v87c-4 73 -38 133 -104 165c-29 13 -58 19 -89 20c-85 1 -171 -44 -205 -127c-11 -26 -17 -58 -18 -87c-3 -77 23 -148 88 -200c35 -27 78 -42 123 -45c35 -1 68 7 101 22z" />
    <glyph glyph-name="e" unicode="e" horiz-adv-x="619" 
d="M384 508c112 -30 182 -123 184 -252c1 -14 -4 -33 -31 -33h-450c5 -43 21 -84 51 -119c42 -50 105 -76 170 -77c55 -1 111 16 157 51c18 14 42 -6 23 -25c-45 -42 -111 -61 -177 -60c-78 1 -155 30 -201 89c-42 54 -64 116 -60 191c5 108 75 205 183 235
c46 12 101 13 151 0zM245 475c-100 -27 -158 -119 -159 -219h448c-2 110 -61 193 -161 220c-40 10 -87 10 -128 -1z" />
    <glyph glyph-name="f" unicode="f" horiz-adv-x="350" 
d="M274 467h-125v-454c0 -26 -35 -27 -35 0v454h-80c-22 0 -21 29 1 29h79v6c0 85 33 159 139 159c37 0 68 -8 93 -27c19 -13 0 -39 -19 -24c-17 15 -49 19 -73 19c-86 0 -105 -54 -105 -127v-6h125c23 0 23 -29 0 -29z" />
    <glyph glyph-name="g" unicode="g" horiz-adv-x="618" 
d="M399 461c-33 15 -66 23 -101 22c-45 -3 -88 -18 -123 -45c-65 -52 -91 -123 -88 -200c1 -29 7 -61 18 -87c34 -83 120 -128 205 -127c112 4 186 82 193 185v87c-4 73 -38 133 -104 165zM538 494v-478c0 -144 -108 -219 -244 -219c-75 0 -136 15 -190 66
c-19 19 5 39 23 25c58 -44 100 -57 167 -57c110 0 209 59 209 185v93c-33 -78 -110 -118 -193 -120c-38 -1 -73 5 -106 19c-95 37 -149 130 -152 231c-3 117 51 216 159 260c76 31 156 22 219 -15c33 -22 58 -49 73 -89v99c0 11 6 18 17 18s18 -7 18 -18z" />
    <glyph glyph-name="h" unicode="h" horiz-adv-x="645" 
d="M531 12v285c0 130 -121 212 -239 181c-103 -26 -172 -123 -175 -228v-238c0 -11 -6 -18 -17 -18s-18 7 -18 18v625c0 24 35 22 35 -1v-281c23 84 92 137 164 156c133 34 285 -45 285 -214v-285c0 -11 -6 -18 -17 -18s-18 7 -18 18z" />
    <glyph glyph-name="l" unicode="l" horiz-adv-x="196" 
d="M117 636v-628c0 -9 -8 -17 -17 -17c-11 0 -18 8 -18 17v628c0 9 7 17 18 17c9 0 17 -8 17 -17z" />
    <glyph glyph-name="m" unicode="m" horiz-adv-x="1094" 
d="M980 11v286c-2 123 -119 204 -242 173c-102 -26 -172 -123 -172 -228v-231c0 -11 -7 -18 -18 -18s-18 7 -18 18v268c0 67 -28 134 -85 169c-45 27 -103 35 -154 22c-102 -26 -174 -123 -174 -228v-231c0 -24 -35 -24 -35 0v483c0 9 8 17 17 17c11 0 18 -8 18 -17v-148
c25 89 94 139 165 158c60 15 128 6 181 -26c44 -27 82 -67 94 -147c28 104 93 153 172 173c127 32 286 -46 286 -204v-289c0 -11 -7 -18 -18 -18s-17 7 -17 18z" />
    <glyph glyph-name="n" unicode="n" horiz-adv-x="645" 
d="M531 11v286c0 130 -121 212 -239 181c-103 -26 -172 -123 -175 -228v-239c0 -11 -6 -18 -17 -18s-18 7 -18 18v483c0 9 7 17 18 17s17 -7 17 -18v-138c23 84 92 137 164 156c133 34 285 -45 285 -214v-286c0 -11 -6 -18 -17 -18s-18 7 -18 18z" />
    <glyph glyph-name="o" unicode="o" 
d="M308 -7c-79 0 -150 31 -199 89c-44 53 -64 116 -60 191c9 107 75 205 183 235c46 12 101 13 151 0c108 -30 175 -128 184 -235c4 -75 -16 -138 -60 -191c-49 -58 -120 -89 -199 -89zM372 474c-40 10 -87 11 -128 0c-155 -41 -209 -248 -107 -370c41 -49 104 -77 171 -77
c68 0 132 28 173 77c102 122 46 329 -109 370z" />
    <glyph glyph-name="p" unicode="p" horiz-adv-x="620" 
d="M416 8c-33 -14 -68 -20 -106 -19c-83 2 -160 42 -193 120v-289c0 -11 -6 -18 -17 -18s-18 7 -18 18v674c0 11 7 18 18 18s17 -7 17 -18v-99c15 40 40 67 73 89c63 37 143 46 219 15c108 -44 162 -143 159 -260c-3 -101 -57 -194 -152 -231zM221 461
c-66 -32 -100 -92 -104 -165v-87c7 -103 81 -181 193 -185c85 -1 171 44 205 127c11 26 17 58 18 87c3 77 -23 148 -88 200c-35 27 -78 42 -123 45c-35 1 -68 -7 -101 -22z" />
    <glyph glyph-name="q" unicode="q" horiz-adv-x="621" 
d="M205 8c-95 37 -149 130 -152 231c-3 117 51 216 159 260c76 31 156 22 219 -15c33 -22 58 -49 73 -89v99c0 11 6 18 17 18s18 -7 18 -18v-674c0 -11 -7 -18 -18 -18s-17 7 -17 18v289c-33 -78 -110 -118 -193 -120c-38 -1 -73 5 -106 19zM400 461c-33 15 -66 23 -101 22
c-45 -3 -88 -18 -123 -45c-65 -52 -91 -123 -88 -200c1 -29 7 -61 18 -87c34 -83 120 -128 205 -127c112 4 186 82 193 185v87c-4 73 -38 133 -104 165z" />
    <glyph glyph-name="r" unicode="r" horiz-adv-x="337" 
d="M118 494v-111c22 76 98 128 181 128c11 0 18 -6 18 -17s-7 -17 -18 -17c-128 0 -181 -109 -181 -230v-231c0 -11 -8 -18 -17 -18c-11 0 -18 7 -18 18v478c0 9 7 17 18 17c9 0 17 -8 17 -17z" />
    <glyph glyph-name="s" unicode="s" horiz-adv-x="532" 
d="M38 110c-8 26 29 33 32 6c13 -62 108 -91 196 -91c60 0 188 25 188 116c0 176 -410 15 -410 231c0 96 119 146 212 146c76 0 182 -13 216 -102c7 -28 -26 -34 -33 -13c-28 75 -128 82 -183 82c-72 0 -178 -31 -178 -113c0 -169 411 -13 411 -231
c0 -120 -142 -148 -223 -148c-82 0 -209 20 -228 117z" />
    <glyph glyph-name="t" unicode="t" horiz-adv-x="385" 
d="M163 509h139c26 0 26 -32 0 -32h-139v-307c0 -72 12 -146 105 -146c19 0 46 7 60 15c21 10 40 -16 13 -30c-25 -13 -48 -17 -73 -17c-112 0 -139 85 -139 178v307h-93c-27 0 -27 32 0 32h93v128c0 22 34 21 34 0v-128z" />
    <glyph glyph-name="u" unicode="u" horiz-adv-x="646" 
d="M115 496v-287c0 -126 121 -211 239 -180c103 26 172 123 175 228v239c0 11 6 18 17 18s18 -7 18 -18v-483c0 -9 -7 -17 -18 -17s-17 7 -17 18v144c-23 -84 -94 -144 -166 -163c-129 -28 -283 48 -283 214v287c0 11 6 18 17 18s18 -7 18 -18z" />
    <glyph glyph-name="v" unicode="v" horiz-adv-x="555" 
d="M266 5l-247 487c-9 21 24 35 34 12l227 -450l225 447c8 21 40 13 29 -12l-239 -483c-6 -12 -21 -13 -29 -1z" />
    <glyph glyph-name="w" unicode="w" horiz-adv-x="940" 
d="M30 493c-8 26 27 33 34 14l199 -453l192 393c7 15 27 15 34 0l195 -394l194 449c5 19 43 14 32 -13l-211 -484c-6 -12 -26 -12 -32 0l-193 400l-197 -400c-6 -12 -27 -12 -34 0c-84 206 -126 289 -213 488z" />
    <glyph glyph-name="x" unicode="x" horiz-adv-x="520" 
d="M228 257l-191 225c-20 19 6 44 25 25l190 -228l204 230c13 19 42 -2 27 -22l-205 -230l213 -235c17 -22 -11 -42 -28 -21l-211 233l-196 -232c-20 -21 -46 3 -25 25z" />
    <glyph glyph-name="y" unicode="y" horiz-adv-x="559" 
d="M260 18l-239 471c-5 20 21 33 34 12l227 -449l222 449c10 25 46 10 34 -12l-339 -670c-13 -27 -41 -14 -32 11z" />
    <glyph glyph-name="z" unicode="z" horiz-adv-x="529" 
d="M482 474l-398 -442l391 2c23 0 22 -34 0 -34h-422c-21 0 -26 20 -13 32l393 443l-367 -1c-26 0 -25 35 0 35h401c19 0 28 -21 15 -35z" />
    <glyph glyph-name="tilde" unicode="&#x2dc;" horiz-adv-x="364" 
d="M59 660c63 98 143 -9 199 -2c13 1 24 10 33 29c6 17 36 9 22 -14c-46 -94 -122 -9 -182 -3c-20 2 -37 -1 -51 -27c-9 -14 -35 -3 -21 17z" />
    <glyph glyph-name="dieresis" unicode="&#xa8;" horiz-adv-x="350" 
d="M252 724c13 0 27 -11 27 -26c0 -19 -14 -27 -27 -27s-26 11 -26 27c0 15 13 26 26 26zM84 724c12 0 26 -11 26 -26c0 -19 -14 -27 -26 -27c-14 0 -27 11 -27 27c0 15 13 26 27 26z" />
    <glyph glyph-name="circumflex" unicode="&#x2c6;" horiz-adv-x="333" 
d="M235 590l-82 73l-80 -72c-18 -20 -41 2 -19 20l81 77c14 11 24 11 36 0l86 -78c18 -16 -1 -37 -22 -20z" />
    <glyph glyph-name="acute" unicode="&#xb4;" horiz-adv-x="239" 
d="M78 587l77 96c14 17 44 -1 29 -22l-82 -90c-15 -17 -33 3 -24 16z" />
    <glyph glyph-name="cedilla" unicode="&#xb8;" horiz-adv-x="304" 
d="M183 23l-16 -45c57 6 99 -22 99 -66c0 -51 -49 -74 -94 -74c-42 0 -76 14 -100 53c-11 17 14 33 25 16c17 -27 41 -38 74 -38s63 11 63 43c0 36 -49 49 -85 39l-13 16l18 57z" />
    <glyph glyph-name="cent" unicode="&#xa2;" horiz-adv-x="510" 
d="M260 -86v80c-67 6 -131 35 -174 88c-43 52 -62 115 -58 190c8 107 74 204 179 234c17 4 35 7 53 8v74c0 23 31 24 31 0v-74c65 -5 127 -33 170 -83c3 -4 4 -7 4 -10c1 -9 -4 -18 -15 -19c-7 -1 -12 1 -16 6c-36 43 -89 66 -143 70v-451c60 2 118 27 157 77c3 3 7 6 12 7
c11 1 17 -6 20 -15c0 -6 -1 -11 -4 -14c-46 -58 -115 -86 -185 -88v-80c0 -22 -31 -23 -31 0zM113 104c36 -45 90 -71 147 -76v450c-14 -1 -28 -3 -42 -6c-149 -40 -204 -248 -105 -368z" />
    <glyph glyph-name="divide" unicode="&#xf7;" horiz-adv-x="518" 
d="M432 293h-366c-9 0 -17 7 -17 16s8 17 17 17h366c9 0 16 -8 16 -17c0 -11 -5 -16 -16 -16zM244 212c15 0 26 -11 26 -26s-11 -26 -26 -26s-25 11 -25 26s10 26 25 26zM244 469c15 0 26 -11 26 -26s-11 -25 -26 -25s-25 10 -25 25s10 26 25 26z" />
    <glyph glyph-name="eth" unicode="&#xf0;" horiz-adv-x="580" 
d="M415 651l41 45c16 18 40 -2 24 -19l-41 -44c44 -38 70 -88 77 -148c7 -47 4 -89 4 -136v-145c-1 -69 -34 -135 -99 -174c-77 -48 -190 -43 -264 7c-106 69 -148 214 -98 330c75 177 335 191 429 24c0 27 0 64 -4 91c-7 51 -29 94 -67 126l-52 -57c-16 -17 -41 3 -24 20
l51 56l-4 3c-87 50 -204 36 -276 -36c-19 -17 -41 5 -24 24c43 43 99 66 159 73c59 5 118 -8 167 -39c0 0 0 -1 1 -1zM91 353c-19 -47 -21 -103 -9 -152c15 -56 46 -103 93 -134c69 -47 158 -51 230 -8c52 30 81 88 83 145v108c-38 191 -324 224 -397 41z" />
    <glyph glyph-name="florin" unicode="&#x192;" horiz-adv-x="438" 
d="M392 469h-125l-64 -456v-2l-1 -6c-12 -85 -57 -172 -163 -172c-37 -1 -55 10 -68 24c-14 16 6 39 23 24c18 -15 25 -18 49 -18c86 0 114 69 124 142l65 464h-80c-22 0 -17 29 5 29h79l1 6c12 85 57 169 163 169c38 1 67 -8 89 -27c17 -13 -5 -39 -22 -24
c-15 15 -47 18 -72 18c-86 0 -112 -63 -123 -136l-1 -6h125c23 0 19 -29 -4 -29z" />
    <glyph glyph-name="k" unicode="k" horiz-adv-x="493" 
d="M118 235l306 273c21 18 45 -5 26 -24l-217 -192l235 -268c14 -22 -12 -38 -25 -23l-237 269l-88 -77v-181c0 -24 -35 -23 -35 0v626c0 25 35 23 35 0v-403z" />
    <glyph glyph-name="exclam" unicode="!" horiz-adv-x="183" 
d="M92 627v-466c0 -22 -35 -23 -35 0v466c0 20 35 20 35 0zM92 12v58c0 22 -35 22 -35 0v-58c0 -22 35 -22 35 0z" />
    <glyph glyph-name="i" unicode="i" horiz-adv-x="197" 
d="M82 8v486c0 24 35 24 35 1v-487c0 -24 -35 -24 -35 0zM118 633v-56c0 -22 -37 -22 -37 0v56c0 22 37 22 37 0z" />
    <glyph glyph-name="j" unicode="j" horiz-adv-x="209" 
d="M28 -191c-22 -8 -34 25 -12 33c91 51 76 110 76 205v440c0 9 7 17 18 17c9 0 17 -8 17 -17v-440c0 -97 10 -182 -99 -238zM128 633v-56c0 -22 -37 -22 -37 0v56c0 22 37 22 37 0z" />
    <glyph glyph-name="B" unicode="B" horiz-adv-x="687" 
d="M640 181c0 -142 -131 -181 -254 -181h-276c-10 0 -18 8 -18 18v600c0 10 8 18 18 18h242c85 0 240 -29 240 -164c0 -64 -36 -111 -100 -131c84 -17 148 -67 148 -160zM352 606h-226v-256h239c103 0 192 29 192 122c0 108 -137 133 -205 134zM365 318h-239v-288h260
c105 0 219 28 219 151c0 98 -83 137 -187 137h-53z" />
    <glyph glyph-name="C" unicode="C" horiz-adv-x="667" 
d="M632 113c-27 -38 -63 -67 -106 -88c-226 -114 -481 53 -473 303c4 169 112 293 269 318c118 15 212 -4 298 -96c15 -18 -9 -36 -24 -20c-81 88 -160 96 -269 83c-141 -22 -238 -124 -242 -286c-6 -221 223 -375 427 -272c36 18 69 45 94 77c14 20 40 0 26 -19z" />
    <glyph glyph-name="D" unicode="D" horiz-adv-x="657" 
d="M86 606v-575h226c348 0 348 575 0 575h-226zM312 0h-232c-15 0 -27 12 -27 26v585c0 14 12 25 27 25h232c392 0 392 -636 0 -636z" />
    <glyph glyph-name="E" unicode="E" horiz-adv-x="639" 
d="M125 300v-268h442c21 0 21 -32 0 -32h-448c-16 0 -27 12 -27 27v583c0 14 11 26 27 26h449c20 0 20 -30 -1 -30h-442v-276h422c21 0 21 -30 0 -30h-422z" />
    <glyph glyph-name="F" unicode="F" horiz-adv-x="617" 
d="M94 9v601c0 14 11 26 25 26h437c21 0 22 -30 0 -30h-430v-303h410c21 0 21 -29 0 -29h-410v-264c0 -22 -32 -22 -32 -1z" />
    <glyph glyph-name="G" unicode="G" horiz-adv-x="705" 
d="M616 110c-59 -78 -157 -121 -253 -120c-171 2 -319 144 -314 333c5 153 110 296 265 321c99 15 218 -14 286 -89c16 -19 -8 -40 -24 -23c-61 68 -168 93 -257 79c-139 -22 -233 -152 -238 -289c-4 -167 129 -296 283 -299c87 -1 179 37 229 110v167h-213
c-19 0 -19 30 0 30h225c14 0 18 -8 18 -19v-178c0 -8 -1 -17 -7 -23z" />
    <glyph glyph-name="H" unicode="H" horiz-adv-x="683" 
d="M123 618v-298h434v298c0 25 34 25 34 0v-602c0 -23 -34 -23 -34 0v274l-434 1v-275c0 -23 -33 -23 -33 0v602c0 25 33 25 33 0z" />
    <glyph glyph-name="I" unicode="I" horiz-adv-x="220" 
d="M92 17v607c0 25 36 25 36 0v-607c0 -23 -36 -23 -36 0z" />
    <glyph glyph-name="J" unicode="J" horiz-adv-x="579" 
d="M458 215v389h-226c-23 0 -23 33 0 33h240c8 0 15 -8 16 -17v-405c2 -177 -221 -290 -379 -194c-62 38 -100 103 -103 170c0 19 33 25 34 0c3 -56 35 -112 85 -142c139 -83 335 16 333 166z" />
    <glyph glyph-name="K" unicode="K" horiz-adv-x="627" 
d="M125 252l429 387c17 15 42 -8 26 -23l-298 -264l315 -329c18 -16 -9 -38 -24 -22l-315 330l-133 -118v-201c0 -9 -7 -16 -17 -16c-9 0 -17 7 -17 16v614c0 9 8 17 17 17c10 0 17 -8 17 -17v-374z" />
    <glyph glyph-name="L" unicode="L" horiz-adv-x="576" 
d="M547 0h-436c-13 0 -18 7 -18 19v605c0 25 34 25 34 0v-593h420c23 0 22 -31 0 -31z" />
    <glyph glyph-name="M" unicode="M" horiz-adv-x="802" 
d="M402 196l276 433c11 17 33 12 33 -8v-605c0 -23 -34 -24 -34 0v551l-258 -405c-8 -15 -27 -15 -35 0l-258 403v-549c0 -24 -34 -23 -34 0v605c0 20 22 25 32 8z" />
    <glyph glyph-name="N" unicode="N" horiz-adv-x="687" 
d="M560 62v560c0 25 34 25 34 0v-602c0 -24 -22 -24 -35 -8l-435 567v-561c0 -24 -33 -24 -33 0v601c0 25 21 28 35 10z" />
    <glyph glyph-name="O" unicode="O" horiz-adv-x="745" 
d="M372 -12c-173 0 -323 148 -318 341c5 155 101 292 258 317c35 5 73 5 108 0c158 -25 266 -162 270 -317c6 -193 -144 -341 -318 -341zM317 614c-141 -22 -225 -146 -229 -286c-5 -172 129 -309 284 -309c156 0 290 137 285 309c-4 140 -100 264 -242 286
c-32 5 -66 5 -98 0z" />
    <glyph glyph-name="P" unicode="P" horiz-adv-x="640" 
d="M125 606v-377h212c156 0 222 91 220 181c-1 98 -83 196 -220 196h-212zM337 198h-212v-184c0 -22 -33 -22 -33 -1v607c0 10 8 17 17 17h227c169 0 255 -114 255 -227c0 -116 -83 -212 -254 -212z" />
    <glyph glyph-name="Q" unicode="Q" horiz-adv-x="753" 
d="M656 -2l-72 75c-56 -54 -133 -85 -213 -85c-174 0 -324 148 -318 341c5 155 100 292 258 317c35 5 73 5 108 0c158 -25 265 -162 269 -317c3 -91 -29 -173 -82 -233l72 -75c16 -17 -5 -39 -22 -23zM510 195l73 -75c46 55 74 128 72 208c-4 140 -100 264 -242 286
c-31 5 -65 5 -97 0c-141 -22 -226 -146 -230 -286c-5 -172 129 -309 285 -309c72 0 139 29 191 79l-74 76c-16 16 6 39 22 21z" />
    <glyph glyph-name="R" unicode="R" horiz-adv-x="657" 
d="M125 606v-342h237c155 0 222 74 220 165c-1 98 -83 177 -220 177h-237zM359 235h-234v-221c0 -22 -33 -22 -33 -1v607c0 10 7 17 17 17h252c169 0 255 -95 255 -208c0 -108 -72 -184 -218 -195l207 -213c16 -17 -5 -39 -21 -23z" />
    <glyph glyph-name="S" unicode="S" horiz-adv-x="646" 
d="M34 134c-6 20 24 29 30 8c24 -83 137 -114 212 -121c15 -2 32 -3 47 -3c99 0 252 34 252 158c0 230 -528 23 -528 293c0 99 97 148 181 166c27 5 56 8 84 8c96 0 234 -22 272 -126c10 -24 -21 -31 -28 -11c-34 94 -158 107 -243 107c-8 0 -16 -1 -24 -1
c-72 -5 -176 -34 -202 -110c-5 -10 -7 -23 -7 -34c0 -229 528 -29 528 -291c0 -147 -164 -187 -285 -187c-102 0 -257 28 -289 144z" />
    <glyph glyph-name="T" unicode="T" horiz-adv-x="589" 
d="M16 637h551c24 0 24 -30 0 -30h-259l1 -592c0 -13 -10 -19 -18 -19s-17 6 -17 19v592h-258c-24 0 -24 30 0 30z" />
    <glyph glyph-name="U" unicode="U" horiz-adv-x="759" 
d="M636 280v348c0 22 33 22 33 1v-349c0 -382 -577 -382 -577 0v349c0 21 32 21 32 -1v-348c0 -338 512 -338 512 0z" />
    <glyph glyph-name="V" unicode="V" horiz-adv-x="684" 
d="M330 2l-310 614c-9 21 24 35 34 12l291 -577l285 576c8 21 43 13 32 -12l-303 -612c-6 -12 -21 -13 -29 -1z" />
    <glyph glyph-name="W" unicode="W" horiz-adv-x="1170" 
d="M59 637l257 -586l252 510c6 13 27 15 35 1l252 -511l256 586c9 21 41 8 32 -13c-91 -207 -183 -412 -273 -620c-6 -14 -25 -13 -32 0l-253 516l-253 -516c-6 -13 -26 -14 -32 0c-90 208 -181 413 -272 620c-9 21 22 34 31 13z" />
    <glyph glyph-name="X" unicode="X" horiz-adv-x="642" 
d="M68 638l253 -291l252 291c15 19 40 -2 25 -21l-257 -292l265 -302c16 -21 -7 -40 -25 -21l-260 301l-261 -301c-17 -19 -43 0 -25 21l264 302l-255 293c-16 18 8 39 24 20z" />
    <glyph glyph-name="Y" unicode="Y" horiz-adv-x="617" 
d="M291 15v244l-269 358c-17 20 7 40 25 20l261 -350l260 350c18 20 43 0 25 -20l-268 -358v-244c0 -13 -9 -19 -17 -19c-9 0 -17 6 -17 19z" />
    <glyph glyph-name="Z" unicode="Z" horiz-adv-x="614" 
d="M585 606l-500 -573h491c10 0 17 -7 17 -16c0 -10 -7 -17 -17 -17h-525c-20 0 -25 16 -14 30l504 575h-475c-9 0 -16 8 -16 17c0 8 7 15 16 15h506c20 0 25 -16 13 -31z" />
    <glyph glyph-name="quotedbl" unicode="&#x22;" horiz-adv-x="254" 
d="M75 624v-115c0 -22 -34 -22 -34 0v115c0 22 34 22 34 0zM167 624v-115c0 -22 -33 -22 -33 0v115c0 22 33 22 33 0z" />
    <glyph glyph-name="quotesinglbase" unicode="&#x201a;" horiz-adv-x="147" 
d="M95 7l-48 -102c-10 -20 -39 -5 -29 14l45 101c13 30 45 10 32 -13z" />
    <glyph glyph-name="quotedblbase" unicode="&#x201e;" horiz-adv-x="242" 
d="M95 7l-48 -102c-10 -20 -39 -5 -29 14l45 101c13 30 45 10 32 -13zM216 7l-48 -102c-10 -20 -39 -5 -29 14l45 101c13 30 45 10 32 -13z" />
    <glyph glyph-name="Scaron" unicode="&#x160;" horiz-adv-x="646" 
d="M34 134c-6 20 24 29 30 8c24 -83 137 -114 212 -121c15 -2 32 -3 47 -3c99 0 252 34 252 158c0 230 -528 23 -528 293c0 99 97 148 181 166c27 5 56 8 84 8c96 0 234 -22 272 -126c10 -24 -21 -31 -28 -11c-34 94 -158 107 -243 107c-8 0 -16 -1 -24 -1
c-72 -5 -176 -34 -202 -110c-5 -10 -7 -23 -7 -34c0 -229 528 -29 528 -291c0 -147 -164 -187 -285 -187c-102 0 -257 28 -289 144zM252 794l82 -73l80 72c18 20 41 -2 19 -20l-81 -77c-14 -11 -24 -11 -36 0l-86 78c-18 16 1 37 22 20z" />
    <glyph glyph-name="OE" unicode="&#x152;" horiz-adv-x="1082" 
d="M610 300v-268h400c21 0 21 -32 0 -32h-406c-16 0 -27 12 -27 27v38c-56 -49 -129 -77 -205 -77c-173 0 -323 148 -318 341c5 155 101 292 258 317c35 5 73 5 108 0c60 -10 114 -36 157 -73v37c0 14 11 26 27 26h407c20 0 20 -30 -1 -30h-400v-276h380c21 0 21 -30 0 -30
h-380zM317 614c-141 -22 -225 -146 -229 -286c-5 -172 129 -309 284 -309c79 0 152 28 205 85v429c-73 71 -169 95 -260 81z" />
    <glyph glyph-name="Zcaron" unicode="&#x17d;" horiz-adv-x="614" 
d="M585 606l-500 -573h491c10 0 17 -7 17 -16c0 -10 -7 -17 -17 -17h-525c-20 0 -25 16 -14 30l504 575h-475c-9 0 -16 8 -16 17c0 8 7 15 16 15h506c20 0 25 -16 13 -31zM253 797l82 -73l80 72c18 20 41 -2 19 -20l-81 -77c-14 -11 -24 -11 -36 0l-86 78c-18 16 1 37 22 20
z" />
    <glyph glyph-name="trademark" unicode="&#x2122;" horiz-adv-x="634" 
d="M32 637h218c19 0 19 -31 0 -31h-93v-225c0 -12 -10 -16 -16 -16c-7 0 -17 4 -17 16v225h-92c-16 0 -16 31 0 31zM432 470l101 159c10 16 31 10 31 -7v-240c0 -18 -33 -18 -33 0v187l-85 -134l1 1c-7 -14 -23 -14 -31 -2l-84 133v-185c0 -21 -33 -21 -33 0v240
c0 17 20 23 31 7z" />
    <glyph glyph-name="scaron" unicode="&#x161;" horiz-adv-x="532" 
d="M38 110c-8 26 29 33 32 6c13 -62 108 -91 196 -91c60 0 188 25 188 116c0 176 -410 15 -410 231c0 96 119 146 212 146c76 0 182 -13 216 -102c7 -28 -26 -34 -33 -13c-28 75 -128 82 -183 82c-72 0 -178 -31 -178 -113c0 -169 411 -13 411 -231
c0 -120 -142 -148 -223 -148c-82 0 -209 20 -228 117zM191 663l82 -73l80 72c18 20 41 -2 19 -20l-81 -77c-14 -11 -24 -11 -36 0l-86 78c-18 16 1 37 22 20z" />
    <glyph glyph-name="oe" unicode="&#x153;" horiz-adv-x="1101" 
d="M372 474c-40 10 -87 11 -128 0c-155 -41 -209 -248 -107 -370c41 -49 104 -77 171 -77c68 0 132 28 173 77c102 122 46 329 -109 370zM728 475c-100 -27 -159 -119 -160 -219h449c-2 110 -61 193 -161 220c-40 10 -87 10 -128 -1zM867 508c112 -30 182 -123 184 -252
c1 -14 -4 -33 -31 -33h-451c5 -43 22 -84 52 -119c42 -50 105 -76 170 -77c55 -1 111 16 157 51c18 14 42 -6 23 -25c-45 -42 -111 -61 -177 -60c-78 1 -155 30 -201 89c-18 23 -36 59 -43 94c-7 -34 -24 -72 -43 -94c-49 -58 -120 -89 -199 -89s-150 31 -199 89
c-44 53 -64 116 -60 191c9 107 75 205 183 235c46 12 101 13 151 0c80 -23 143 -92 168 -167c23 79 84 144 165 167c46 12 101 13 151 0z" />
    <glyph glyph-name="zcaron" unicode="&#x17e;" horiz-adv-x="529" 
d="M84 32l398 442c13 14 4 35 -15 35h-401c-25 0 -26 -35 0 -35l367 1l-393 -443c-13 -12 -8 -32 13 -32h422c22 0 23 34 0 34zM199 662l82 -73l80 72c18 20 41 -2 19 -20l-81 -77c-14 -11 -24 -11 -36 0l-86 78c-18 16 1 37 22 20z" />
    <glyph glyph-name="Ydieresis" unicode="&#x178;" horiz-adv-x="617" 
d="M393 724c13 0 27 -11 27 -26c0 -19 -14 -27 -27 -27s-26 11 -26 27c0 15 13 26 26 26zM225 724c12 0 26 -11 26 -26c0 -19 -14 -27 -26 -27c-14 0 -27 11 -27 27c0 15 13 26 27 26zM291 259v-244c0 -13 8 -19 17 -19c8 0 17 6 17 19v244l268 358c18 20 -7 40 -25 20
l-260 -350l-261 350c-18 20 -42 0 -25 -20z" />
    <glyph glyph-name="yen" unicode="&#xa5;" horiz-adv-x="617" 
d="M291 138h-152c-21 2 -21 30 0 30h152v89h-152c-21 2 -21 30 0 30h131l-248 330c-17 20 7 40 25 20l261 -350l260 350c18 20 43 0 25 -20l-247 -330h130c22 0 21 -30 0 -30h-151v-89h151c22 0 21 -30 0 -30h-151v-123c0 -13 -9 -19 -17 -19c-9 0 -17 6 -17 19v123z" />
    <glyph glyph-name="exclamdown" unicode="&#xa1;" horiz-adv-x="159" 
d="M60 -110v466c0 22 35 23 35 0v-466c0 -20 -35 -20 -35 0zM60 447v58c0 22 35 22 35 0v-58c0 -22 -35 -22 -35 0z" />
    <glyph glyph-name="questiondown" unicode="&#xbf;" horiz-adv-x="581" 
d="M49 60c-2 -125 144 -159 244 -159c86 0 196 18 230 113c7 19 37 13 29 -12c-36 -111 -163 -136 -260 -136c-116 0 -281 53 -278 195c5 193 280 145 280 284v41c0 20 33 20 33 0v-42c0 -165 -275 -111 -278 -284zM294 451v55c0 21 33 21 33 0v-55c0 -21 -33 -21 -33 0z
" />
    <glyph glyph-name="Acircumflex" unicode="&#xc2;" horiz-adv-x="697" 
d="M347 605l199 -396h-399zM132 179h430l89 -177c10 -19 39 -4 29 16l-319 627c-3 6 -8 9 -14 9s-12 -3 -15 -9l-318 -627c-10 -20 19 -35 29 -16zM429 680l-82 73l-80 -72c-18 -20 -41 2 -19 20l81 77c14 11 24 11 36 0l86 -78c18 -16 -1 -37 -22 -20z" />
    <glyph glyph-name="Atilde" unicode="&#xc3;" horiz-adv-x="697" 
d="M213 722c63 98 143 -9 199 -2c13 1 24 10 33 29c6 17 36 9 22 -14c-46 -94 -122 -9 -182 -3c-20 2 -37 -1 -51 -27c-9 -14 -35 -3 -21 17zM347 605l199 -396h-399zM132 179h430l89 -177c10 -19 39 -4 29 16l-319 627c-3 6 -8 9 -14 9s-12 -3 -15 -9l-318 -627
c-10 -20 19 -35 29 -16z" />
    <glyph glyph-name="Adieresis" unicode="&#xc4;" horiz-adv-x="697" 
d="M347 605l199 -396h-399zM132 179h430l89 -177c10 -19 39 -4 29 16l-319 627c-3 6 -8 9 -14 9s-12 -3 -15 -9l-318 -627c-10 -20 19 -35 29 -16zM432 744c13 0 27 -11 27 -26c0 -19 -14 -27 -27 -27s-26 11 -26 27c0 15 13 26 26 26zM264 744c12 0 26 -11 26 -26
c0 -19 -14 -27 -26 -27c-14 0 -27 11 -27 27c0 15 13 26 27 26z" />
    <glyph glyph-name="Aring" unicode="&#xc5;" horiz-adv-x="697" 
d="M347 605l199 -396h-399zM132 179h430l89 -177c10 -19 39 -4 29 16l-319 627c-3 6 -8 9 -14 9s-12 -3 -15 -9l-318 -627c-10 -20 19 -35 29 -16zM349 823c40 0 72 -31 72 -71c0 -41 -32 -72 -72 -72c-41 0 -73 31 -73 72c0 40 32 71 73 71zM349 794c-24 0 -44 -19 -44 -42
c0 -24 20 -43 44 -43c23 0 43 19 43 43c0 23 -20 42 -43 42z" />
    <glyph glyph-name="Aacute" unicode="&#xc1;" horiz-adv-x="697" 
d="M347 605l199 -396h-399zM132 179h430l89 -177c10 -19 39 -4 29 16l-319 627c-3 6 -8 9 -14 9s-12 -3 -15 -9l-318 -627c-10 -20 19 -35 29 -16zM337 717l77 96c14 17 44 -1 29 -22l-82 -90c-15 -17 -33 3 -24 16z" />
    <glyph glyph-name="Agrave" unicode="&#xc0;" horiz-adv-x="697" 
d="M546 209l-199 396l-200 -396h399zM562 179h-430l-89 -177c-10 -19 -39 -4 -29 16l318 627c3 6 9 9 15 9s11 -3 14 -9l319 -627c10 -20 -19 -35 -29 -16zM286 804l77 -96c9 -13 -9 -33 -24 -16l-82 90c-15 21 15 39 29 22z" />
    <glyph glyph-name="AE" unicode="&#xc6;" horiz-adv-x="1019" 
d="M536 300v-268h411c21 0 21 -32 0 -32h-417c-16 0 -27 12 -27 27v152h-302l-141 -179c-16 -21 -43 -2 -27 18l474 606c0 1 1 2 2 3c5 5 12 9 21 9h418c20 0 20 -30 -1 -30h-411v-276h391c21 0 21 -30 0 -30h-391zM226 209h277v357z" />
    <glyph glyph-name="Ccedilla" unicode="&#xc7;" horiz-adv-x="667" 
d="M632 114c-27 -38 -63 -67 -106 -88c-47 -24 -96 -35 -143 -36l-13 -39c57 6 99 -22 99 -66c0 -51 -49 -74 -94 -74c-42 0 -76 14 -100 53c-11 17 14 33 25 16c17 -27 41 -38 74 -38s63 11 63 43c0 36 -49 49 -85 39l-13 16l16 50c-167 11 -308 151 -302 339
c4 154 105 293 262 318c102 15 212 -18 282 -94c16 -19 -8 -39 -24 -22c-63 70 -162 96 -253 83c-141 -22 -231 -148 -235 -286c-6 -221 223 -375 427 -272c36 18 69 45 94 77c14 20 40 0 26 -19z" />
    <glyph glyph-name="Egrave" unicode="&#xc8;" horiz-adv-x="639" 
d="M125 300v-268h442c21 0 21 -32 0 -32h-448c-16 0 -27 12 -27 27v583c0 14 11 26 27 26h449c20 0 20 -30 -1 -30h-442v-276h422c21 0 21 -30 0 -30h-422zM299 801l77 -96c9 -13 -9 -33 -24 -16l-82 90c-15 21 15 39 29 22z" />
    <glyph glyph-name="Eacute" unicode="&#xc9;" horiz-adv-x="639" 
d="M125 32v268h422c21 0 21 30 0 30h-422v276h442c21 0 21 30 1 30h-449c-16 0 -27 -12 -27 -26v-583c0 -15 11 -27 27 -27h448c21 0 21 32 0 32h-442zM329 706l77 96c14 17 44 -1 29 -22l-82 -90c-15 -17 -33 3 -24 16z" />
    <glyph glyph-name="Ecircumflex" unicode="&#xca;" horiz-adv-x="639" 
d="M125 32v268h422c21 0 21 30 0 30h-422v276h442c21 0 21 30 1 30h-449c-16 0 -27 -12 -27 -26v-583c0 -15 11 -27 27 -27h448c21 0 21 32 0 32h-442zM425 693l-82 73l-80 -72c-18 -20 -41 2 -19 20l81 77c14 11 24 11 36 0l86 -78c18 -16 -1 -37 -22 -20z" />
    <glyph glyph-name="Edieresis" unicode="&#xcb;" horiz-adv-x="639" 
d="M125 32v268h422c21 0 21 30 0 30h-422v276h442c21 0 21 30 1 30h-449c-16 0 -27 -12 -27 -26v-583c0 -15 11 -27 27 -27h448c21 0 21 32 0 32h-442zM438 747c13 0 27 -11 27 -26c0 -19 -14 -27 -27 -27s-26 11 -26 27c0 15 13 26 26 26zM270 747c12 0 26 -11 26 -26
c0 -19 -14 -27 -26 -27c-14 0 -27 11 -27 27c0 15 13 26 27 26z" />
    <glyph glyph-name="Igrave" unicode="&#xcc;" horiz-adv-x="220" 
d="M92 17v607c0 25 36 25 36 0v-607c0 -23 -36 -23 -36 0zM43 804l77 -96c9 -13 -9 -33 -24 -16l-82 90c-15 21 15 39 29 22z" />
    <glyph glyph-name="Iacute" unicode="&#xcd;" horiz-adv-x="220" 
d="M92 17v607c0 25 36 25 36 0v-607c0 -23 -36 -23 -36 0zM95 711l77 96c14 17 44 -1 29 -22l-82 -90c-15 -17 -33 3 -24 16z" />
    <glyph glyph-name="Icircumflex" unicode="&#xce;" horiz-adv-x="220" 
d="M92 17v607c0 25 36 25 36 0v-607c0 -23 -36 -23 -36 0zM192 691l-82 73l-80 -72c-18 -20 -41 2 -19 20l81 77c14 11 24 11 36 0l86 -78c18 -16 -1 -37 -22 -20z" />
    <glyph glyph-name="Idieresis" unicode="&#xcf;" horiz-adv-x="220" 
d="M92 17v607c0 25 36 25 36 0v-607c0 -23 -36 -23 -36 0zM194 744c13 0 27 -11 27 -26c0 -19 -14 -27 -27 -27s-26 11 -26 27c0 15 13 26 26 26zM26 744c12 0 26 -11 26 -26c0 -19 -14 -27 -26 -27c-14 0 -27 11 -27 27c0 15 13 26 27 26z" />
    <glyph glyph-name="Eth" unicode="&#xd0;" horiz-adv-x="657" 
d="M312 0h-232c-15 0 -27 12 -27 26v275h-58c-26 0 -24 29 0 29h58v281c0 14 12 25 27 25h232c392 0 392 -636 0 -636zM191 301h-105v-270h226c348 0 348 575 0 575h-226v-276h105c24 0 24 -29 0 -29z" />
    <glyph glyph-name="Ntilde" unicode="&#xd1;" horiz-adv-x="687" 
d="M560 622v-560l-434 567c-14 18 -35 15 -35 -10v-601c0 -24 33 -24 33 0v561l435 -567c13 -16 35 -16 35 8v602c0 25 -34 25 -34 0zM230 720c63 98 143 -9 199 -2c13 1 24 10 33 29c6 17 36 9 22 -14c-46 -94 -122 -9 -182 -3c-20 2 -37 -1 -51 -27c-9 -14 -35 -3 -21 17z
" />
    <glyph glyph-name="Ograve" unicode="&#xd2;" horiz-adv-x="745" 
d="M372 -12c-173 0 -323 148 -318 341c5 155 101 292 258 317c35 5 73 5 108 0c158 -25 266 -162 270 -317c6 -193 -144 -341 -318 -341zM317 614c-141 -22 -225 -146 -229 -286c-5 -172 129 -309 284 -309c156 0 290 137 285 309c-4 140 -100 264 -242 286
c-32 5 -66 5 -98 0zM315 807l77 -96c9 -13 -9 -33 -24 -16l-82 90c-15 21 15 39 29 22z" />
    <glyph glyph-name="Oacute" unicode="&#xd3;" horiz-adv-x="745" 
d="M372 -12c174 0 324 148 318 341c-4 155 -112 292 -270 317c-35 5 -73 5 -108 0c-157 -25 -253 -162 -258 -317c-5 -193 145 -341 318 -341zM317 614c32 5 66 5 98 0c142 -22 238 -146 242 -286c5 -172 -129 -309 -285 -309c-155 0 -289 137 -284 309
c4 140 88 264 229 286zM368 714l77 96c14 17 44 -1 29 -22l-82 -90c-15 -17 -33 3 -24 16z" />
    <glyph glyph-name="Ocircumflex" unicode="&#xd4;" horiz-adv-x="745" 
d="M372 -12c174 0 324 148 318 341c-4 155 -112 292 -270 317c-35 5 -73 5 -108 0c-157 -25 -253 -162 -258 -317c-5 -193 145 -341 318 -341zM317 614c32 5 66 5 98 0c142 -22 238 -146 242 -286c5 -172 -129 -309 -285 -309c-155 0 -289 137 -284 309
c4 140 88 264 229 286zM454 695l-82 73l-80 -72c-18 -20 -41 2 -19 20l81 77c14 11 24 11 36 0l86 -78c18 -16 -1 -37 -22 -20z" />
    <glyph glyph-name="Otilde" unicode="&#xd5;" horiz-adv-x="745" 
d="M372 -12c174 0 324 148 318 341c-4 155 -112 292 -270 317c-35 5 -73 5 -108 0c-157 -25 -253 -162 -258 -317c-5 -193 145 -341 318 -341zM317 614c32 5 66 5 98 0c142 -22 238 -146 242 -286c5 -172 -129 -309 -285 -309c-155 0 -289 137 -284 309
c4 140 88 264 229 286zM252 738c63 98 143 -9 199 -2c13 1 24 10 33 29c6 17 36 9 22 -14c-46 -94 -122 -9 -182 -3c-20 2 -37 -1 -51 -27c-9 -14 -35 -3 -21 17z" />
    <glyph glyph-name="Odieresis" unicode="&#xd6;" horiz-adv-x="745" 
d="M372 -12c174 0 324 148 318 341c-4 155 -112 292 -270 317c-35 5 -73 5 -108 0c-157 -25 -253 -162 -258 -317c-5 -193 145 -341 318 -341zM317 614c32 5 66 5 98 0c142 -22 238 -146 242 -286c5 -172 -129 -309 -285 -309c-155 0 -289 137 -284 309
c4 140 88 264 229 286zM461 760c13 0 27 -11 27 -26c0 -19 -14 -27 -27 -27s-26 11 -26 27c0 15 13 26 26 26zM293 760c12 0 26 -11 26 -26c0 -19 -14 -27 -26 -27c-14 0 -27 11 -27 27c0 15 13 26 27 26z" />
    <glyph glyph-name="Oslash" unicode="&#xd8;" horiz-adv-x="745" 
d="M372 -12c-51 0 -100 12 -143 35l-53 -94c-12 -26 -39 -10 -29 14l54 97c-90 59 -150 165 -147 289c5 155 101 292 258 317c35 5 73 5 108 0c37 -6 71 -19 102 -36l44 78c11 24 39 12 28 -12l-46 -81c86 -59 139 -158 142 -266c6 -193 -144 -341 -318 -341zM317 614
c-141 -22 -225 -146 -229 -286c-3 -110 50 -206 129 -260l290 514c-28 16 -59 27 -92 32c-32 5 -66 5 -98 0zM372 19c156 0 290 137 285 309c-3 96 -50 185 -125 238l-288 -515c39 -21 82 -32 128 -32z" />
    <glyph glyph-name="Ugrave" unicode="&#xd9;" horiz-adv-x="759" 
d="M636 280v348c0 22 33 22 33 1v-349c0 -382 -577 -382 -577 0v349c0 21 32 21 32 -1v-348c0 -338 512 -338 512 0zM323 806l77 -96c9 -13 -9 -33 -24 -16l-82 90c-15 21 15 39 29 22z" />
    <glyph glyph-name="Uacute" unicode="&#xda;" horiz-adv-x="759" 
d="M636 280c0 -338 -512 -338 -512 0v348c0 22 -32 22 -32 1v-349c0 -382 577 -382 577 0v349c0 21 -33 21 -33 -1v-348zM352 713l77 96c14 17 44 -1 29 -22l-82 -90c-15 -17 -33 3 -24 16z" />
    <glyph glyph-name="Ucircumflex" unicode="&#xdb;" horiz-adv-x="759" 
d="M636 280c0 -338 -512 -338 -512 0v348c0 22 -32 22 -32 1v-349c0 -382 577 -382 577 0v349c0 21 -33 21 -33 -1v-348zM462 696l-82 73l-80 -72c-18 -20 -41 2 -19 20l81 77c14 11 24 11 36 0l86 -78c18 -16 -1 -37 -22 -20z" />
    <glyph glyph-name="Udieresis" unicode="&#xdc;" horiz-adv-x="759" 
d="M636 280c0 -338 -512 -338 -512 0v348c0 22 -32 22 -32 1v-349c0 -382 577 -382 577 0v349c0 21 -33 21 -33 -1v-348zM462 746c13 0 27 -11 27 -26c0 -19 -14 -27 -27 -27s-26 11 -26 27c0 15 13 26 26 26zM294 746c12 0 26 -11 26 -26c0 -19 -14 -27 -26 -27
c-14 0 -27 11 -27 27c0 15 13 26 27 26z" />
    <glyph glyph-name="Yacute" unicode="&#xdd;" horiz-adv-x="617" 
d="M291 259v-244c0 -13 8 -19 17 -19c8 0 17 6 17 19v244l268 358c18 20 -7 40 -25 20l-260 -350l-261 350c-18 20 -42 0 -25 -20zM289 710l77 96c14 17 44 -1 29 -22l-82 -90c-15 -17 -33 3 -24 16z" />
    <glyph glyph-name="Thorn" unicode="&#xde;" horiz-adv-x="634" 
d="M92 13v611c0 21 33 21 33 -1v-85h211c169 0 255 -114 255 -227c0 -116 -83 -212 -254 -212h-212v-85c0 -22 -33 -22 -33 -1zM125 507v-377h212c156 0 222 91 220 181c-1 98 -83 196 -220 196h-212z" />
    <glyph glyph-name="germandbls" unicode="&#xdf;" horiz-adv-x="559" 
d="M115 472v-634c0 -26 -34 -23 -34 0v634c0 132 103 164 188 164c87 0 195 -36 195 -164c0 -64 -36 -111 -100 -131c84 -17 148 -67 148 -160c0 -142 -131 -181 -254 -181h-77c-24 0 -23 30 0 30h77c105 0 219 28 219 151c0 98 -83 137 -187 137h-107c-22 0 -22 32 0 32h54
c103 0 192 29 192 122c0 105 -92 134 -161 134c-70 0 -153 -27 -153 -134z" />
    <glyph glyph-name="agrave" unicode="&#xe0;" 
d="M201 497c33 14 68 20 106 19c43 -1 84 -11 120 -32c33 -22 58 -53 73 -93v101c0 11 6 18 17 18s18 -7 18 -18v-479c0 -11 -7 -18 -18 -18s-17 7 -17 18v101c-15 -40 -40 -71 -73 -93c-63 -37 -143 -46 -219 -15c-108 44 -162 143 -159 260c3 101 57 194 152 231zM396 44
c66 32 100 92 104 165v87c-4 73 -38 133 -104 165c-29 13 -58 19 -89 20c-85 1 -171 -44 -205 -127c-11 -26 -17 -58 -18 -87c-3 -77 23 -148 88 -200c35 -27 78 -42 123 -45c35 -1 68 7 101 22zM249 676l77 -96c9 -13 -9 -33 -24 -16l-82 90c-15 21 15 39 29 22z" />
    <glyph glyph-name="aacute" unicode="&#xe1;" 
d="M201 497c33 14 68 20 106 19c43 -1 84 -11 120 -32c33 -22 58 -53 73 -93v101c0 11 6 18 17 18s18 -7 18 -18v-479c0 -11 -7 -18 -18 -18s-17 7 -17 18v101c-15 -40 -40 -71 -73 -93c-63 -37 -143 -46 -219 -15c-108 44 -162 143 -159 260c3 101 57 194 152 231zM396 44
c66 32 100 92 104 165v87c-4 73 -38 133 -104 165c-29 13 -58 19 -89 20c-85 1 -171 -44 -205 -127c-11 -26 -17 -58 -18 -87c-3 -77 23 -148 88 -200c35 -27 78 -42 123 -45c35 -1 68 7 101 22zM284 579l77 96c14 17 44 -1 29 -22l-82 -90c-15 -17 -33 3 -24 16z" />
    <glyph glyph-name="acircumflex" unicode="&#xe2;" 
d="M201 497c33 14 68 20 106 19c43 -1 84 -11 120 -32c33 -22 58 -53 73 -93v101c0 11 6 18 17 18s18 -7 18 -18v-479c0 -11 -7 -18 -18 -18s-17 7 -17 18v101c-15 -40 -40 -71 -73 -93c-63 -37 -143 -46 -219 -15c-108 44 -162 143 -159 260c3 101 57 194 152 231zM396 44
c66 32 100 92 104 165v87c-4 73 -38 133 -104 165c-29 13 -58 19 -89 20c-85 1 -171 -44 -205 -127c-11 -26 -17 -58 -18 -87c-3 -77 23 -148 88 -200c35 -27 78 -42 123 -45c35 -1 68 7 101 22zM385 561l-82 73l-80 -72c-18 -20 -41 2 -19 20l81 77c14 11 24 11 36 0
l86 -78c18 -16 -1 -37 -22 -20z" />
    <glyph glyph-name="atilde" unicode="&#xe3;" 
d="M201 497c33 14 68 20 106 19c43 -1 84 -11 120 -32c33 -22 58 -53 73 -93v101c0 11 6 18 17 18s18 -7 18 -18v-479c0 -11 -7 -18 -18 -18s-17 7 -17 18v101c-15 -40 -40 -71 -73 -93c-63 -37 -143 -46 -219 -15c-108 44 -162 143 -159 260c3 101 57 194 152 231zM396 44
c66 32 100 92 104 165v87c-4 73 -38 133 -104 165c-29 13 -58 19 -89 20c-85 1 -171 -44 -205 -127c-11 -26 -17 -58 -18 -87c-3 -77 23 -148 88 -200c35 -27 78 -42 123 -45c35 -1 68 7 101 22zM189 608c63 98 143 -9 199 -2c13 1 24 10 33 29c6 17 36 9 22 -14
c-46 -94 -122 -9 -182 -3c-20 2 -37 -1 -51 -27c-9 -14 -35 -3 -21 17z" />
    <glyph glyph-name="adieresis" unicode="&#xe4;" 
d="M201 497c33 14 68 20 106 19c43 -1 84 -11 120 -32c33 -22 58 -53 73 -93v101c0 11 6 18 17 18s18 -7 18 -18v-479c0 -11 -7 -18 -18 -18s-17 7 -17 18v101c-15 -40 -40 -71 -73 -93c-63 -37 -143 -46 -219 -15c-108 44 -162 143 -159 260c3 101 57 194 152 231zM396 44
c66 32 100 92 104 165v87c-4 73 -38 133 -104 165c-29 13 -58 19 -89 20c-85 1 -171 -44 -205 -127c-11 -26 -17 -58 -18 -87c-3 -77 23 -148 88 -200c35 -27 78 -42 123 -45c35 -1 68 7 101 22zM396 641c13 0 27 -11 27 -26c0 -19 -14 -27 -27 -27s-26 11 -26 27
c0 15 13 26 26 26zM228 641c12 0 26 -11 26 -26c0 -19 -14 -27 -26 -27c-14 0 -27 11 -27 27c0 15 13 26 27 26z" />
    <glyph glyph-name="aring" unicode="&#xe5;" 
d="M201 497c33 14 68 20 106 19c43 -1 84 -11 120 -32c33 -22 58 -53 73 -93v101c0 11 6 18 17 18s18 -7 18 -18v-479c0 -11 -7 -18 -18 -18s-17 7 -17 18v101c-15 -40 -40 -71 -73 -93c-63 -37 -143 -46 -219 -15c-108 44 -162 143 -159 260c3 101 57 194 152 231zM396 44
c66 32 100 92 104 165v87c-4 73 -38 133 -104 165c-29 13 -58 19 -89 20c-85 1 -171 -44 -205 -127c-11 -26 -17 -58 -18 -87c-3 -77 23 -148 88 -200c35 -27 78 -42 123 -45c35 -1 68 7 101 22zM302 688c40 0 72 -31 72 -71c0 -41 -32 -72 -72 -72c-41 0 -73 31 -73 72
c0 40 32 71 73 71zM302 659c-24 0 -44 -19 -44 -42c0 -24 20 -43 44 -43c23 0 43 19 43 43c0 23 -20 42 -43 42z" />
    <glyph glyph-name="ae" unicode="&#xe6;" horiz-adv-x="1068" 
d="M201 497c33 14 68 20 106 19c43 -1 84 -11 120 -32c33 -22 60 -53 75 -93v101c0 25 32 23 32 0v-101c31 55 84 98 150 117c46 12 101 13 151 0c112 -30 182 -123 184 -252c1 -14 -4 -33 -31 -33h-453c5 -43 23 -85 53 -120c42 -50 106 -75 171 -76c55 -1 111 16 157 51
c18 14 42 -6 23 -25c-45 -42 -111 -61 -177 -60c-91 1 -184 44 -228 128v-108c0 -23 -32 -25 -32 0v101c-15 -40 -42 -71 -75 -93c-63 -37 -143 -46 -219 -15c-108 44 -162 143 -159 260c3 101 57 194 152 231zM396 44c66 32 102 92 106 165v87c-4 73 -40 133 -106 165
c-29 13 -58 19 -89 20c-85 1 -171 -44 -205 -127c-11 -26 -17 -58 -18 -87c-3 -77 23 -148 88 -200c35 -27 78 -42 123 -45c35 -1 68 7 101 22zM696 475c-98 -27 -158 -115 -162 -212v-7h451c-2 110 -61 193 -161 220c-40 10 -87 10 -128 -1z" />
    <glyph glyph-name="ccedilla" unicode="&#xe7;" horiz-adv-x="525" 
d="M449 408c-52 63 -139 83 -216 64c-149 -40 -204 -248 -105 -368c81 -100 254 -105 335 0c3 3 7 6 12 7c11 1 17 -6 20 -15c0 -6 -1 -11 -4 -14c-47 -59 -118 -87 -190 -88l-10 -29c55 6 96 -22 96 -66c0 -51 -47 -74 -91 -74c-40 0 -73 14 -96 53c-11 17 13 33 24 16
c16 -27 39 -38 71 -38s61 11 61 43c0 36 -47 49 -82 39l-13 16l13 40c-66 6 -130 35 -173 88c-43 52 -62 115 -58 190c7 112 71 206 179 234c96 22 193 -3 254 -75c3 -4 4 -7 4 -10c1 -9 -4 -18 -15 -19c-7 -1 -12 1 -16 6z" />
    <glyph glyph-name="egrave" unicode="&#xe8;" horiz-adv-x="619" 
d="M384 508c112 -30 182 -123 184 -252c1 -14 -4 -33 -31 -33h-450c5 -43 21 -84 51 -119c42 -50 105 -76 170 -77c55 -1 111 16 157 51c18 14 42 -6 23 -25c-45 -42 -111 -61 -177 -60c-78 1 -155 30 -201 89c-42 54 -64 116 -60 191c5 108 75 205 183 235
c46 12 101 13 151 0zM245 475c-100 -27 -158 -119 -159 -219h448c-2 110 -61 193 -161 220c-40 10 -87 10 -128 -1zM266 680l77 -96c9 -13 -9 -33 -24 -16l-82 90c-15 21 15 39 29 22z" />
    <glyph glyph-name="eacute" unicode="&#xe9;" horiz-adv-x="619" 
d="M384 508c112 -30 182 -123 184 -252c1 -14 -4 -33 -31 -33h-450c5 -43 21 -84 51 -119c42 -50 105 -76 170 -77c55 -1 111 16 157 51c18 14 42 -6 23 -25c-45 -42 -111 -61 -177 -60c-78 1 -155 30 -201 89c-42 54 -64 116 -60 191c5 108 75 205 183 235
c46 12 101 13 151 0zM245 475c-100 -27 -158 -119 -159 -219h448c-2 110 -61 193 -161 220c-40 10 -87 10 -128 -1zM288 587l77 96c14 17 44 -1 29 -22l-82 -90c-15 -17 -33 3 -24 16z" />
    <glyph glyph-name="ecircumflex" unicode="&#xea;" horiz-adv-x="619" 
d="M384 508c112 -30 182 -123 184 -252c1 -14 -4 -33 -31 -33h-450c5 -43 21 -84 51 -119c42 -50 105 -76 170 -77c55 -1 111 16 157 51c18 14 42 -6 23 -25c-45 -42 -111 -61 -177 -60c-78 1 -155 30 -201 89c-42 54 -64 116 -60 191c5 108 75 205 183 235
c46 12 101 13 151 0zM245 475c-100 -27 -158 -119 -159 -219h448c-2 110 -61 193 -161 220c-40 10 -87 10 -128 -1zM398 572l-82 73l-80 -72c-18 -20 -41 2 -19 20l81 77c14 11 24 11 36 0l86 -78c18 -16 -1 -37 -22 -20z" />
    <glyph glyph-name="edieresis" unicode="&#xeb;" horiz-adv-x="619" 
d="M384 508c112 -30 182 -123 184 -252c1 -14 -4 -33 -31 -33h-450c5 -43 21 -84 51 -119c42 -50 105 -76 170 -77c55 -1 111 16 157 51c18 14 42 -6 23 -25c-45 -42 -111 -61 -177 -60c-78 1 -155 30 -201 89c-42 54 -64 116 -60 191c5 108 75 205 183 235
c46 12 101 13 151 0zM245 475c-100 -27 -158 -119 -159 -219h448c-2 110 -61 193 -161 220c-40 10 -87 10 -128 -1zM396 643c13 0 27 -11 27 -26c0 -19 -14 -27 -27 -27s-26 11 -26 27c0 15 13 26 26 26zM228 643c12 0 26 -11 26 -26c0 -19 -14 -27 -26 -27
c-14 0 -27 11 -27 27c0 15 13 26 27 26z" />
    <glyph glyph-name="igrave" unicode="&#xec;" horiz-adv-x="197" 
d="M82 18v476c0 24 35 24 35 1v-477c0 -24 -35 -24 -35 0zM37 691l77 -96c9 -13 -9 -33 -24 -16l-82 90c-15 21 15 39 29 22z" />
    <glyph glyph-name="iacute" unicode="&#xed;" horiz-adv-x="197" 
d="M82 494v-476c0 -24 35 -24 35 0v477c0 23 -35 23 -35 -1zM87 591l77 96c14 17 44 -1 29 -22l-82 -90c-15 -17 -33 3 -24 16z" />
    <glyph glyph-name="icircumflex" unicode="&#xee;" horiz-adv-x="197" 
d="M82 494v-476c0 -24 35 -24 35 0v477c0 23 -35 23 -35 -1zM183 572l-82 73l-80 -72c-18 -20 -41 2 -19 20l81 77c14 11 24 11 36 0l86 -78c18 -16 -1 -37 -22 -20z" />
    <glyph glyph-name="idieresis" unicode="&#xef;" horiz-adv-x="197" 
d="M82 494v-476c0 -24 35 -24 35 0v477c0 23 -35 23 -35 -1zM185 662c13 0 27 -11 27 -26c0 -19 -14 -27 -27 -27s-26 11 -26 27c0 15 13 26 26 26zM17 662c12 0 26 -11 26 -26c0 -19 -14 -27 -26 -27c-14 0 -27 11 -27 27c0 15 13 26 27 26z" />
    <glyph glyph-name="ntilde" unicode="&#xf1;" horiz-adv-x="645" 
d="M531 11v286c0 130 -121 212 -239 181c-103 -26 -172 -123 -175 -228v-239c0 -11 -6 -18 -17 -18s-18 7 -18 18v483c0 9 7 17 18 17s17 -7 17 -18v-138c23 84 92 137 164 156c133 34 285 -45 285 -214v-286c0 -11 -6 -18 -17 -18s-18 7 -18 18zM210 616
c63 98 143 -9 199 -2c13 1 24 10 33 29c6 17 36 9 22 -14c-46 -94 -122 -9 -182 -3c-20 2 -37 -1 -51 -27c-9 -14 -35 -3 -21 17z" />
    <glyph glyph-name="ograve" unicode="&#xf2;" 
d="M308 -7c-79 0 -150 31 -199 89c-44 53 -64 116 -60 191c9 107 75 205 183 235c46 12 101 13 151 0c108 -30 175 -128 184 -235c4 -75 -16 -138 -60 -191c-49 -58 -120 -89 -199 -89zM372 474c-40 10 -87 11 -128 0c-155 -41 -209 -248 -107 -370c41 -49 104 -77 171 -77
c68 0 132 28 173 77c102 122 46 329 -109 370zM252 698l77 -96c9 -13 -9 -33 -24 -16l-82 90c-15 21 15 39 29 22z" />
    <glyph glyph-name="oacute" unicode="&#xf3;" 
d="M308 -7c-79 0 -150 31 -199 89c-44 53 -64 116 -60 191c9 107 75 205 183 235c46 12 101 13 151 0c108 -30 175 -128 184 -235c4 -75 -16 -138 -60 -191c-49 -58 -120 -89 -199 -89zM372 474c-40 10 -87 11 -128 0c-155 -41 -209 -248 -107 -370c41 -49 104 -77 171 -77
c68 0 132 28 173 77c102 122 46 329 -109 370zM288 597l77 96c14 17 44 -1 29 -22l-82 -90c-15 -17 -33 3 -24 16z" />
    <glyph glyph-name="ocircumflex" unicode="&#xf4;" 
d="M308 -7c-79 0 -150 31 -199 89c-44 53 -64 116 -60 191c9 107 75 205 183 235c46 12 101 13 151 0c108 -30 175 -128 184 -235c4 -75 -16 -138 -60 -191c-49 -58 -120 -89 -199 -89zM372 474c-40 10 -87 11 -128 0c-155 -41 -209 -248 -107 -370c41 -49 104 -77 171 -77
c68 0 132 28 173 77c102 122 46 329 -109 370zM400 582l-82 73l-80 -72c-18 -20 -41 2 -19 20l81 77c14 11 24 11 36 0l86 -78c18 -16 -1 -37 -22 -20z" />
    <glyph glyph-name="otilde" unicode="&#xf5;" 
d="M308 -7c-79 0 -150 31 -199 89c-44 53 -64 116 -60 191c9 107 75 205 183 235c46 12 101 13 151 0c108 -30 175 -128 184 -235c4 -75 -16 -138 -60 -191c-49 -58 -120 -89 -199 -89zM372 474c-40 10 -87 11 -128 0c-155 -41 -209 -248 -107 -370c41 -49 104 -77 171 -77
c68 0 132 28 173 77c102 122 46 329 -109 370zM186 620c63 98 143 -9 199 -2c13 1 24 10 33 29c6 17 36 9 22 -14c-46 -94 -122 -9 -182 -3c-20 2 -37 -1 -51 -27c-9 -14 -35 -3 -21 17z" />
    <glyph glyph-name="odieresis" unicode="&#xf6;" 
d="M308 -7c-79 0 -150 31 -199 89c-44 53 -64 116 -60 191c9 107 75 205 183 235c46 12 101 13 151 0c108 -30 175 -128 184 -235c4 -75 -16 -138 -60 -191c-49 -58 -120 -89 -199 -89zM372 474c-40 10 -87 11 -128 0c-155 -41 -209 -248 -107 -370c41 -49 104 -77 171 -77
c68 0 132 28 173 77c102 122 46 329 -109 370zM400 665c13 0 27 -11 27 -26c0 -19 -14 -27 -27 -27s-26 11 -26 27c0 15 13 26 26 26zM232 665c12 0 26 -11 26 -26c0 -19 -14 -27 -26 -27c-14 0 -27 11 -27 27c0 15 13 26 27 26z" />
    <glyph glyph-name="oslash" unicode="&#xf8;" 
d="M117 -49l47 82c-21 13 -39 30 -55 49c-44 53 -64 116 -60 191c9 107 75 205 183 235c46 12 101 13 151 0c15 -4 29 -10 43 -17l44 77c11 24 43 11 32 -13l-47 -81c65 -45 105 -121 112 -201c4 -75 -16 -138 -60 -191c-49 -58 -120 -89 -199 -89c-41 0 -80 8 -115 24
l-46 -80c-12 -26 -40 -10 -30 14zM372 474c-40 10 -87 11 -128 0c-155 -41 -209 -248 -107 -370c13 -16 28 -29 44 -40l227 396c-11 6 -23 10 -36 14zM481 104c86 103 59 265 -44 339l-227 -395c30 -14 63 -21 98 -21c68 0 132 28 173 77z" />
    <glyph glyph-name="ugrave" unicode="&#xf9;" horiz-adv-x="646" 
d="M115 496v-287c0 -126 121 -211 239 -180c103 26 172 123 175 228v239c0 11 6 18 17 18s18 -7 18 -18v-483c0 -9 -7 -17 -18 -17s-17 7 -17 18v144c-23 -84 -94 -144 -166 -163c-129 -28 -283 48 -283 214v287c0 11 6 18 17 18s18 -7 18 -18zM281 698l77 -96
c9 -13 -9 -33 -24 -16l-82 90c-15 21 15 39 29 22z" />
    <glyph glyph-name="uacute" unicode="&#xfa;" horiz-adv-x="646" 
d="M115 496v-287c0 -126 121 -211 239 -180c103 26 172 123 175 228v239c0 11 6 18 17 18s18 -7 18 -18v-483c0 -9 -7 -17 -18 -17s-17 7 -17 18v144c-23 -84 -94 -144 -166 -163c-129 -28 -283 48 -283 214v287c0 11 6 18 17 18s18 -7 18 -18zM292 593l77 96
c14 17 44 -1 29 -22l-82 -90c-15 -17 -33 3 -24 16z" />
    <glyph glyph-name="ucircumflex" unicode="&#xfb;" horiz-adv-x="646" 
d="M115 496v-287c0 -126 121 -211 239 -180c103 26 172 123 175 228v239c0 11 6 18 17 18s18 -7 18 -18v-483c0 -9 -7 -17 -18 -17s-17 7 -17 18v144c-23 -84 -94 -144 -166 -163c-129 -28 -283 48 -283 214v287c0 11 6 18 17 18s18 -7 18 -18zM405 578l-82 73l-80 -72
c-18 -20 -41 2 -19 20l81 77c14 11 24 11 36 0l86 -78c18 -16 -1 -37 -22 -20z" />
    <glyph glyph-name="udieresis" unicode="&#xfc;" horiz-adv-x="646" 
d="M115 496v-287c0 -126 121 -211 239 -180c103 26 172 123 175 228v239c0 11 6 18 17 18s18 -7 18 -18v-483c0 -9 -7 -17 -18 -17s-17 7 -17 18v144c-23 -84 -94 -144 -166 -163c-129 -28 -283 48 -283 214v287c0 11 6 18 17 18s18 -7 18 -18zM418 661c13 0 27 -11 27 -26
c0 -19 -14 -27 -27 -27s-26 11 -26 27c0 15 13 26 26 26zM250 661c12 0 26 -11 26 -26c0 -19 -14 -27 -26 -27c-14 0 -27 11 -27 27c0 15 13 26 27 26z" />
    <glyph glyph-name="yacute" unicode="&#xfd;" horiz-adv-x="559" 
d="M21 489l239 -471l-93 -188c-9 -25 19 -38 32 -11l339 670c12 22 -24 37 -34 12l-222 -449l-227 449c-13 21 -39 8 -34 -12zM270 601l77 96c14 17 44 -1 29 -22l-82 -90c-15 -17 -33 3 -24 16z" />
    <glyph glyph-name="ydieresis" unicode="&#xff;" horiz-adv-x="559" 
d="M21 489l239 -471l-93 -188c-9 -25 19 -38 32 -11l339 670c12 22 -24 37 -34 12l-222 -449l-227 449c-13 21 -39 8 -34 -12zM373 666c13 0 27 -11 27 -26c0 -19 -14 -27 -27 -27s-26 11 -26 27c0 15 13 26 26 26zM205 666c12 0 26 -11 26 -26c0 -19 -14 -27 -26 -27
c-14 0 -27 11 -27 27c0 15 13 26 27 26z" />
    <glyph glyph-name="thorn" unicode="&#xfe;" horiz-adv-x="619" 
d="M415 497c95 -37 149 -130 152 -231c3 -117 -51 -216 -159 -260c-76 -31 -156 -22 -219 15c-33 22 -58 49 -73 89v-281c0 -11 -7 -17 -18 -17c-9 0 -17 6 -17 17v856c0 11 7 18 18 18s17 -7 17 -18v-289c33 78 110 118 193 120c38 1 73 -5 106 -19zM220 44
c33 -15 66 -23 101 -22c45 3 88 18 123 45c65 52 91 123 88 200c-1 29 -7 61 -18 87c-34 83 -120 128 -205 127c-112 -4 -186 -82 -193 -185v-87c4 -73 38 -133 104 -165z" />
  </font>
</defs>
</svg>
