<?xml version="1.0" encoding="UTF-8"?>
<svg id="Layer_1" data-name="Layer 1" xmlns="http://www.w3.org/2000/svg" viewBox="0 0 479.802 95.961">
  <defs>
    <style>
      .cls-1 {
        fill: #43516a;
      }
    </style>
  </defs>
  <path class="cls-1" d="M0,95.961V0H19.191V76.77h19.191v19.191H0Zm38.382-19.191V0h19.194V76.77h-19.194Zm19.194,19.191v-19.191h19.191V0h19.194V95.961H57.576Z"/>
  <polygon class="cls-1" points="115.152 95.961 115.152 0 211.113 0 211.113 95.961 191.919 95.961 191.919 19.194 134.343 19.194 134.343 95.961 115.152 95.961"/>
  <rect class="cls-1" x="153.534" y="57.576" width="19.194" height="19.194"/>
  <path class="cls-1" d="M249.498,95.961v-19.191h57.576v-19.194h-76.77V0h95.961V19.194h-76.767v19.191h76.767v57.576h-76.767Z"/>
  <path class="cls-1" d="M345.456,95.961V0h95.961V95.961h-57.576v-19.191h38.385V19.194h-57.576V95.961h-19.194Z"/>
  <path class="cls-1" d="M460.611,95.961V0h19.191V95.961h-19.191Z"/>
</svg>