<?xml version="1.0" encoding="UTF-8"?>
<!DOCTYPE svg PUBLIC "-//W3C//DTD SVG 1.1//EN" "http://www.w3.org/Graphics/SVG/1.1/DTD/svg11.dtd">
<svg xmlns="http://www.w3.org/2000/svg" xml:space="preserve" width="1024px" height="1024px" shape-rendering="geometricPrecision" text-rendering="geometricPrecision" image-rendering="optimizeQuality" fill-rule="evenodd" clip-rule="evenodd" viewBox="0 0 10240 10240" xmlns:xlink="http://www.w3.org/1999/xlink">
	<title>arrow_mix icon</title>
	<desc>arrow_mix icon from the IconExperience.com O-Collection. Copyright by INCORS GmbH (www.incors.com).</desc>
	<path id="curve1" fill="#252525" d="M7551 7680c-936,0 -1634,-558 -2264,-1274 170,-197 329,-395 479,-582 30,-38 60,-75 90,-112 32,-39 64,-80 98,-122 49,-61 100,-124 153,-190 472,560 949,1000 1445,1000 34,7 312,0 372,0l-687 -687c-47,-47 -60,-113 -35,-174 25,-61 82,-99 148,-99l839 7c176,1 328,63 453,187l1186 1186c124,124 125,328 0,453l-1186 1186c-125,125 -276,189 -453,187l-839 -7c-66,-1 -123,-38 -148,-99 -25,-61 -12,-128 35,-174l687 -687c-58,0 -340,-7 -372,0zm-5951 -3061l-1186 -1186c-125,-125 -124,-328 0,-453l1186 -1186c124,-124 277,-186 453,-187l839 -7c66,-1 123,38 148,99 25,61 12,128 -35,174l-687 687 320 0c926,0 1673,657 2245,1314 -152,178 -294,356 -430,525 -30,38 -60,75 -90,112 -32,39 -64,80 -98,122 -63,79 -131,163 -201,250 -484,-580 -973,-1042 -1480,-1042l-265 0 687 687c47,47 60,113 35,174 -25,61 -82,98 -148,99l-839 7c-176,1 -328,-63 -453,-187z"/>
	<path id="curve0" fill="#252525" d="M1599 8459l-1186 -1186c-125,-125 -124,-328 0,-453l1186 -1186c124,-124 277,-186 453,-187l839 -7c66,-1 123,38 148,99 25,61 12,128 -35,174l-687 687 244 0c689,-1 1370,-845 2050,-1688 874,-1084 1749,-2168 3046,-2168l248 0 -670 -670c-47,-47 -60,-113 -35,-174 25,-61 82,-99 148,-99l839 7c176,1 328,63 453,187l1186 1186c124,124 125,328 0,453l-1186 1186c-125,125 -276,189 -453,187l-839 -7c-66,-1 -123,-38 -148,-99 -25,-61 -12,-128 35,-174l687 -687 -320 0c-745,0 -1572,1145 -1997,1672 -768,952 -1697,2168 -3045,2168l-244 0 687 687c47,47 60,113 35,174 -25,61 -82,98 -148,99l-839 7c-176,1 -328,-63 -453,-187z"/>
</svg>
