<?xml version="1.0" encoding="UTF-8"?>
<!DOCTYPE svg PUBLIC "-//W3C//DTD SVG 1.1//EN" "http://www.w3.org/Graphics/SVG/1.1/DTD/svg11.dtd">
<svg xmlns="http://www.w3.org/2000/svg" xml:space="preserve" width="1024px" height="1024px" shape-rendering="geometricPrecision" text-rendering="geometricPrecision" image-rendering="optimizeQuality" fill-rule="evenodd" clip-rule="evenodd" viewBox="0 0 10240 10240" xmlns:xlink="http://www.w3.org/1999/xlink">
	<title>vector_square icon</title>
	<desc>vector_square icon from the IconExperience.com O-Collection. Copyright by INCORS GmbH (www.incors.com).</desc>
	<path id="curve7" fill="#252525" d="M7360,2240 2880,2240 2880,1600 7360,1600z"/>
	<path id="curve6" fill="#252525" d="M8000,7360 8000,2880 8640,2880 8640,7360z"/>
	<path id="curve5" fill="#252525" d="M7360,8640 2880,8640 2880,8000 7360,8000z"/>
	<path id="curve4" fill="#252525" d="M1600,7360 1600,2880 2240,2880 2240,7360z"/>
	<path id="curve3" fill="#252525" d="M7680 1280l1280 0 0 1280 -1280 0 0 -1280zm320 320l640 0 0 640 -640 0 0 -640z"/>
	<path id="curve2" fill="#252525" d="M7680 7680l1280 0 0 1280 -1280 0 0 -1280zm320 320l640 0 0 640 -640 0 0 -640z"/>
	<path id="curve1" fill="#252525" d="M1280 7680l1280 0 0 1280 -1280 0 0 -1280zm320 320l640 0 0 640 -640 0 0 -640z"/>
	<path id="curve0" fill="#252525" d="M1280 1280l1280 0 0 1280 -1280 0 0 -1280zm320 320l640 0 0 640 -640 0 0 -640z"/>
</svg>
