<?xml version="1.0" encoding="utf-8"?>
<!-- Generator: Adobe Illustrator 24.3.0, SVG Export Plug-In . SVG Version: 6.00 Build 0)  -->
<svg version="1.1" id="Livello_1" xmlns="http://www.w3.org/2000/svg" xmlns:xlink="http://www.w3.org/1999/xlink" x="0px" y="0px"
	 viewBox="0 0 1202.8 498.6" style="enable-background:new 0 0 1202.8 498.6;" xml:space="preserve">
<style type="text/css">
	.st0{fill:#FFFFFF;}
</style>
<g id="_x23_000000ff">
	<path class="st0" d="M1192.3,232.2l7.6,7.6c2.8,4.9,4.1,10.9,1.5,16.2l-15.5,15.5c-12.3,8.4-23.7,17.9-35.9,26.4
		c-26.9,19.3-54.1,38.2-82,55.9c-3.7,2.3-7.3,4.9-11.6,5.9c-1.9-3.7-1.5-8-1.9-12c-0.8-8.9,0.2-17.9-0.8-26.9
		c-0.5-10.8-0.1-21.7-0.2-32.5c0-39.8,0-79.7,0-119.5c0.2-10.4-0.4-20.8,0.3-31.2c4.8,1.9,9.1,4.9,13.5,7.5
		c11.8,7.1,23.2,14.9,34.6,22.5c21.6,14.9,43.2,29.8,64.3,45.4C1175.1,219.3,1183.4,226.2,1192.3,232.2z"/>
	<path class="st0" d="M1024.3,122.1c3.2,1.6,7.8,2.8,8.3,7c1.3,7.7-0.2,15.6,1,23.3c0.6,13.4-0.1,26.9,0.3,40.3
		c1,7.5,0.5,15.1,0.6,22.6c0,51.6,0,103.3,0,154.9c0.2,2.5-3,3-4.6,4.1c-77.9,37.5-164.3,55.3-250.3,58.8c-9.4,1-18.9-0.3-28.3,0.8
		c-4.7,0.5-9.4,0.5-14.1,0c-10.1-1.1-20.3,0.3-30.4-0.8c-45.7-1.8-91.3-6.8-136.5-14.1c-12.3-1.8-24.5-4.3-36.8-6
		c-5.2,2.1-8.9,6.7-13.4,9.9c-5.8,5.3-12.1,10.2-17.8,15.6c-5.1,3.5-9,8.5-14,12.2c-3.8,2.8-6.8,6.6-10.7,9.4
		c-4.5,3.3-8,7.7-12.6,10.9c-9.3,8.3-18.7,16.6-28.4,24.5c-4.6,3.7-10.8,2.9-16.2,3c-6.9,0.3-13.6-1.1-20.5-0.7
		c-27.6-1.3-55.1-3.4-82.7-5c-29.9-2-59.9-3.6-89.8-6.3c-6.4-1-13.4-0.7-19.1-4.1c-3.9-3.8-5.2-9.4-5.3-14.7
		c-0.8-8.7-1-17.4-0.5-26.1c1.2-8-1-17.2,4.4-24c5.3-3.6,11.8-4.6,17.6-6.9c31.9-8.9,64.1-16.3,96.1-24.6c7.1-2.3,14.7-3.6,21.3-7.2
		c3.1-1.4,4.2-5.1,4.7-8.2c-4.7-5-12.2-4.8-18.2-7.4c-5.1-2.2-10.5-3.8-14.9-7.3c-2.2-3-2.1-7.1-2.6-10.6c-0.9-5.6-0.2-11.3-0.9-17
		c-0.7-5.9-0.2-11.8-0.4-17.7c0-44.1,0-88.2,0-132.2c0-4.3,0.9-8.5,0.7-12.7c-0.2-5.9,0.1-11.9,1.2-17.7c0.7-3.5,3.2-6.2,6.2-8
		c7.3-3.9,15.5-5.6,23.3-8.2c1.9-0.7,4-1.2,5.4-2.7c-0.5-3.7-1.8-7.8-5.4-9.6c-8.2-4.2-17.4-5.6-26.2-8.2
		c-17.4-4.4-34.9-8.7-52.3-13.1c-16.4-4.2-32.8-8.1-48.8-13.6c-3.5-1.3-7.6-2.8-9-6.6c-2.4-6.1-1.9-12.7-2.6-19.1
		c-0.1-9.2-0.4-18.4,0.6-27.6c0.1-5.4,0.8-11.7,6-14.6c6.6-3.1,14.1-3.2,21.2-4.2C264,9.5,298,7.8,332,5.4
		c26.6-1.5,53.3-3.4,79.9-4.8c5.2-0.6,10.4-0.6,15.6-0.5c4.5-0.1,8,3.3,11.4,5.7c12.8,10.3,24.7,21.6,37.3,32.1
		c8.4,7.7,17.3,14.7,25.6,22.5c9,7.3,17.5,15.3,26.8,22.2c3,2.3,6.9,2.7,10.5,2.3c50.8-7,101.4-15.8,152.7-17.8
		c6.8-1,13.7-0.2,20.5-0.6c10.3-1.2,20.7-0.4,31.1-0.6c12.3,0.2,24.6-0.6,36.8,0.7c5,0.1,9.9-0.2,14.9,0.5
		c19.9,1.1,39.7,3.2,59.4,6.1c27.2,3.8,54.2,9.2,80.6,16.6c16.8,4.3,33.1,10.3,49.5,15.8C997.9,110.9,1011.4,115.9,1024.3,122.1
		 M922.4,196.1c-4.7-3.4-9.9-6.4-15.5-7.8c-6-1.9-12.3-1.6-18.4-2.3c-11.9,0.2-24.4,1.5-34.6,8.2c-12.5,8.2-23.5,20-27.8,34.5
		c-1.7,5.7-2.4,11.7-2.3,17.7c0.1,6.4-0.4,12.8,1,19.1c1.7,10,7,19.2,14.2,26.2c8.6,8.9,19.1,16.5,31.2,19.8
		c13.9,4.5,29.3,3,42.4-3.2c6.9-2.9,12.6-7.8,18.3-12.5c7.5-8.2,14.2-17.4,17.5-28.1c2.2-5.6,3-11.7,2.7-17.7
		c0.5-9.3-2-18.4-5.5-26.8C940.3,212.3,931.4,203.9,922.4,196.1 M733.6,195.4c-8.2-5.4-18-7.6-27.6-9c-12.9-1.4-26.6-0.2-38.2,6.1
		c-5.1,2.3-8.9,6.5-13.4,9.8c-4.3,3.1-7.1,7.7-10.3,11.7c-4.4,6.8-6.7,14.7-8.6,22.5c-1.5,6.9-2.9,14.1-1.4,21.2
		c2.4,19.6,14.3,37.7,31.5,47.4c9.1,5.6,19.8,7.9,30.4,8.8c7.4,0,14.9-1,21.9-3.6c10.2-3.1,18.9-9.7,26.9-16.6
		c10.6-11.6,17.1-27.3,16.8-43.1c0.8-16-5.2-32.1-16-43.8C741.7,203.1,738.1,198.7,733.6,195.4 M549.8,199.7
		c-11.6-9.1-26.3-14.1-41-14.4c-13.8,0.3-28,4.3-38.8,13.2c-5.4,5.2-11.2,10.3-15.1,16.9c-5.7,9.4-9.6,20.1-10.1,31.1
		c-1.7,25,13.7,49.3,35.7,60.6c9.3,4.2,19.4,7.1,29.7,7c13.5-0.2,26.6-5.1,37.5-13c14.1-10.9,23.3-27.7,25-45.4
		c0.1-6.6,0.5-13.3-1.1-19.8C568.5,221.9,561.2,208.5,549.8,199.7z"/>
	<path class="st0" d="M239.4,160.7c12.7,5.9,23.9,14.8,32.7,25.6c3.2,4.3,6.2,9,7.6,14.2c1.8,6.5-1.8,14.4-8.5,16.5
		c-8.7,3-18.1,3.4-26.9,6.2c-18.3,5.3-37.3,12.3-50.6,26.5c6.6,5.6,13.2,11.3,20.8,15.5c16.7,9.7,36,12.5,54.5,16.9
		c9.3,1.9,14.7,13.4,10,21.7c-5.3,9.2-13.8,15.9-21.4,23.1c-19.2,14.8-43.5,23.3-67.8,22.5c-26.9,0.8-53.3-7.1-77.8-17.6
		c-36.4-15.9-69.3-39-99.8-64.3c-3.8-3-7.9-6.1-10.4-10.3c-2.3-4.5-2.7-10.4,0.2-14.8c10.4-12.4,23.9-21.3,36.5-31.2
		c15.7-11.5,31.6-22.9,48.8-31.9c19.9-10.9,41.3-18.8,62.9-25.4c6.9-2,14-3.1,21.2-3.2c11.3-1.4,22.7-0.2,34,0.7
		C217.1,152.8,228.8,155.3,239.4,160.7z"/>
</g>
</svg>
