<?xml version="1.0" encoding="utf-8"?>
<!-- Generator: Adobe Illustrator 24.2.1, SVG Export Plug-In . SVG Version: 6.00 Build 0)  -->
<svg version="1.1" id="Livello_1" xmlns="http://www.w3.org/2000/svg" xmlns:xlink="http://www.w3.org/1999/xlink" x="0px" y="0px"
	 viewBox="0 0 1068 1068" style="enable-background:new 0 0 1068 1068;" xml:space="preserve">
<style type="text/css">
	.st0{fill:#FFFFFF;}
</style>
<g id="_x23_ffffffff">
</g>
<g id="_x23_010101ff">
	<path class="st0" d="M46.1,21C47.2,9.6,58.5,0.2,70,1.6c11,0.7,20.2,10.8,20.3,21.7c1.6,27.6,3.1,55.1,4.7,82.7
		c3,41.2,4.5,82.4,7.5,123.6c0.6,2.6-2.3,3.7-3.8,5.2c1.3-0.7,2.6-1.5,3.9-2.3c2.3,36.8,3.9,73.6,6.5,110.4
		c1,16.4,1.8,32.7,2.8,49.1c0.1,3,1.7,5.6,2.8,8.3c7.6,19.4,11.3,40,14.9,60.5c8.5-3.5,17.4-5.7,26-8.9c49-16.4,98.1-32.5,147-49.1
		c6.1-10.1,12.2-20.3,19.5-29.5c2.9-2.9,4.7-6.6,7.5-9.5c8.5-9.5,16.9-19.2,26.7-27.3c12-11.6,25.8-21.2,39.9-30.1
		c17.6-10.7,36.5-19.5,56.2-25.8c52-16.9,109.3-17.1,161.4-0.5c45.4,14.3,86.7,41.2,118.2,76.9c7.4,7.4,13,16.3,19.7,24.3
		c4.2,6.2,8.5,12.4,12.1,19c0.7,1.2,1.4,2.7,3,3.1c52.7,17.6,105.5,35.1,158.2,52.8c4.5,1.4,9,2.7,13.4,4.6
		c2.4-12.3,4.3-24.7,7.4-36.9c2.3-7.4,4.1-15,6.9-22.2c1.3-3.5,3.5-6.8,3.5-10.6c2.1-40.6,5-81.2,7.1-121.9
		c0.8-13.1,1.5-26.2,2.3-39.3c2.3,0.6,3.7,2.7,5.7,3.9c-1.5-1.9-3.5-3.4-5.5-4.8c0-9,1.3-18,1.6-27c2-34.7,3.8-69.4,6.1-104.1
		c1.6-1.6,3.3-3.1,4.5-5c-1.5,1.3-2.7,2.8-4.4,3.9c1.1-22.7,2.6-45.3,3.8-67.9c0.3-3.8,0.1-7.8,1.2-11.5c2-6.3,6.7-11.6,12.7-14.3
		c6.2-2.5,13.6-2.3,19.4,1.1c6.6,3.8,11.3,11,11.4,18.7c1.1,22.6,2.9,45.2,4.1,67.9c2,35.7,3.8,71.4,6.3,107
		c1.9,32.5,3.4,65.1,5.7,97.6c1.7,30.5,3.5,61,5.2,91.6c0.3,2.8-0.2,5.7,1,8.4c10,23,14.7,47.9,17.8,72.6
		c6.9,51.7,5.4,104.4-3.5,155.8c-2.9,13.3-5.6,26.7-10.4,39.4c-1.1,4.2-3.5,7.9-4.5,12.2c-1.5,24.2-2.8,48.3-4.2,72.5
		c-1.4,26-3.4,52-4.7,78.1c-1.5,27.4-3.2,54.7-4.9,82c-2.3,40.6-4.6,81.2-7.1,121.8c-0.4,6-0.5,12.1-1.2,18.1
		c-1.6,11-12.7,19.7-23.8,18.5c-10.7-0.7-19.8-10.3-20.3-20.9c-1.6-26.8-3-53.7-4.6-80.5c-2.9-40.3-4.5-80.8-7.3-121.1
		c-0.9-4.3,4.3-5.8,6.1-8.9c-2.1,1.7-3.9,3.8-6.3,5.2c-1.4-23.4-2.7-46.9-4-70.3c-1.4-26.9-3.5-53.7-4.8-80.6
		c-0.5-5.3-0.2-10.7-1.2-15.9c-9.4-20.9-13.3-43.6-17.2-66c-4.4,1.8-8.9,3.2-13.4,4.6c-48.5,16.2-97,32.4-145.5,48.5
		c-4.6,1.9-9.6,2.7-14,5c-3.1,4-4.9,8.9-8.2,12.8c-5.5,9.5-12.8,17.9-19.4,26.7c-7.6,8.3-14.8,17.1-23.4,24.5
		c-3.5,2.8-6.8,5.9-10.1,9c-25.9,21.6-56,38.5-88.1,48.9c-34.2,11.2-70.7,15.2-106.5,11.9c-50.7-4.7-100.1-24.1-139.8-56.1
		c-14-10.6-26.1-23.2-37.9-36.1c-10.5-12.5-20.2-25.6-28.2-39.8c-1.4-3-5.1-3.2-7.8-4.2c-47-15.7-94-31.3-141-47
		c-8.4-3.1-17.1-5.3-25.4-8.6c-2.9,14.9-5,30.1-9.6,44.7c-2,7.6-4.8,14.9-7.8,22.1c-1.6,21.9-2.3,43.9-4.1,65.9
		c-1.4,24-2.7,48-4.1,72c-1.3,26-3.3,52-4.6,78c-2.6,48.4-6,96.7-8.4,145.1c-0.4,5.1-0.2,10.2-1.4,15.2c-2.6,8.2-9.8,15.1-18.6,16.1
		c-11.7,1.9-23.8-7.5-24.9-19.3c-1.1-16-1.7-32-3-48c-1.6-27.7-3.1-55.3-4.7-83c-2.5-41-5-82-7.2-123c-2.5-34.6-4.1-69.3-6.1-104
		c0.1-5.3-0.1-10.6-1.4-15.7c-5.2-12.3-9.2-25.1-11.9-38.2c-4-16.1-5.6-32.7-7.7-49.2c-3.4-34.5-3.4-69.3,0-103.8
		c2.1-16.2,3.6-32.6,7.6-48.5c2.4-12.1,6-24,10.5-35.5c0.8-2,2-4,2.1-6.2c0.7-9.3,0.7-18.6,1.9-27.9c0.1-14.9,1.7-29.8,2.2-44.7
		c1.9-32.8,4.1-65.6,5.8-98.4c0.8-14.7,1.5-29.3,2.7-44c2.1-36,4.1-72,6.1-108C44.5,53,45,37,46.1,21 M524.4,312.4
		c-44.9,1.8-89.1,17.9-124.8,45.2c-24.6,18.8-45.3,42.7-60.2,69.9c-18,32.7-27.6,70.1-27.3,107.5c-0.1,55.2,21.8,110,59.6,150.2
		c38.3,41.4,92.9,67.3,149.2,70.3c21.4,1.1,43-0.3,63.8-5.5C642,736.8,693,699.5,723.4,649.4c19.8-32.2,31.1-69.6,32.3-107.3
		c1.5-37.3-6.8-74.8-23.7-108c-23.3-46.5-63.7-84.1-111.6-104.3C590.2,316.8,557.1,310.9,524.4,312.4 M61.7,418.7
		c-2.5,6.8-4.1,13.8-6.2,20.8c-4.8,22.2-8,44.8-8.9,67.5c-1.3,27.4-0.7,54.8,2.2,82c3.5,25.3,7.3,51.3,19.2,74.3
		c3.5-6.3,6.2-12.9,8.5-19.7c7.4-23.9,10.5-48.8,12.7-73.5c1.5-25,1.6-50.1-0.3-75.1c-1.9-17.1-3.2-34.5-7.5-51.2
		c-2.8-13.5-6.7-27-13.5-39.1C65.9,409.3,63.6,413.9,61.7,418.7 M984,455.9c-0.2,1.9-2,2.8-3.2,3.9c0.7-0.3,2.1-1,2.8-1.3
		c-2.2,13.1-3.5,26.3-4.7,39.5c-2.6,42.4-1.2,85.3,7.7,126.9c-2.5-1.6-4.3-3.9-6.4-6c1.9,3.9,7.2,5.4,7.5,10.2
		c2.5,11.9,6.5,23.5,12.4,34.3c6.3-11.7,10-24.5,13.1-37.4c5.2-24.6,8.1-49.7,8.7-74.9c0.6-29,0-58.2-4.8-86.9
		c-1.9-13.9-4.9-27.6-9.2-40.9c-1.7-6.5-5.4-12.3-7.8-18.5C991.1,420.4,987.6,438.3,984,455.9 M788.9,457.4c3,10,5.5,20.1,7.1,30.4
		c5,25.6,5.2,52.1,2.4,78c-2.3,15.1-4.9,30.1-9.4,44.7c20.3-6.5,40.3-13.7,60.7-19.9c-1.2,1.5-2.5,2.9-3.7,4.4
		c2.5-1.8,4.2-4.7,7.1-5.8c27.1-8.9,54.2-18,81.2-27c-1-18.6-1.5-37.4,0.2-56c-30-10.1-60.2-20-90.2-30.1
		c-4.8-1.9-10.7-2.2-13.9-6.7c0.1,0.5,0.2,1.5,0.3,2C816.7,466.9,802.8,462,788.9,457.4 M133.6,506c0.4,8.3,0.9,16.7,1,25
		c0.2,10.4-0.6,20.7-0.9,31c8.4,3.2,17.2,5.5,25.6,8.7c18.7,5.9,37,12.5,55.7,18.4c3.4,0.9,5.9,3.3,7.9,6.1
		c-0.7-1.3-1.4-2.5-2.1-3.8c19.5,6,38.8,12.9,58.2,19.1c-14.9-49.5-15-103.4,0-152.9C230.5,473.5,182.1,489.9,133.6,506z"/>
	<path class="st0" d="M514.5,357.6c34.8-3.8,70.7,2.7,101.6,19.3c27.4,14.5,50.8,36.4,67.4,62.6c1.3,2.8,4.1,4.8,5,7.9
		c2.4,6.6,6.5,12.6,8.9,19.2c14,31.8,17.5,68,10.5,102c-3.6,15.6-8.7,30.9-16.3,45c-2.3,3.8-2.8,8.7-6.2,11.8
		c-17,27.9-41.6,51.3-70.7,66.3c-48.4,25.7-109.1,26.3-158,1.7c-29.4-14.5-54.6-37.3-72-65c-1.2-2.4-3.1-4.1-4.6-6.3
		c-2.4-7.5-7-14-9.6-21.5c-18.4-42.2-18.3-92,0.3-134.1c2.4-6.9,6.8-12.9,9-19.8c0.8-2.4,3-3.8,4.2-6
		C411.7,395.1,461.2,363.2,514.5,357.6 M431.9,449.3c12.8,7.8,25.9,15.2,39,22.5c11.3-11.2,25.4-19.6,40.9-23.2
		c0.4-15.1,0.1-30.3,0.1-45.4C480.8,408.1,452.2,425.4,431.9,449.3 M556.1,403.1c-0.1,15.1-0.2,30.3,0.1,45.4
		c15.5,3.8,29.8,12.1,41.1,23.3c13-7.3,25.8-14.9,38.7-22.2c-2.3-2.9-4.8-5.7-7.3-8.5c0.3-0.5,1-1.5,1.3-2.1c-0.5,0.4-1.5,1.3-2,1.8
		C608.9,421,583.2,407.7,556.1,403.1 M409.4,488c-1.4,4.7-3.4,9.2-4.4,14c-6.7,25.6-4.9,53.1,4.4,77.9c3.1-1.1,5.9-3,8.7-4.8
		c10.4-5.6,20.3-11.9,30.7-17.5c-1.6-7.1-3.6-14.2-3.6-21.6c-0.5-8.8,1.6-17.3,3.6-25.8C435.5,503.1,422.9,494.9,409.4,488
		 M619.2,510.3c1.8,8.1,4,16.3,3.7,24.8c0.1,7.7-2.1,15.2-3.7,22.7c13.1,7,25.7,14.9,38.8,22.1l0.6-0.3c11.2-29,11.3-62.2,0-91.1
		l-0.6-0.3C644.9,495.3,632.2,503.1,619.2,510.3 M492.2,519.3c-5,13-2.7,28.1,5,39.6c1.9,2.4,3.9,4.8,5.8,7.2
		c-1.1,0.9-2.2,1.8-3.3,2.7c1.4-0.8,2.6-1.6,3.9-2.5c10.5,10.2,26.4,14.4,40.6,10.9c6.4-1.9,12.8-4.5,17.8-9
		c7.9-6.1,12.9-15.3,15.3-24.9c2.7-12.4-0.4-25.7-7.9-35.8c-9-12.2-24.5-19.2-39.6-17.7C513.1,491.2,497.6,503.1,492.2,519.3
		 M591,589c2,2.5,4.5,4.6,6.6,7.1c-11.4,10.8-25.1,19.2-40.4,23.2c-1.9,0.2-1.1,2.4-1.3,3.7c0,14,0,28,0,42
		c31.2-5,59.8-22.2,80.1-46.2c-12-7.3-24.5-14-36.5-21.3C596.5,594.9,594.3,591.4,591,589 M431.9,618.3
		c19.9,24.4,48.8,41.4,79.9,46.5c0.1-14.9,0.1-29.8,0-44.8c-3.9-2.4-9-2.6-13-5c-10.6-4.3-19.9-11-28.1-18.9
		C457.7,603.4,445,611.3,431.9,618.3z"/>
</g>
</svg>
