<?xml version="1.0" encoding="UTF-8"?>
<!DOCTYPE svg PUBLIC "-//W3C//DTD SVG 1.1//EN" "http://www.w3.org/Graphics/SVG/1.1/DTD/svg11.dtd">
<svg xmlns="http://www.w3.org/2000/svg" xml:space="preserve" width="1024px" height="1024px" shape-rendering="geometricPrecision" text-rendering="geometricPrecision" image-rendering="optimizeQuality" fill-rule="evenodd" clip-rule="evenodd" viewBox="0 0 10240 10240" xmlns:xlink="http://www.w3.org/1999/xlink">
	<title>globe icon</title>
	<desc>globe icon from the IconExperience.com O-Collection. Copyright by INCORS GmbH (www.incors.com).</desc>
	<path id="curve1" fill="#FFFFFF" d="M7065 651c2115,898 3102,3340 2204,5455 -583,1373 -1817,2270 -3189,2485l0 369 1280 0c176,0 320,144 320,320l0 320 -4480 0 0 -320c0,-176 144,-320 320,-320l1280 0 0 -369c-332,-52 -662,-145 -985,-282l-736 -313c-81,-34 -119,-129 -85,-210l125 -295c34,-81 129,-119 210,-85l736 313c1026,434 2240,376 3254,-263 1644,-1037 2136,-3211 1098,-4855 -398,-631 -963,-1092 -1601,-1362l-736 -313c-81,-34 -119,-129 -85,-210l125 -295c34,-81 129,-119 210,-85l736 313z"/>
	<path id="curve0" fill="#FFFFFF" d="M5440 1280c1767,0 3200,1433 3200,3200 0,1767 -1433,3200 -3200,3200 -1767,0 -3200,-1433 -3200,-3200 0,-1767 1433,-3200 3200,-3200zm1096 2409c81,5 187,44 219,73 161,146 69,337 250,453 21,13 148,-6 170,8 110,72 176,233 303,224 76,-5 159,-109 121,-175 -37,-64 -132,-69 -173,-136 -61,-99 -170,-43 -207,-157 -17,-51 -25,-193 -42,-273 -18,-86 -168,-117 -158,-78 31,126 128,185 120,244 -10,64 -191,77 -107,-11 44,-46 -48,-126 -144,-243 -50,-61 -76,-176 -194,-170 -58,3 -198,78 -257,117 -102,67 -232,-19 -308,-105 -74,-85 20,-313 184,-360 157,-45 228,53 355,69 52,7 96,-34 186,-51 106,-21 10,-164 92,-235 67,-58 194,-21 270,-25 72,-4 161,-25 210,41 67,92 163,138 228,231 66,94 123,164 198,210 -236,-499 -626,-928 -1139,-1205 40,110 62,247 5,300 -79,74 -187,163 -392,153 -152,-7 -325,-78 -481,-77 -161,1 -295,-61 -381,-76 -135,-23 177,-402 162,-466 -23,-94 -376,-172 -436,-110 -139,145 -48,357 -69,388 -41,60 -151,322 -242,363 -138,62 -419,52 -453,43 -166,-44 -270,100 -426,144 -66,18 -425,174 -499,238 -201,174 -156,359 -125,424 52,111 83,134 165,203 32,27 309,360 364,500 55,142 60,268 133,370 89,123 272,297 277,365 23,309 -172,646 -654,740 -125,24 -368,47 -396,249 -5,37 -14,69 -22,101 278,405 671,739 1157,945 1356,575 2921,-57 3497,-1413 63,-149 112,-301 147,-454 -7,-7 -14,-11 -22,-12 -48,-5 -108,128 -187,186 -64,47 -151,19 -172,31 -143,85 117,312 -86,426 -87,49 -328,142 -465,335 -290,412 -109,166 -409,467 -45,45 -172,238 -223,271 -230,153 -725,227 -770,65 -26,-94 -14,-216 11,-325 25,-109 -26,-284 19,-361 70,-119 97,-155 161,-297 3,-6 64,-392 63,-428 -6,-165 -86,-271 -256,-283 -133,-9 -206,-109 -282,-185 -152,-152 -135,-428 -91,-640 0,-1 159,-296 167,-312 40,-79 110,-139 180,-183 530,-332 367,-162 857,-135zm-3521 1901c-27,-116 -45,-220 -44,-290 2,-152 88,-394 56,-492 -67,-204 -134,-375 -94,-537 37,-148 43,-384 75,-500 35,-128 44,-278 16,-419 -13,28 -26,57 -39,86 -305,718 -271,1495 30,2152z"/>
</svg>
