<?xml version="1.0" encoding="utf-8"?>
<!-- Generator: Adobe Illustrator 17.0.0, SVG Export Plug-In . SVG Version: 6.00 Build 0)  -->
<!DOCTYPE svg PUBLIC "-//W3C//DTD SVG 1.1//EN" "http://www.w3.org/Graphics/SVG/1.1/DTD/svg11.dtd">
<svg version="1.1" id="Layer_1" xmlns="http://www.w3.org/2000/svg" xmlns:xlink="http://www.w3.org/1999/xlink" x="0px" y="0px"
	 width="600px" height="300px" viewBox="0 0 600 300" enable-background="new 0 0 600 300" xml:space="preserve">
<g>
	<path fill="#FFFFFF" d="M64.198,207.784v-95.961h19.191v76.77h19.191v19.191H64.198z M102.58,188.593v-76.77h19.194v76.77H102.58z
		 M121.774,207.784v-19.191h19.191v-76.77h19.194v95.961H121.774z"/>
	<polygon fill="#FFFFFF" points="179.35,207.784 179.35,111.823 275.311,111.823 275.311,207.784 256.117,207.784 256.117,131.017 
		198.541,131.017 198.541,207.784 	"/>
	<rect x="217.732" y="169.399" fill="#009036" width="19.194" height="19.194"/>
	<path fill="#FFFFFF" d="M313.696,207.784v-19.191h57.576v-19.194h-76.77v-57.576h95.961v19.194h-76.767v19.191h76.767v57.576
		H313.696z"/>
	<path fill="#009036" d="M409.654,207.784v-95.961h95.961v95.961h-57.576v-19.191h38.385v-57.576h-57.576v76.767H409.654z"/>
	<path fill="#FFFFFF" d="M524.809,207.784v-95.961H544v95.961H524.809z"/>
</g>
</svg>
